SplineFontDB: 3.0
FontName: AnonymousProPatchedMerged
FullName: Anonymous Pro Patched Merged
FamilyName: Anonymous Pro
Weight: Book
Copyright: Copyright (c) Mark Simonson 2009-2010. All rights reserved.
Version: 1.002
ItalicAngle: 0
UnderlinePosition: -248
UnderlineWidth: 123
Ascent: 1675
Descent: 373
InvalidEm: 0
sfntRevision: 0x00010083
LayerCount: 2
Layer: 0 1 "Back" 1
Layer: 1 1 "Fore" 0
XUID: [1021 622 -1180208215 551197]
FSType: 0
OS2Version: 3
OS2_WeightWidthSlopeOnly: 0
OS2_UseTypoMetrics: 1
CreationTime: 1255118160
ModificationTime: 1460740427
PfmFamily: 17
TTFWeight: 400
TTFWidth: 5
LineGap: 0
VLineGap: 0
Panose: 2 6 6 9 3 2 2 0 5 4
OS2TypoAscent: 1675
OS2TypoAOffset: 0
OS2TypoDescent: -373
OS2TypoDOffset: 0
OS2TypoLinegap: 0
OS2WinAscent: 1675
OS2WinAOffset: 0
OS2WinDescent: 373
OS2WinDOffset: 0
HheadAscent: 1675
HheadAOffset: 0
HheadDescent: -373
HheadDOffset: 0
OS2SubXSize: 1434
OS2SubYSize: 1331
OS2SubXOff: 0
OS2SubYOff: 293
OS2SupXSize: 1434
OS2SupYSize: 1331
OS2SupXOff: 0
OS2SupYOff: 928
OS2StrikeYSize: 123
OS2StrikeYPos: 465
OS2CapHeight: 1305
OS2XHeight: 932
OS2FamilyClass: 1281
OS2Vendor: 'mlss'
OS2CodePages: 2000009f.00000000
OS2UnicodeRanges: a00002af.7000a9ca.00000000.00000000
Lookup: 1 0 0 "Hack-Regular-Patched-'aalt' Access All Alternates in Latin lookup 0" { "Hack-Regular-Patched-'aalt' Access All Alternates in Latin lookup 0 subtable"  } ['aalt' ('DFLT' <'dflt' > 'latn' <'MOL ' 'ROM ' 'dflt' > ) ]
Lookup: 4 0 0 "Hack-Regular-Patched-'frac' Diagonal Fractions in Latin lookup 10" { "Hack-Regular-Patched-'frac' Diagonal Fractions in Latin lookup 10 subtable"  } ['frac' ('DFLT' <'dflt' > 'latn' <'MOL ' 'ROM ' 'dflt' > ) ]
Lookup: 4 0 0 "Hack-Regular-Patched-'frac' Diagonal Fractions in Latin lookup 11" { "Hack-Regular-Patched-'frac' Diagonal Fractions in Latin lookup 11 subtable"  } ['frac' ('latn' <'MOL ' 'ROM ' 'dflt' > ) ]

StartChar: .notdef
Encoding: 65536 -1 0
Width: 1118
Flags: W
LayerCount: 2
Back
Fore
SplineSet
883 0 m 1,0,-1
 49 0 l 1,1,-1
 49 1305 l 1,2,-1
 883 1305 l 1,3,-1
 883 0 l 1,0,-1
186 117 m 1,4,-1
 745 117 l 1,5,-1
 745 1188 l 1,6,-1
 186 1188 l 1,7,-1
 186 117 l 1,4,-1
EndSplineSet
EndChar

StartChar: numbersign
Encoding: 35 35 4
Width: 1118
Flags: W
LayerCount: 2
Back
Fore
SplineSet
932 222 m 1,0,-1
 711 222 l 1,1,-1
 711 1 l 1,2,-1
 594 1 l 1,3,-1
 594 222 l 1,4,-1
 338 222 l 1,5,-1
 338 1 l 1,6,-1
 221 1 l 1,7,-1
 221 222 l 1,8,-1
 0 222 l 1,9,-1
 0 332 l 1,10,-1
 221 332 l 1,11,-1
 221 596 l 1,12,-1
 0 596 l 1,13,-1
 0 705 l 1,14,-1
 221 705 l 1,15,-1
 221 933 l 1,16,-1
 338 933 l 1,17,-1
 338 705 l 1,18,-1
 594 705 l 1,19,-1
 594 933 l 1,20,-1
 711 933 l 1,21,-1
 711 705 l 1,22,-1
 932 705 l 1,23,-1
 932 596 l 1,24,-1
 711 596 l 1,25,-1
 711 332 l 1,26,-1
 932 332 l 1,27,-1
 932 222 l 1,0,-1
594 332 m 1,28,-1
 594 596 l 1,29,-1
 338 596 l 1,30,-1
 338 332 l 1,31,-1
 594 332 l 1,28,-1
EndSplineSet
EndChar

StartChar: dollar
Encoding: 36 36 5
Width: 1118
Flags: W
LayerCount: 2
Back
Fore
SplineSet
397 -16 m 1,0,1
 313 -6 313 -6 244.5 25.5 c 128,-1,2
 176 57 176 57 126 104.5 c 128,-1,3
 76 152 76 152 44 213 c 128,-1,4
 12 274 12 274 0 342 c 1,5,-1
 129 375 l 1,6,7
 152 274 152 274 216.5 199.5 c 128,-1,8
 281 125 281 125 397 104 c 1,9,-1
 397 631 l 1,10,11
 313 662 313 662 247.5 694.5 c 128,-1,12
 182 727 182 727 136 769 c 128,-1,13
 90 811 90 811 66.5 865.5 c 128,-1,14
 43 920 43 920 43 993 c 0,15,16
 43 1057 43 1057 67.5 1113 c 128,-1,17
 92 1169 92 1169 137 1214.5 c 128,-1,18
 182 1260 182 1260 247.5 1288.5 c 128,-1,19
 313 1317 313 1317 397 1327 c 1,20,-1
 397 1491 l 1,21,-1
 535 1491 l 1,22,-1
 535 1327 l 1,23,24
 610 1317 610 1317 673.5 1283 c 128,-1,25
 737 1249 737 1249 783 1200 c 128,-1,26
 829 1151 829 1151 857 1091.5 c 128,-1,27
 885 1032 885 1032 891 971 c 1,28,-1
 748 946 l 1,29,30
 735 1034 735 1034 683 1107 c 128,-1,31
 631 1180 631 1180 535 1200 c 1,32,-1
 535 729 l 1,33,34
 717 662 717 662 808 574.5 c 128,-1,35
 899 487 899 487 899 340 c 0,36,37
 899 272 899 272 874.5 212 c 128,-1,38
 850 152 850 152 803 104.5 c 128,-1,39
 756 57 756 57 688.5 24.5 c 128,-1,40
 621 -8 621 -8 535 -16 c 1,41,-1
 535 -186 l 1,42,-1
 397 -186 l 1,43,-1
 397 -16 l 1,0,1
750 328 m 0,44,45
 750 414 750 414 695.5 474.5 c 128,-1,46
 641 535 641 535 535 582 c 1,47,-1
 535 104 l 1,48,49
 651 121 651 121 699.5 183.5 c 128,-1,50
 748 246 748 246 750 328 c 0,44,45
184 995 m 0,51,52
 184 918 184 918 241.5 866.5 c 128,-1,53
 299 815 299 815 397 776 c 1,54,-1
 397 1202 l 1,55,56
 342 1194 342 1194 301 1172.5 c 128,-1,57
 260 1151 260 1151 234.5 1122.5 c 128,-1,58
 209 1094 209 1094 196.5 1061 c 128,-1,59
 184 1028 184 1028 184 995 c 0,51,52
EndSplineSet
EndChar

StartChar: percent
Encoding: 37 37 6
Width: 1118
Flags: W
LayerCount: 2
Back
Fore
SplineSet
481 1073 m 256,0,1
 481 1022 481 1022 461.5 976 c 128,-1,2
 442 930 442 930 407.5 896 c 128,-1,3
 373 862 373 862 327 841.5 c 128,-1,4
 281 821 281 821 229 821 c 0,5,6
 178 821 178 821 132 841.5 c 128,-1,7
 86 862 86 862 52 896 c 128,-1,8
 18 930 18 930 -1 976 c 128,-1,9
 -20 1022 -20 1022 -20 1073 c 256,10,11
 -20 1124 -20 1124 -1 1171.5 c 128,-1,12
 18 1219 18 1219 52 1252.5 c 128,-1,13
 86 1286 86 1286 132 1306.5 c 128,-1,14
 178 1327 178 1327 229 1327 c 0,15,16
 281 1327 281 1327 327 1306.5 c 128,-1,17
 373 1286 373 1286 407.5 1252.5 c 128,-1,18
 442 1219 442 1219 461.5 1171.5 c 128,-1,19
 481 1124 481 1124 481 1073 c 256,0,1
932 1272 m 1,20,-1
 96 -27 l 1,21,-1
 2 33 l 1,22,-1
 840 1335 l 1,23,-1
 932 1272 l 1,20,-1
961 229 m 0,24,25
 961 176 961 176 940.5 131 c 128,-1,26
 920 86 920 86 886 51 c 128,-1,27
 852 16 852 16 805 -3.5 c 128,-1,28
 758 -23 758 -23 707 -23 c 0,29,30
 655 -23 655 -23 609 -3.5 c 128,-1,31
 563 16 563 16 529.5 50 c 128,-1,32
 496 84 496 84 475.5 130 c 128,-1,33
 455 176 455 176 455 229 c 0,34,35
 455 281 455 281 475.5 327 c 128,-1,36
 496 373 496 373 529.5 406.5 c 128,-1,37
 563 440 563 440 609 459.5 c 128,-1,38
 655 479 655 479 707 479 c 0,39,40
 758 479 758 479 804 459.5 c 128,-1,41
 850 440 850 440 885 406.5 c 128,-1,42
 920 373 920 373 940.5 327 c 128,-1,43
 961 281 961 281 961 229 c 0,24,25
379 1073 m 0,44,45
 379 1137 379 1137 336 1181 c 128,-1,46
 293 1225 293 1225 229 1225 c 0,47,48
 166 1225 166 1225 123 1181 c 128,-1,49
 80 1137 80 1137 80 1073 c 0,50,51
 80 1010 80 1010 123 966 c 128,-1,52
 166 922 166 922 229 922 c 0,53,54
 293 922 293 922 336 966 c 128,-1,55
 379 1010 379 1010 379 1073 c 0,44,45
858 229 m 0,56,57
 858 293 858 293 814 336 c 128,-1,58
 770 379 770 379 707 379 c 0,59,60
 643 379 643 379 600 336 c 128,-1,61
 557 293 557 293 557 229 c 0,62,63
 557 166 557 166 600 122 c 128,-1,64
 643 78 643 78 707 78 c 0,65,66
 770 78 770 78 814 122 c 128,-1,67
 858 166 858 166 858 229 c 0,56,57
EndSplineSet
EndChar

StartChar: ampersand
Encoding: 38 38 7
Width: 1118
Flags: W
LayerCount: 2
Back
Fore
SplineSet
956 565 m 1,0,1
 938 479 938 479 898 392 c 128,-1,2
 858 305 858 305 799 227 c 1,3,-1
 956 80 l 1,4,-1
 862 -27 l 1,5,-1
 705 127 l 1,6,7
 631 61 631 61 541 19 c 128,-1,8
 451 -23 451 -23 346 -23 c 0,9,10
 270 -23 270 -23 202.5 5 c 128,-1,11
 135 33 135 33 85 81 c 128,-1,12
 35 129 35 129 5 193.5 c 128,-1,13
 -25 258 -25 258 -25 334 c 0,14,15
 -25 397 -25 397 -11.5 449.5 c 128,-1,16
 2 502 2 502 25.5 544 c 128,-1,17
 49 586 49 586 81 619.5 c 128,-1,18
 113 653 113 653 150 682 c 1,19,20
 88 760 88 760 54 836.5 c 128,-1,21
 20 913 20 913 20 991 c 0,22,23
 20 1145 20 1145 109.5 1236 c 128,-1,24
 199 1327 199 1327 348 1327 c 0,25,26
 416 1327 416 1327 475.5 1306.5 c 128,-1,27
 535 1286 535 1286 579 1248 c 128,-1,28
 623 1210 623 1210 647.5 1156 c 128,-1,29
 672 1102 672 1102 672 1032 c 0,30,31
 672 954 672 954 641 899 c 128,-1,32
 610 844 610 844 563 802 c 128,-1,33
 516 760 516 760 456.5 726 c 128,-1,34
 397 692 397 692 340 655 c 1,35,-1
 700 317 l 1,36,37
 748 383 748 383 778.5 455.5 c 128,-1,38
 809 528 809 528 825 598 c 1,39,-1
 956 565 l 1,0,1
346 109 m 0,40,41
 424 109 424 109 491.5 138.5 c 128,-1,42
 559 168 559 168 612 217 c 1,43,-1
 268 553 l 1,44,-1
 238 582 l 1,45,46
 186 537 186 537 154.5 478.5 c 128,-1,47
 123 420 123 420 123 334 c 0,48,49
 123 238 123 238 185.5 173.5 c 128,-1,50
 248 109 248 109 346 109 c 0,40,41
162 991 m 0,51,52
 162 944 162 944 179.5 884.5 c 128,-1,53
 197 825 197 825 254 750 c 1,54,55
 305 780 305 780 355.5 809 c 128,-1,56
 406 838 406 838 444.5 870.5 c 128,-1,57
 483 903 483 903 506.5 943 c 128,-1,58
 530 983 530 983 530 1036 c 0,59,60
 530 1114 530 1114 478 1159 c 128,-1,61
 426 1204 426 1204 348 1204 c 0,62,63
 305 1204 305 1204 270.5 1186.5 c 128,-1,64
 236 1169 236 1169 211 1139.5 c 128,-1,65
 186 1110 186 1110 174 1071 c 128,-1,66
 162 1032 162 1032 162 991 c 0,51,52
EndSplineSet
EndChar

StartChar: quotesingle
Encoding: 39 39 8
Width: 1118
Flags: W
LayerCount: 2
Back
Fore
SplineSet
559 1305 m 1,0,-1
 516 836 l 1,1,-1
 414 836 l 1,2,-1
 373 1305 l 1,3,-1
 559 1305 l 1,0,-1
EndSplineSet
EndChar

StartChar: parenleft
Encoding: 40 40 9
Width: 1118
Flags: W
LayerCount: 2
Back
Fore
SplineSet
633 -371 m 1,0,1
 526 -287 526 -287 443 -180.5 c 128,-1,2
 360 -74 360 -74 304 47 c 128,-1,3
 248 168 248 168 218 300 c 128,-1,4
 188 432 188 432 188 567 c 256,5,6
 188 702 188 702 218 833.5 c 128,-1,7
 248 965 248 965 304 1085.5 c 128,-1,8
 360 1206 360 1206 443 1312.5 c 128,-1,9
 526 1419 526 1419 633 1503 c 1,10,-1
 705 1413 l 1,11,12
 610 1337 610 1337 535.5 1241 c 128,-1,13
 461 1145 461 1145 409.5 1035.5 c 128,-1,14
 358 926 358 926 331.5 807 c 128,-1,15
 305 688 305 688 305 567 c 0,16,17
 305 444 305 444 331.5 325.5 c 128,-1,18
 358 207 358 207 409.5 98.5 c 128,-1,19
 461 -10 461 -10 534.5 -107.5 c 128,-1,20
 608 -205 608 -205 705 -281 c 1,21,-1
 633 -371 l 1,0,1
EndSplineSet
EndChar

StartChar: parenright
Encoding: 41 41 10
Width: 1118
Flags: W
LayerCount: 2
Back
Fore
SplineSet
748 565 m 256,0,1
 748 430 748 430 718 299 c 128,-1,2
 688 168 688 168 630.5 47 c 128,-1,3
 573 -74 573 -74 490.5 -180.5 c 128,-1,4
 408 -287 408 -287 301 -371 c 1,5,-1
 229 -281 l 1,6,7
 324 -205 324 -205 398.5 -108.5 c 128,-1,8
 473 -12 473 -12 525.5 97.5 c 128,-1,9
 578 207 578 207 604.5 325.5 c 128,-1,10
 631 444 631 444 631 565 c 256,11,12
 631 686 631 686 604.5 806 c 128,-1,13
 578 926 578 926 525.5 1035.5 c 128,-1,14
 473 1145 473 1145 398.5 1241 c 128,-1,15
 324 1337 324 1337 229 1413 c 1,16,-1
 301 1503 l 1,17,18
 408 1419 408 1419 490.5 1312.5 c 128,-1,19
 573 1206 573 1206 630.5 1085.5 c 128,-1,20
 688 965 688 965 718 832.5 c 128,-1,21
 748 700 748 700 748 565 c 256,0,1
EndSplineSet
EndChar

StartChar: asterisk
Encoding: 42 42 11
Width: 1118
Flags: W
LayerCount: 2
Back
Fore
SplineSet
897 652 m 1,0,-1
 555 468 l 1,1,-1
 897 279 l 1,2,-1
 842 185 l 1,3,-1
 510 388 l 1,4,-1
 524 1 l 1,5,-1
 408 1 l 1,6,-1
 422 388 l 1,7,-1
 90 185 l 1,8,-1
 35 279 l 1,9,-1
 377 468 l 1,10,-1
 35 652 l 1,11,-1
 90 748 l 1,12,-1
 422 543 l 1,13,-1
 408 933 l 1,14,-1
 524 933 l 1,15,-1
 510 543 l 1,16,-1
 842 748 l 1,17,-1
 897 652 l 1,0,-1
EndSplineSet
EndChar

StartChar: plus
Encoding: 43 43 12
Width: 1118
Flags: W
LayerCount: 2
Back
Fore
SplineSet
932 420 m 1,0,-1
 524 420 l 1,1,-1
 524 13 l 1,2,-1
 408 13 l 1,3,-1
 408 420 l 1,4,-1
 0 420 l 1,5,-1
 0 537 l 1,6,-1
 408 537 l 1,7,-1
 408 944 l 1,8,-1
 524 944 l 1,9,-1
 524 537 l 1,10,-1
 932 537 l 1,11,-1
 932 420 l 1,0,-1
EndSplineSet
EndChar

StartChar: comma
Encoding: 44 44 13
Width: 1118
Flags: W
LayerCount: 2
Back
Fore
SplineSet
610 186 m 1,0,-1
 336 -373 l 1,1,-1
 240 -373 l 1,2,-1
 426 186 l 1,3,-1
 610 186 l 1,0,-1
EndSplineSet
EndChar

StartChar: hyphen
Encoding: 45 45 14
Width: 1118
Flags: W
LayerCount: 2
Back
Fore
SplineSet
932 420 m 1,0,-1
 0 420 l 1,1,-1
 0 537 l 1,2,-1
 932 537 l 1,3,-1
 932 420 l 1,0,-1
EndSplineSet
EndChar

StartChar: period
Encoding: 46 46 15
Width: 1118
Flags: W
LayerCount: 2
Back
Fore
SplineSet
559 0 m 1,0,-1
 373 0 l 1,1,-1
 373 186 l 1,2,-1
 559 186 l 1,3,-1
 559 0 l 1,0,-1
EndSplineSet
EndChar

StartChar: slash
Encoding: 47 47 16
Width: 1118
Flags: W
LayerCount: 2
Back
Fore
SplineSet
905 1303 m 1,0,-1
 139 -240 l 1,1,-1
 41 -188 l 1,2,-1
 807 1354 l 1,3,-1
 905 1303 l 1,0,-1
EndSplineSet
EndChar

StartChar: zero
Encoding: 48 48 17
Width: 1118
Flags: W
LayerCount: 2
Back
Fore
SplineSet
104 651 m 0,0,1
 104 506 104 506 139 379 c 1,2,-1
 750 1024 l 1,3,4
 702 1114 702 1114 631.5 1162 c 128,-1,5
 561 1210 561 1210 467 1210 c 0,6,7
 291 1210 291 1210 197.5 1060.5 c 128,-1,8
 104 911 104 911 104 651 c 0,0,1
186 268 m 1,9,10
 285 92 285 92 467 92 c 0,11,12
 639 92 639 92 734 241.5 c 128,-1,13
 829 391 829 391 829 651 c 0,14,15
 829 723 829 723 820 787.5 c 128,-1,16
 811 852 811 852 795 911 c 1,17,-1
 186 268 l 1,9,10
-33 651 m 256,18,19
 -33 782 -33 782 -5 904 c 128,-1,20
 23 1026 23 1026 82 1120 c 128,-1,21
 141 1214 141 1214 236.5 1270.5 c 128,-1,22
 332 1327 332 1327 467 1327 c 256,23,24
 602 1327 602 1327 697.5 1270.5 c 128,-1,25
 793 1214 793 1214 853 1120 c 128,-1,26
 913 1026 913 1026 940 904 c 128,-1,27
 967 782 967 782 967 651 c 256,28,29
 967 520 967 520 940 398 c 128,-1,30
 913 276 913 276 854 183 c 128,-1,31
 795 90 795 90 699.5 33.5 c 128,-1,32
 604 -23 604 -23 467 -23 c 256,33,34
 330 -23 330 -23 234.5 33.5 c 128,-1,35
 139 90 139 90 79.5 183 c 128,-1,36
 20 276 20 276 -6.5 398 c 128,-1,37
 -33 520 -33 520 -33 651 c 256,18,19
EndSplineSet
EndChar

StartChar: one
Encoding: 49 49 18
Width: 1118
Flags: W
LayerCount: 2
Back
Fore
SplineSet
745 0 m 1,0,-1
 186 0 l 1,1,-1
 186 117 l 1,2,-1
 397 117 l 1,3,-1
 397 1008 l 1,4,5
 379 967 379 967 340 920.5 c 128,-1,6
 301 874 301 874 248 835.5 c 128,-1,7
 195 797 195 797 131.5 771 c 128,-1,8
 68 745 68 745 0 745 c 1,9,-1
 0 887 l 1,10,11
 61 887 61 887 131 925 c 128,-1,12
 201 963 201 963 260 1022 c 128,-1,13
 319 1081 319 1081 358 1156 c 128,-1,14
 397 1231 397 1231 397 1305 c 1,15,-1
 535 1305 l 1,16,-1
 535 117 l 1,17,-1
 745 117 l 1,18,-1
 745 0 l 1,0,-1
EndSplineSet
EndChar

StartChar: two
Encoding: 50 50 19
Width: 1118
Flags: W
LayerCount: 2
Back
Fore
SplineSet
883 967 m 0,0,1
 883 913 883 913 873.5 870 c 128,-1,2
 864 827 864 827 839.5 783 c 128,-1,3
 815 739 815 739 775 690 c 128,-1,4
 735 641 735 641 674 578 c 2,5,-1
 219 117 l 1,6,-1
 770 117 l 1,7,-1
 770 373 l 1,8,-1
 887 373 l 1,9,-1
 887 0 l 1,10,-1
 39 0 l 1,11,-1
 39 121 l 1,12,-1
 547 637 l 2,13,14
 586 676 586 676 621.5 715 c 128,-1,15
 657 754 657 754 685 794 c 128,-1,16
 713 834 713 834 729 877 c 128,-1,17
 745 920 745 920 745 967 c 0,18,19
 745 1087 745 1087 665.5 1148.5 c 128,-1,20
 586 1210 586 1210 469 1210 c 0,21,22
 305 1210 305 1210 221 1119 c 128,-1,23
 137 1028 137 1028 137 856 c 1,24,-1
 10 856 l 1,25,26
 10 1077 10 1077 128 1202 c 128,-1,27
 246 1327 246 1327 469 1327 c 0,28,29
 553 1327 553 1327 627.5 1302.5 c 128,-1,30
 702 1278 702 1278 759.5 1232 c 128,-1,31
 817 1186 817 1186 850 1119.5 c 128,-1,32
 883 1053 883 1053 883 967 c 0,0,1
EndSplineSet
EndChar

StartChar: three
Encoding: 51 51 20
Width: 1118
Flags: W
LayerCount: 2
Back
Fore
SplineSet
920 360 m 0,0,1
 920 274 920 274 885 203.5 c 128,-1,2
 850 133 850 133 791.5 83 c 128,-1,3
 733 33 733 33 656.5 5 c 128,-1,4
 580 -23 580 -23 496 -23 c 0,5,6
 401 -23 401 -23 319.5 3 c 128,-1,7
 238 29 238 29 175.5 79 c 128,-1,8
 113 129 113 129 74 205 c 128,-1,9
 35 281 35 281 27 379 c 1,10,-1
 160 397 l 1,11,12
 172 246 172 246 265 170 c 128,-1,13
 358 94 358 94 496 94 c 0,14,15
 555 94 555 94 607 113.5 c 128,-1,16
 659 133 659 133 698 169 c 128,-1,17
 737 205 737 205 759.5 253 c 128,-1,18
 782 301 782 301 782 360 c 0,19,20
 782 440 782 440 756.5 490.5 c 128,-1,21
 731 541 731 541 683 569.5 c 128,-1,22
 635 598 635 598 564.5 608 c 128,-1,23
 494 618 494 618 401 618 c 1,24,-1
 401 735 l 1,25,26
 469 735 469 735 532.5 746.5 c 128,-1,27
 596 758 596 758 646 784.5 c 128,-1,28
 696 811 696 811 727 855 c 128,-1,29
 758 899 758 899 758 967 c 0,30,31
 758 1077 758 1077 685 1143.5 c 128,-1,32
 612 1210 612 1210 496 1210 c 0,33,34
 350 1210 350 1210 262 1133.5 c 128,-1,35
 174 1057 174 1057 174 893 c 1,36,-1
 45 893 l 1,37,38
 45 995 45 995 78 1076 c 128,-1,39
 111 1157 111 1157 170 1212.5 c 128,-1,40
 229 1268 229 1268 312 1297.5 c 128,-1,41
 395 1327 395 1327 496 1327 c 0,42,43
 580 1327 580 1327 652.5 1302.5 c 128,-1,44
 725 1278 725 1278 779.5 1232 c 128,-1,45
 834 1186 834 1186 864.5 1119.5 c 128,-1,46
 895 1053 895 1053 895 967 c 0,47,48
 895 856 895 856 828.5 782.5 c 128,-1,49
 762 709 762 709 639 690 c 1,50,51
 709 680 709 680 761 650.5 c 128,-1,52
 813 621 813 621 848 575.5 c 128,-1,53
 883 530 883 530 901.5 475 c 128,-1,54
 920 420 920 420 920 360 c 0,0,1
EndSplineSet
EndChar

StartChar: four
Encoding: 52 52 21
Width: 1118
Flags: W
LayerCount: 2
Back
Fore
SplineSet
932 0 m 1,0,-1
 373 0 l 1,1,-1
 373 117 l 1,2,-1
 584 117 l 1,3,-1
 584 373 l 1,4,-1
 0 373 l 1,5,-1
 0 492 l 1,6,-1
 547 1305 l 1,7,-1
 721 1305 l 1,8,-1
 721 492 l 1,9,-1
 932 492 l 1,10,-1
 932 373 l 1,11,-1
 721 373 l 1,12,-1
 721 117 l 1,13,-1
 932 117 l 1,14,-1
 932 0 l 1,0,-1
584 492 m 1,15,-1
 584 1143 l 1,16,-1
 145 492 l 1,17,-1
 584 492 l 1,15,-1
EndSplineSet
EndChar

StartChar: five
Encoding: 53 53 22
Width: 1118
Flags: W
LayerCount: 2
Back
Fore
SplineSet
938 438 m 0,0,1
 938 342 938 342 902 258 c 128,-1,2
 866 174 866 174 803.5 111.5 c 128,-1,3
 741 49 741 49 653 13 c 128,-1,4
 565 -23 565 -23 461 -23 c 0,5,6
 367 -23 367 -23 287 5 c 128,-1,7
 207 33 207 33 146.5 85 c 128,-1,8
 86 137 86 137 49 213 c 128,-1,9
 12 289 12 289 4 387 c 1,10,-1
 137 408 l 1,11,12
 143 340 143 340 169 281.5 c 128,-1,13
 195 223 195 223 237 182 c 128,-1,14
 279 141 279 141 336 117.5 c 128,-1,15
 393 94 393 94 461 94 c 0,16,17
 541 94 541 94 603.5 120.5 c 128,-1,18
 666 147 666 147 710 194.5 c 128,-1,19
 754 242 754 242 777.5 304.5 c 128,-1,20
 801 367 801 367 801 438 c 0,21,22
 801 512 801 512 777.5 575.5 c 128,-1,23
 754 639 754 639 711 685 c 128,-1,24
 668 731 668 731 605.5 757.5 c 128,-1,25
 543 784 543 784 467 784 c 0,26,27
 387 784 387 784 313.5 750.5 c 128,-1,28
 240 717 240 717 186 653 c 1,29,-1
 49 653 l 1,30,-1
 49 1305 l 1,31,-1
 866 1305 l 1,32,-1
 866 1188 l 1,33,-1
 186 1188 l 1,34,-1
 186 780 l 1,35,36
 246 838 246 838 322.5 869.5 c 128,-1,37
 399 901 399 901 479 901 c 0,38,39
 580 901 580 901 664 868.5 c 128,-1,40
 748 836 748 836 809 776.5 c 128,-1,41
 870 717 870 717 904 631 c 128,-1,42
 938 545 938 545 938 438 c 0,0,1
EndSplineSet
EndChar

StartChar: six
Encoding: 54 54 23
Width: 1118
Flags: W
LayerCount: 2
Back
Fore
SplineSet
958 444 m 0,0,1
 958 336 958 336 922.5 250 c 128,-1,2
 887 164 887 164 823.5 103.5 c 128,-1,3
 760 43 760 43 673 10 c 128,-1,4
 586 -23 586 -23 485 -23 c 0,5,6
 346 -23 346 -23 252 33.5 c 128,-1,7
 158 90 158 90 100.5 183 c 128,-1,8
 43 276 43 276 17.5 398 c 128,-1,9
 -8 520 -8 520 -8 651 c 0,10,11
 -8 784 -8 784 26.5 906 c 128,-1,12
 61 1028 61 1028 130 1122.5 c 128,-1,13
 199 1217 199 1217 302.5 1272 c 128,-1,14
 406 1327 406 1327 545 1327 c 0,15,16
 739 1327 739 1327 868 1192 c 1,17,-1
 778 1112 l 1,18,19
 688 1210 688 1210 545 1210 c 0,20,21
 440 1210 440 1210 359.5 1170 c 128,-1,22
 279 1130 279 1130 225.5 1058.5 c 128,-1,23
 172 987 172 987 145.5 886.5 c 128,-1,24
 119 786 119 786 119 666 c 1,25,26
 133 717 133 717 172 762 c 128,-1,27
 211 807 211 807 262 839.5 c 128,-1,28
 313 872 313 872 372.5 891.5 c 128,-1,29
 432 911 432 911 492 911 c 0,30,31
 594 911 594 911 680 876.5 c 128,-1,32
 766 842 766 842 827.5 780.5 c 128,-1,33
 889 719 889 719 923.5 633 c 128,-1,34
 958 547 958 547 958 444 c 0,0,1
821 444 m 0,35,36
 821 518 821 518 798.5 582.5 c 128,-1,37
 776 647 776 647 734 694 c 128,-1,38
 692 741 692 741 630.5 768 c 128,-1,39
 569 795 569 795 492 795 c 0,40,41
 416 795 416 795 352.5 770 c 128,-1,42
 289 745 289 745 244 700 c 128,-1,43
 199 655 199 655 174.5 593.5 c 128,-1,44
 150 532 150 532 150 457 c 0,45,46
 150 383 150 383 170 317.5 c 128,-1,47
 190 252 190 252 232 202 c 128,-1,48
 274 152 274 152 336.5 123 c 128,-1,49
 399 94 399 94 485 94 c 0,50,51
 559 94 559 94 620.5 118.5 c 128,-1,52
 682 143 682 143 727 188 c 128,-1,53
 772 233 772 233 796.5 299 c 128,-1,54
 821 365 821 365 821 444 c 0,35,36
EndSplineSet
EndChar

StartChar: seven
Encoding: 55 55 24
Width: 1118
Flags: W
LayerCount: 2
Back
Fore
SplineSet
920 1184 m 1,0,1
 797 1051 797 1051 723 922 c 128,-1,2
 649 793 649 793 609 652.5 c 128,-1,3
 569 512 569 512 555 352.5 c 128,-1,4
 541 193 541 193 539 0 c 1,5,-1
 395 0 l 1,6,7
 397 182 397 182 414.5 343 c 128,-1,8
 432 504 432 504 476 650.5 c 128,-1,9
 520 797 520 797 596 930 c 128,-1,10
 672 1063 672 1063 788 1188 c 1,11,-1
 166 1188 l 1,12,-1
 166 932 l 1,13,-1
 49 932 l 1,14,-1
 49 1305 l 1,15,-1
 920 1305 l 1,16,-1
 920 1184 l 1,0,1
EndSplineSet
EndChar

StartChar: eight
Encoding: 56 56 25
Width: 1118
Flags: W
LayerCount: 2
Back
Fore
SplineSet
942 367 m 0,0,1
 942 264 942 264 905 191.5 c 128,-1,2
 868 119 868 119 803.5 71 c 128,-1,3
 739 23 739 23 652 0 c 128,-1,4
 565 -23 565 -23 467 -23 c 0,5,6
 367 -23 367 -23 281 0 c 128,-1,7
 195 23 195 23 130.5 71 c 128,-1,8
 66 119 66 119 29 191.5 c 128,-1,9
 -8 264 -8 264 -8 367 c 0,10,11
 -8 420 -8 420 11.5 474 c 128,-1,12
 31 528 31 528 67.5 574.5 c 128,-1,13
 104 621 104 621 156.5 651.5 c 128,-1,14
 209 682 209 682 272 690 c 1,15,16
 217 696 217 696 174 726 c 128,-1,17
 131 756 131 756 101.5 796 c 128,-1,18
 72 836 72 836 55.5 883 c 128,-1,19
 39 930 39 930 39 973 c 0,20,21
 39 1061 39 1061 74 1127.5 c 128,-1,22
 109 1194 109 1194 168 1238 c 128,-1,23
 227 1282 227 1282 305 1304.5 c 128,-1,24
 383 1327 383 1327 467 1327 c 256,25,26
 551 1327 551 1327 629 1304.5 c 128,-1,27
 707 1282 707 1282 766 1238 c 128,-1,28
 825 1194 825 1194 860 1127.5 c 128,-1,29
 895 1061 895 1061 895 973 c 0,30,31
 895 930 895 930 878.5 883 c 128,-1,32
 862 836 862 836 832.5 796 c 128,-1,33
 803 756 803 756 759 726 c 128,-1,34
 715 696 715 696 659 690 c 1,35,36
 723 682 723 682 775 651.5 c 128,-1,37
 827 621 827 621 864 574.5 c 128,-1,38
 901 528 901 528 921.5 474 c 128,-1,39
 942 420 942 420 942 367 c 0,0,1
758 973 m 0,40,41
 758 1083 758 1083 680 1146.5 c 128,-1,42
 602 1210 602 1210 467 1210 c 256,43,44
 332 1210 332 1210 254 1146.5 c 128,-1,45
 176 1083 176 1083 176 973 c 0,46,47
 176 870 176 870 250 809 c 128,-1,48
 324 748 324 748 467 748 c 256,49,50
 610 748 610 748 684 809 c 128,-1,51
 758 870 758 870 758 973 c 0,40,41
805 367 m 0,52,53
 805 438 805 438 777.5 488.5 c 128,-1,54
 750 539 750 539 702.5 570.5 c 128,-1,55
 655 602 655 602 595 616.5 c 128,-1,56
 535 631 535 631 467 631 c 256,57,58
 399 631 399 631 339 616.5 c 128,-1,59
 279 602 279 602 231.5 570.5 c 128,-1,60
 184 539 184 539 156.5 488.5 c 128,-1,61
 129 438 129 438 129 367 c 0,62,63
 129 297 129 297 156.5 246 c 128,-1,64
 184 195 184 195 231.5 161 c 128,-1,65
 279 127 279 127 339 110.5 c 128,-1,66
 399 94 399 94 467 94 c 256,67,68
 535 94 535 94 595 110.5 c 128,-1,69
 655 127 655 127 702.5 161 c 128,-1,70
 750 195 750 195 777.5 246 c 128,-1,71
 805 297 805 297 805 367 c 0,52,53
EndSplineSet
EndChar

StartChar: nine
Encoding: 57 57 26
Width: 1118
Flags: W
LayerCount: 2
Back
Fore
SplineSet
-23 860 m 0,0,1
 -23 969 -23 969 13 1055 c 128,-1,2
 49 1141 49 1141 112.5 1201.5 c 128,-1,3
 176 1262 176 1262 263 1294.5 c 128,-1,4
 350 1327 350 1327 451 1327 c 0,5,6
 588 1327 588 1327 683 1270.5 c 128,-1,7
 778 1214 778 1214 835.5 1120 c 128,-1,8
 893 1026 893 1026 918.5 905 c 128,-1,9
 944 784 944 784 944 653 c 0,10,11
 944 520 944 520 909 398 c 128,-1,12
 874 276 874 276 805.5 182 c 128,-1,13
 737 88 737 88 632.5 32.5 c 128,-1,14
 528 -23 528 -23 391 -23 c 0,15,16
 197 -23 197 -23 68 113 c 1,17,-1
 158 193 l 1,18,19
 203 143 203 143 262.5 118.5 c 128,-1,20
 322 94 322 94 391 94 c 0,21,22
 496 94 496 94 575.5 134 c 128,-1,23
 655 174 655 174 709.5 245.5 c 128,-1,24
 764 317 764 317 790.5 417.5 c 128,-1,25
 817 518 817 518 817 639 c 1,26,27
 801 588 801 588 763 543 c 128,-1,28
 725 498 725 498 674 465 c 128,-1,29
 623 432 623 432 562.5 412.5 c 128,-1,30
 502 393 502 393 444 393 c 0,31,32
 342 393 342 393 256 428 c 128,-1,33
 170 463 170 463 108.5 524.5 c 128,-1,34
 47 586 47 586 12 672 c 128,-1,35
 -23 758 -23 758 -23 860 c 0,0,1
115 860 m 0,36,37
 115 786 115 786 137.5 721.5 c 128,-1,38
 160 657 160 657 202 610 c 128,-1,39
 244 563 244 563 305.5 536.5 c 128,-1,40
 367 510 367 510 444 510 c 0,41,42
 520 510 520 510 583.5 534.5 c 128,-1,43
 647 559 647 559 692 603 c 128,-1,44
 737 647 737 647 761.5 709.5 c 128,-1,45
 786 772 786 772 786 848 c 0,46,47
 786 922 786 922 765.5 987.5 c 128,-1,48
 745 1053 745 1053 703.5 1103 c 128,-1,49
 662 1153 662 1153 599.5 1181.5 c 128,-1,50
 537 1210 537 1210 451 1210 c 0,51,52
 377 1210 377 1210 315.5 1185.5 c 128,-1,53
 254 1161 254 1161 209 1116 c 128,-1,54
 164 1071 164 1071 139.5 1005.5 c 128,-1,55
 115 940 115 940 115 860 c 0,36,37
EndSplineSet
EndChar

StartChar: colon
Encoding: 58 58 27
Width: 1118
Flags: W
LayerCount: 2
Back
Fore
SplineSet
559 745 m 1,0,-1
 373 745 l 1,1,-1
 373 932 l 1,2,-1
 559 932 l 1,3,-1
 559 745 l 1,0,-1
559 0 m 1,4,-1
 373 0 l 1,5,-1
 373 186 l 1,6,-1
 559 186 l 1,7,-1
 559 0 l 1,4,-1
EndSplineSet
EndChar

StartChar: semicolon
Encoding: 59 59 28
Width: 1118
Flags: W
LayerCount: 2
Back
Fore
SplineSet
559 745 m 1,0,-1
 373 745 l 1,1,-1
 373 932 l 1,2,-1
 559 932 l 1,3,-1
 559 745 l 1,0,-1
610 186 m 1,4,-1
 336 -373 l 1,5,-1
 240 -373 l 1,6,-1
 426 186 l 1,7,-1
 610 186 l 1,4,-1
EndSplineSet
EndChar

StartChar: less
Encoding: 60 60 29
Width: 1118
Flags: W
LayerCount: 2
Back
Fore
SplineSet
788 45 m 1,0,-1
 711 -34 l 1,1,-1
 199 478 l 1,2,-1
 711 990 l 1,3,-1
 788 910 l 1,4,-1
 356 478 l 1,5,-1
 788 45 l 1,0,-1
EndSplineSet
EndChar

StartChar: equal
Encoding: 61 61 30
Width: 1118
Flags: W
LayerCount: 2
Back
Fore
SplineSet
932 639 m 1,0,-1
 0 639 l 1,1,-1
 0 758 l 1,2,-1
 932 758 l 1,3,-1
 932 639 l 1,0,-1
932 199 m 1,4,-1
 0 199 l 1,5,-1
 0 316 l 1,6,-1
 932 316 l 1,7,-1
 932 199 l 1,4,-1
EndSplineSet
EndChar

StartChar: greater
Encoding: 62 62 31
Width: 1118
Flags: W
LayerCount: 2
Back
Fore
SplineSet
733 478 m 1,0,-1
 221 -34 l 1,1,-1
 143 45 l 1,2,-1
 575 478 l 1,3,-1
 143 910 l 1,4,-1
 221 990 l 1,5,-1
 733 478 l 1,0,-1
EndSplineSet
EndChar

StartChar: question
Encoding: 63 63 32
Width: 1118
Flags: W
LayerCount: 2
Back
Fore
SplineSet
559 0 m 1,0,-1
 373 0 l 1,1,-1
 373 186 l 1,2,-1
 559 186 l 1,3,-1
 559 0 l 1,0,-1
909 1022 m 0,4,5
 909 944 909 944 880.5 885.5 c 128,-1,6
 852 827 852 827 809 778 c 128,-1,7
 766 729 766 729 715 686 c 128,-1,8
 664 643 664 643 621 597 c 128,-1,9
 578 551 578 551 549 496.5 c 128,-1,10
 520 442 520 442 520 373 c 1,11,-1
 375 373 l 1,12,13
 375 451 375 451 404.5 512 c 128,-1,14
 434 573 434 573 477 626.5 c 128,-1,15
 520 680 520 680 572.5 727 c 128,-1,16
 625 774 625 774 668 820 c 128,-1,17
 711 866 711 866 740.5 915.5 c 128,-1,18
 770 965 770 965 770 1022 c 0,19,20
 770 1110 770 1110 716 1160 c 128,-1,21
 662 1210 662 1210 559 1210 c 0,22,23
 496 1210 496 1210 448.5 1189.5 c 128,-1,24
 401 1169 401 1169 368.5 1134.5 c 128,-1,25
 336 1100 336 1100 316.5 1052 c 128,-1,26
 297 1004 297 1004 291 946 c 1,27,-1
 168 965 l 1,28,29
 186 1133 186 1133 283.5 1230 c 128,-1,30
 381 1327 381 1327 557 1327 c 0,31,32
 723 1327 723 1327 816 1242 c 128,-1,33
 909 1157 909 1157 909 1022 c 0,4,5
EndSplineSet
EndChar

StartChar: at
Encoding: 64 64 33
Width: 1118
Flags: W
LayerCount: 2
Back
Fore
SplineSet
967 684 m 0,0,1
 967 616 967 616 956 546 c 128,-1,2
 945 476 945 476 918 419.5 c 128,-1,3
 891 363 891 363 846 327 c 128,-1,4
 801 291 801 291 734 291 c 0,5,6
 705 291 705 291 678 301 c 128,-1,7
 651 311 651 311 630 330 c 128,-1,8
 609 349 609 349 596.5 374.5 c 128,-1,9
 584 400 584 400 584 432 c 2,10,-1
 584 460 l 1,11,12
 562 385 562 385 515 338 c 128,-1,13
 468 291 468 291 406 291 c 0,14,15
 340 291 340 291 296 320 c 128,-1,16
 252 349 252 349 225.5 397 c 128,-1,17
 199 445 199 445 188 506 c 128,-1,18
 177 567 177 567 177 631 c 0,19,20
 177 705 177 705 194 772.5 c 128,-1,21
 211 840 211 840 245 891.5 c 128,-1,22
 279 943 279 943 329.5 973.5 c 128,-1,23
 380 1004 380 1004 447 1004 c 0,24,25
 482 1004 482 1004 521 986.5 c 128,-1,26
 560 969 560 969 584 932 c 1,27,-1
 584 985 l 1,28,-1
 715 985 l 1,29,-1
 715 460 l 2,30,31
 715 428 715 428 727 414 c 128,-1,32
 739 400 739 400 762 400 c 0,33,34
 790 400 790 400 810 427 c 128,-1,35
 830 454 830 454 842 495.5 c 128,-1,36
 854 537 854 537 859.5 587 c 128,-1,37
 865 637 865 637 865 684 c 0,38,39
 865 753 865 753 856.5 821.5 c 128,-1,40
 848 890 848 890 828.5 951.5 c 128,-1,41
 809 1013 809 1013 778 1065.5 c 128,-1,42
 747 1118 747 1118 702.5 1156.5 c 128,-1,43
 658 1195 658 1195 599.5 1216.5 c 128,-1,44
 541 1238 541 1238 467 1238 c 0,45,46
 354 1238 354 1238 278 1190 c 128,-1,47
 202 1142 202 1142 155.5 1061 c 128,-1,48
 109 980 109 980 89 874 c 128,-1,49
 69 768 69 768 69 651 c 0,50,51
 69 536 69 536 89 430.5 c 128,-1,52
 109 325 109 325 155.5 244 c 128,-1,53
 202 163 202 163 278.5 115 c 128,-1,54
 355 67 355 67 467 67 c 0,55,56
 549 67 549 67 614 96 c 128,-1,57
 679 125 679 125 732 174 c 1,58,-1
 791 106 l 1,59,60
 663 -23 663 -23 467 -23 c 0,61,62
 375 -23 375 -23 302.5 2.5 c 128,-1,63
 230 28 230 28 174.5 74 c 128,-1,64
 119 120 119 120 79.5 183 c 128,-1,65
 40 246 40 246 15 321 c 128,-1,66
 -10 396 -10 396 -21.5 480 c 128,-1,67
 -33 564 -33 564 -33 651 c 0,68,69
 -33 740 -33 740 -21 824.5 c 128,-1,70
 -9 909 -9 909 16 984 c 128,-1,71
 41 1059 41 1059 80.5 1122 c 128,-1,72
 120 1185 120 1185 176 1230.5 c 128,-1,73
 232 1276 232 1276 304 1301.5 c 128,-1,74
 376 1327 376 1327 467 1327 c 0,75,76
 602 1327 602 1327 697.5 1271.5 c 128,-1,77
 793 1216 793 1216 853 1125 c 128,-1,78
 913 1034 913 1034 940 919 c 128,-1,79
 967 804 967 804 967 684 c 0,0,1
584 808 m 1,80,81
 561 857 561 857 529.5 876.5 c 128,-1,82
 498 896 498 896 460 896 c 256,83,84
 422 896 422 896 394.5 873.5 c 128,-1,85
 367 851 367 851 349 813.5 c 128,-1,86
 331 776 331 776 322.5 728.5 c 128,-1,87
 314 681 314 681 314 632 c 0,88,89
 314 523 314 523 342.5 468 c 128,-1,90
 371 413 371 413 423 413 c 0,91,92
 460 413 460 413 490 435.5 c 128,-1,93
 520 458 520 458 541 494.5 c 128,-1,94
 562 531 562 531 573 576.5 c 128,-1,95
 584 622 584 622 584 667 c 2,96,-1
 584 808 l 1,80,81
EndSplineSet
EndChar

StartChar: A
Encoding: 65 65 34
Width: 1118
Flags: W
LayerCount: 2
Back
Fore
SplineSet
995 0 m 1,0,-1
 848 0 l 1,1,-1
 725 373 l 1,2,-1
 209 373 l 1,3,-1
 88 0 l 1,4,-1
 -59 0 l 1,5,-1
 375 1305 l 1,6,-1
 561 1305 l 1,7,-1
 995 0 l 1,0,-1
686 494 m 1,8,-1
 467 1167 l 1,9,-1
 248 494 l 1,10,-1
 686 494 l 1,8,-1
EndSplineSet
EndChar

StartChar: B
Encoding: 66 66 35
Width: 1118
Flags: W
LayerCount: 2
Back
Fore
SplineSet
930 373 m 0,0,1
 930 186 930 186 809 93 c 128,-1,2
 688 0 688 0 465 0 c 2,3,-1
 49 0 l 1,4,-1
 49 1305 l 1,5,-1
 442 1305 l 2,6,7
 524 1305 524 1305 603 1291.5 c 128,-1,8
 682 1278 682 1278 744.5 1241 c 128,-1,9
 807 1204 807 1204 846 1138.5 c 128,-1,10
 885 1073 885 1073 885 967 c 0,11,12
 885 764 885 764 682 690 c 1,13,14
 930 614 930 614 930 373 c 0,0,1
748 967 m 0,15,16
 748 1036 748 1036 719 1080 c 128,-1,17
 690 1124 690 1124 645 1147.5 c 128,-1,18
 600 1171 600 1171 546 1179.5 c 128,-1,19
 492 1188 492 1188 442 1188 c 2,20,-1
 186 1188 l 1,21,-1
 186 745 l 1,22,-1
 442 745 l 2,23,24
 498 745 498 745 552 753.5 c 128,-1,25
 606 762 606 762 649 786.5 c 128,-1,26
 692 811 692 811 720 854 c 128,-1,27
 748 897 748 897 748 967 c 0,15,16
793 373 m 0,28,29
 793 508 793 508 705.5 569.5 c 128,-1,30
 618 631 618 631 465 631 c 2,31,-1
 186 631 l 1,32,-1
 186 117 l 1,33,-1
 465 117 l 2,34,35
 618 117 618 117 705.5 181.5 c 128,-1,36
 793 246 793 246 793 373 c 0,28,29
EndSplineSet
EndChar

StartChar: C
Encoding: 67 67 36
Width: 1118
Flags: W
LayerCount: 2
Back
Fore
SplineSet
940 342 m 1,0,1
 889 174 889 174 773 75.5 c 128,-1,2
 657 -23 657 -23 481 -23 c 0,3,4
 344 -23 344 -23 249 33.5 c 128,-1,5
 154 90 154 90 93.5 183 c 128,-1,6
 33 276 33 276 6.5 398 c 128,-1,7
 -20 520 -20 520 -20 651 c 256,8,9
 -20 782 -20 782 6.5 904 c 128,-1,10
 33 1026 33 1026 93.5 1120 c 128,-1,11
 154 1214 154 1214 249 1270.5 c 128,-1,12
 344 1327 344 1327 481 1327 c 0,13,14
 602 1327 602 1327 688 1284 c 128,-1,15
 774 1241 774 1241 815 1153 c 1,16,-1
 815 1305 l 1,17,-1
 932 1305 l 1,18,-1
 932 877 l 1,19,-1
 815 877 l 1,20,21
 815 946 815 946 788.5 1007.5 c 128,-1,22
 762 1069 762 1069 717 1114 c 128,-1,23
 672 1159 672 1159 610.5 1184.5 c 128,-1,24
 549 1210 549 1210 481 1210 c 0,25,26
 375 1210 375 1210 305.5 1160 c 128,-1,27
 236 1110 236 1110 194 1029 c 128,-1,28
 152 948 152 948 134.5 849 c 128,-1,29
 117 750 117 750 117 651 c 0,30,31
 117 553 117 553 134.5 453.5 c 128,-1,32
 152 354 152 354 194 274.5 c 128,-1,33
 236 195 236 195 305.5 144.5 c 128,-1,34
 375 94 375 94 481 94 c 0,35,36
 725 94 725 94 821 389 c 1,37,-1
 940 342 l 1,0,1
EndSplineSet
EndChar

StartChar: D
Encoding: 68 68 37
Width: 1118
Flags: W
LayerCount: 2
Back
Fore
SplineSet
975 651 m 256,0,1
 975 520 975 520 947.5 401.5 c 128,-1,2
 920 283 920 283 859.5 193.5 c 128,-1,3
 799 104 799 104 703.5 52 c 128,-1,4
 608 0 608 0 473 0 c 2,5,-1
 49 0 l 1,6,-1
 49 1305 l 1,7,-1
 473 1305 l 2,8,9
 606 1305 606 1305 701.5 1251.5 c 128,-1,10
 797 1198 797 1198 857.5 1108 c 128,-1,11
 918 1018 918 1018 946.5 900 c 128,-1,12
 975 782 975 782 975 651 c 256,0,1
838 651 m 256,13,14
 838 907 838 907 741.5 1047.5 c 128,-1,15
 645 1188 645 1188 473 1188 c 2,16,-1
 186 1188 l 1,17,-1
 186 117 l 1,18,-1
 473 117 l 2,19,20
 645 117 645 117 741.5 256 c 128,-1,21
 838 395 838 395 838 651 c 256,13,14
EndSplineSet
EndChar

StartChar: E
Encoding: 69 69 38
Width: 1118
Flags: W
LayerCount: 2
Back
Fore
SplineSet
883 0 m 1,0,-1
 49 0 l 1,1,-1
 49 1305 l 1,2,-1
 883 1305 l 1,3,-1
 883 1188 l 1,4,-1
 186 1188 l 1,5,-1
 186 721 l 1,6,-1
 700 721 l 1,7,-1
 700 604 l 1,8,-1
 186 604 l 1,9,-1
 186 117 l 1,10,-1
 883 117 l 1,11,-1
 883 0 l 1,0,-1
EndSplineSet
EndChar

StartChar: F
Encoding: 70 70 39
Width: 1118
Flags: W
LayerCount: 2
Back
Fore
SplineSet
883 1188 m 1,0,-1
 186 1188 l 1,1,-1
 186 721 l 1,2,-1
 700 721 l 1,3,-1
 700 604 l 1,4,-1
 186 604 l 1,5,-1
 186 0 l 1,6,-1
 49 0 l 1,7,-1
 49 1305 l 1,8,-1
 883 1305 l 1,9,-1
 883 1188 l 1,0,-1
EndSplineSet
EndChar

StartChar: G
Encoding: 71 71 40
Width: 1118
Flags: W
LayerCount: 2
Back
Fore
SplineSet
983 649 m 2,0,1
 983 516 983 516 955.5 395 c 128,-1,2
 928 274 928 274 867.5 181 c 128,-1,3
 807 88 807 88 711.5 32.5 c 128,-1,4
 616 -23 616 -23 481 -23 c 0,5,6
 344 -23 344 -23 249 33.5 c 128,-1,7
 154 90 154 90 93.5 183 c 128,-1,8
 33 276 33 276 6.5 398 c 128,-1,9
 -20 520 -20 520 -20 651 c 256,10,11
 -20 782 -20 782 6.5 904 c 128,-1,12
 33 1026 33 1026 93.5 1120 c 128,-1,13
 154 1214 154 1214 249 1270.5 c 128,-1,14
 344 1327 344 1327 481 1327 c 0,15,16
 602 1327 602 1327 688 1284 c 128,-1,17
 774 1241 774 1241 815 1153 c 1,18,-1
 815 1305 l 1,19,-1
 932 1305 l 1,20,-1
 932 877 l 1,21,-1
 815 877 l 1,22,23
 815 948 815 948 788.5 1009.5 c 128,-1,24
 762 1071 762 1071 717 1115 c 128,-1,25
 672 1159 672 1159 610.5 1184.5 c 128,-1,26
 549 1210 549 1210 481 1210 c 0,27,28
 375 1210 375 1210 305.5 1160 c 128,-1,29
 236 1110 236 1110 194 1029 c 128,-1,30
 152 948 152 948 134.5 849 c 128,-1,31
 117 750 117 750 117 651 c 0,32,33
 117 553 117 553 134.5 453.5 c 128,-1,34
 152 354 152 354 194 274.5 c 128,-1,35
 236 195 236 195 305.5 144.5 c 128,-1,36
 375 94 375 94 481 94 c 0,37,38
 639 94 639 94 730 216 c 128,-1,39
 821 338 821 338 838 559 c 1,40,-1
 549 559 l 1,41,-1
 549 676 l 1,42,-1
 983 676 l 1,43,-1
 983 649 l 2,0,1
EndSplineSet
EndChar

StartChar: H
Encoding: 72 72 41
Width: 1118
Flags: W
LayerCount: 2
Back
Fore
SplineSet
883 0 m 1,0,-1
 745 0 l 1,1,-1
 745 604 l 1,2,-1
 186 604 l 1,3,-1
 186 0 l 1,4,-1
 49 0 l 1,5,-1
 49 1305 l 1,6,-1
 186 1305 l 1,7,-1
 186 721 l 1,8,-1
 745 721 l 1,9,-1
 745 1305 l 1,10,-1
 883 1305 l 1,11,-1
 883 0 l 1,0,-1
EndSplineSet
EndChar

StartChar: I
Encoding: 73 73 42
Width: 1118
Flags: W
LayerCount: 2
Back
Fore
SplineSet
745 0 m 1,0,-1
 186 0 l 1,1,-1
 186 117 l 1,2,-1
 397 117 l 1,3,-1
 397 1188 l 1,4,-1
 186 1188 l 1,5,-1
 186 1305 l 1,6,-1
 745 1305 l 1,7,-1
 745 1188 l 1,8,-1
 535 1188 l 1,9,-1
 535 117 l 1,10,-1
 745 117 l 1,11,-1
 745 0 l 1,0,-1
EndSplineSet
EndChar

StartChar: J
Encoding: 74 74 43
Width: 1118
Flags: W
LayerCount: 2
Back
Fore
SplineSet
883 498 m 2,0,1
 883 250 883 250 777.5 113.5 c 128,-1,2
 672 -23 672 -23 455 -23 c 0,3,4
 281 -23 281 -23 163 68.5 c 128,-1,5
 45 160 45 160 -2 342 c 1,6,-1
 117 387 l 1,7,8
 160 225 160 225 245 159.5 c 128,-1,9
 330 94 330 94 455 94 c 0,10,11
 547 94 547 94 604.5 131 c 128,-1,12
 662 168 662 168 692.5 225.5 c 128,-1,13
 723 283 723 283 734 354.5 c 128,-1,14
 745 426 745 426 745 498 c 2,15,-1
 745 1305 l 1,16,-1
 883 1305 l 1,17,-1
 883 498 l 2,0,1
EndSplineSet
EndChar

StartChar: K
Encoding: 75 75 44
Width: 1118
Flags: W
LayerCount: 2
Back
Fore
SplineSet
926 0 m 1,0,-1
 758 0 l 1,1,-1
 324 639 l 1,2,-1
 186 485 l 1,3,-1
 186 0 l 1,4,-1
 49 0 l 1,5,-1
 49 1305 l 1,6,-1
 186 1305 l 1,7,-1
 186 670 l 1,8,-1
 745 1305 l 1,9,-1
 926 1305 l 1,10,-1
 414 735 l 1,11,-1
 926 0 l 1,0,-1
EndSplineSet
EndChar

StartChar: L
Encoding: 76 76 45
Width: 1118
Flags: W
LayerCount: 2
Back
Fore
SplineSet
883 0 m 1,0,-1
 49 0 l 1,1,-1
 49 1305 l 1,2,-1
 186 1305 l 1,3,-1
 186 117 l 1,4,-1
 883 117 l 1,5,-1
 883 0 l 1,0,-1
EndSplineSet
EndChar

StartChar: M
Encoding: 77 77 46
Width: 1118
Flags: W
LayerCount: 2
Back
Fore
SplineSet
883 0 m 1,0,-1
 745 0 l 1,1,-1
 745 1087 l 1,2,-1
 514 414 l 1,3,-1
 416 414 l 1,4,-1
 186 1087 l 1,5,-1
 186 0 l 1,6,-1
 49 0 l 1,7,-1
 49 1305 l 1,8,-1
 227 1305 l 1,9,-1
 465 623 l 1,10,-1
 705 1305 l 1,11,-1
 883 1305 l 1,12,-1
 883 0 l 1,0,-1
EndSplineSet
EndChar

StartChar: N
Encoding: 78 78 47
Width: 1118
Flags: W
LayerCount: 2
Back
Fore
SplineSet
883 0 m 1,0,-1
 713 0 l 1,1,-1
 186 1104 l 1,2,-1
 186 0 l 1,3,-1
 49 0 l 1,4,-1
 49 1305 l 1,5,-1
 242 1305 l 1,6,-1
 745 252 l 1,7,-1
 745 1305 l 1,8,-1
 883 1305 l 1,9,-1
 883 0 l 1,0,-1
EndSplineSet
EndChar

StartChar: O
Encoding: 79 79 48
Width: 1118
Flags: W
LayerCount: 2
Back
Fore
SplineSet
967 651 m 256,0,1
 967 520 967 520 940 398 c 128,-1,2
 913 276 913 276 854 183 c 128,-1,3
 795 90 795 90 699.5 33.5 c 128,-1,4
 604 -23 604 -23 467 -23 c 256,5,6
 330 -23 330 -23 234.5 33.5 c 128,-1,7
 139 90 139 90 79.5 183 c 128,-1,8
 20 276 20 276 -6.5 398 c 128,-1,9
 -33 520 -33 520 -33 651 c 256,10,11
 -33 782 -33 782 -6.5 904 c 128,-1,12
 20 1026 20 1026 80.5 1120 c 128,-1,13
 141 1214 141 1214 236.5 1270.5 c 128,-1,14
 332 1327 332 1327 467 1327 c 256,15,16
 602 1327 602 1327 697.5 1270.5 c 128,-1,17
 793 1214 793 1214 852 1120 c 128,-1,18
 911 1026 911 1026 939 904 c 128,-1,19
 967 782 967 782 967 651 c 256,0,1
829 651 m 0,20,21
 829 780 829 780 804.5 883.5 c 128,-1,22
 780 987 780 987 734 1060 c 128,-1,23
 688 1133 688 1133 620.5 1171.5 c 128,-1,24
 553 1210 553 1210 467 1210 c 0,25,26
 360 1210 360 1210 290.5 1160 c 128,-1,27
 221 1110 221 1110 179 1029 c 128,-1,28
 137 948 137 948 120.5 849 c 128,-1,29
 104 750 104 750 104 651 c 0,30,31
 104 553 104 553 120.5 453.5 c 128,-1,32
 137 354 137 354 179 274.5 c 128,-1,33
 221 195 221 195 290.5 144.5 c 128,-1,34
 360 94 360 94 467 94 c 0,35,36
 573 94 573 94 643 144.5 c 128,-1,37
 713 195 713 195 755 274.5 c 128,-1,38
 797 354 797 354 813 453.5 c 128,-1,39
 829 553 829 553 829 651 c 0,20,21
EndSplineSet
EndChar

StartChar: P
Encoding: 80 80 49
Width: 1118
Flags: W
LayerCount: 2
Back
Fore
SplineSet
930 932 m 0,0,1
 930 743 930 743 812 651 c 128,-1,2
 694 559 694 559 481 559 c 2,3,-1
 186 559 l 1,4,-1
 186 0 l 1,5,-1
 49 0 l 1,6,-1
 49 1305 l 1,7,-1
 479 1305 l 2,8,9
 694 1305 694 1305 812 1211.5 c 128,-1,10
 930 1118 930 1118 930 932 c 0,0,1
793 932 m 256,11,12
 793 1067 793 1067 708 1127.5 c 128,-1,13
 623 1188 623 1188 481 1188 c 2,14,-1
 186 1188 l 1,15,-1
 186 676 l 1,16,-1
 481 676 l 2,17,18
 623 676 623 676 708 736.5 c 128,-1,19
 793 797 793 797 793 932 c 256,11,12
EndSplineSet
EndChar

StartChar: Q
Encoding: 81 81 50
Width: 1118
Flags: W
LayerCount: 2
Back
Fore
SplineSet
967 651 m 0,0,1
 967 526 967 526 943.5 410.5 c 128,-1,2
 920 295 920 295 867.5 204 c 128,-1,3
 815 113 815 113 731 53.5 c 128,-1,4
 647 -6 647 -6 528 -18 c 1,5,6
 551 -152 551 -152 620.5 -203 c 128,-1,7
 690 -254 690 -254 825 -254 c 0,8,9
 860 -254 860 -254 884.5 -253 c 128,-1,10
 909 -252 909 -252 932 -250 c 1,11,-1
 932 -367 l 1,12,13
 903 -369 903 -369 876.5 -370 c 128,-1,14
 850 -371 850 -371 825 -371 c 0,15,16
 621 -371 621 -371 517.5 -284 c 128,-1,17
 414 -197 414 -197 391 -16 c 1,18,19
 281 -2 281 -2 200 55.5 c 128,-1,20
 119 113 119 113 67.5 202 c 128,-1,21
 16 291 16 291 -8.5 406.5 c 128,-1,22
 -33 522 -33 522 -33 651 c 0,23,24
 -33 782 -33 782 -6.5 904 c 128,-1,25
 20 1026 20 1026 80.5 1120 c 128,-1,26
 141 1214 141 1214 236.5 1270.5 c 128,-1,27
 332 1327 332 1327 467 1327 c 256,28,29
 602 1327 602 1327 697.5 1270.5 c 128,-1,30
 793 1214 793 1214 852 1120 c 128,-1,31
 911 1026 911 1026 939 904 c 128,-1,32
 967 782 967 782 967 651 c 0,0,1
829 651 m 0,33,34
 829 750 829 750 812 849 c 128,-1,35
 795 948 795 948 754 1029 c 128,-1,36
 713 1110 713 1110 642 1160 c 128,-1,37
 571 1210 571 1210 467 1210 c 0,38,39
 360 1210 360 1210 290.5 1160 c 128,-1,40
 221 1110 221 1110 179 1029 c 128,-1,41
 137 948 137 948 120.5 849 c 128,-1,42
 104 750 104 750 104 651 c 0,43,44
 104 391 104 391 198.5 242.5 c 128,-1,45
 293 94 293 94 467 94 c 0,46,47
 639 94 639 94 734 242.5 c 128,-1,48
 829 391 829 391 829 651 c 0,33,34
EndSplineSet
EndChar

StartChar: R
Encoding: 82 82 51
Width: 1118
Flags: W
LayerCount: 2
Back
Fore
SplineSet
944 0 m 1,0,-1
 770 0 l 1,1,-1
 389 559 l 1,2,-1
 186 559 l 1,3,-1
 186 0 l 1,4,-1
 49 0 l 1,5,-1
 49 1305 l 1,6,-1
 479 1305 l 2,7,8
 694 1305 694 1305 812 1211.5 c 128,-1,9
 930 1118 930 1118 930 932 c 0,10,11
 930 850 930 850 901 784.5 c 128,-1,12
 872 719 872 719 822 673 c 128,-1,13
 772 627 772 627 702.5 599 c 128,-1,14
 633 571 633 571 551 565 c 1,15,-1
 944 0 l 1,0,-1
788 932 m 0,16,17
 788 1065 788 1065 705.5 1126.5 c 128,-1,18
 623 1188 623 1188 479 1188 c 2,19,-1
 186 1188 l 1,20,-1
 186 676 l 1,21,-1
 479 676 l 2,22,23
 623 676 623 676 705.5 736.5 c 128,-1,24
 788 797 788 797 788 932 c 0,16,17
EndSplineSet
EndChar

StartChar: S
Encoding: 83 83 52
Width: 1118
Flags: W
LayerCount: 2
Back
Fore
SplineSet
899 340 m 0,0,1
 899 258 899 258 865 191.5 c 128,-1,2
 831 125 831 125 774 77 c 128,-1,3
 717 29 717 29 643 3 c 128,-1,4
 569 -23 569 -23 489 -23 c 0,5,6
 379 -23 379 -23 287 18 c 128,-1,7
 195 59 195 59 141 139 c 1,8,-1
 141 0 l 1,9,-1
 25 0 l 1,10,-1
 25 397 l 1,11,-1
 141 397 l 1,12,13
 141 330 141 330 172 274.5 c 128,-1,14
 203 219 203 219 251 179 c 128,-1,15
 299 139 299 139 361.5 116.5 c 128,-1,16
 424 94 424 94 489 94 c 0,17,18
 547 94 547 94 596 110.5 c 128,-1,19
 645 127 645 127 682 157.5 c 128,-1,20
 719 188 719 188 740.5 232 c 128,-1,21
 762 276 762 276 762 332 c 0,22,23
 762 395 762 395 734.5 440 c 128,-1,24
 707 485 707 485 660.5 517 c 128,-1,25
 614 549 614 549 556 571.5 c 128,-1,26
 498 594 498 594 438 616 c 0,27,28
 367 641 367 641 296 668.5 c 128,-1,29
 225 696 225 696 169 738 c 128,-1,30
 113 780 113 780 78 840.5 c 128,-1,31
 43 901 43 901 43 991 c 0,32,33
 43 1071 43 1071 77 1133.5 c 128,-1,34
 111 1196 111 1196 166 1239 c 128,-1,35
 221 1282 221 1282 294 1304.5 c 128,-1,36
 367 1327 367 1327 444 1327 c 0,37,38
 539 1327 539 1327 619.5 1288 c 128,-1,39
 700 1249 700 1249 745 1169 c 1,40,-1
 745 1305 l 1,41,-1
 866 1305 l 1,42,-1
 866 932 l 1,43,-1
 745 932 l 1,44,45
 745 991 745 991 720.5 1042.5 c 128,-1,46
 696 1094 696 1094 654 1130.5 c 128,-1,47
 612 1167 612 1167 558 1188.5 c 128,-1,48
 504 1210 504 1210 444 1210 c 0,49,50
 391 1210 391 1210 343 1198 c 128,-1,51
 295 1186 295 1186 259 1159.5 c 128,-1,52
 223 1133 223 1133 201.5 1091 c 128,-1,53
 180 1049 180 1049 180 991 c 0,54,55
 180 940 180 940 205.5 904 c 128,-1,56
 231 868 231 868 274 840.5 c 128,-1,57
 317 813 317 813 373.5 790.5 c 128,-1,58
 430 768 430 768 489 745 c 0,59,60
 563 719 563 719 636 687 c 128,-1,61
 709 655 709 655 767 610 c 128,-1,62
 825 565 825 565 862 499.5 c 128,-1,63
 899 434 899 434 899 340 c 0,0,1
EndSplineSet
EndChar

StartChar: T
Encoding: 84 84 53
Width: 1118
Flags: W
LayerCount: 2
Back
Fore
SplineSet
932 864 m 1,0,-1
 815 864 l 1,1,-1
 815 1188 l 1,2,-1
 535 1188 l 1,3,-1
 535 117 l 1,4,-1
 745 117 l 1,5,-1
 745 0 l 1,6,-1
 186 0 l 1,7,-1
 186 117 l 1,8,-1
 397 117 l 1,9,-1
 397 1188 l 1,10,-1
 117 1188 l 1,11,-1
 117 864 l 1,12,-1
 0 864 l 1,13,-1
 0 1305 l 1,14,-1
 932 1305 l 1,15,-1
 932 864 l 1,0,-1
EndSplineSet
EndChar

StartChar: U
Encoding: 85 85 54
Width: 1118
Flags: W
LayerCount: 2
Back
Fore
SplineSet
883 465 m 2,0,1
 883 354 883 354 858.5 264 c 128,-1,2
 834 174 834 174 782.5 110.5 c 128,-1,3
 731 47 731 47 652 12 c 128,-1,4
 573 -23 573 -23 465 -23 c 0,5,6
 356 -23 356 -23 277.5 12 c 128,-1,7
 199 47 199 47 148.5 110.5 c 128,-1,8
 98 174 98 174 73.5 265 c 128,-1,9
 49 356 49 356 49 467 c 2,10,-1
 49 1305 l 1,11,-1
 186 1305 l 1,12,-1
 186 465 l 2,13,14
 186 406 186 406 196.5 340 c 128,-1,15
 207 274 207 274 237.5 220 c 128,-1,16
 268 166 268 166 322.5 130 c 128,-1,17
 377 94 377 94 465 94 c 256,18,19
 553 94 553 94 608.5 130 c 128,-1,20
 664 166 664 166 694.5 220 c 128,-1,21
 725 274 725 274 735 340 c 128,-1,22
 745 406 745 406 745 465 c 2,23,-1
 745 1305 l 1,24,-1
 883 1305 l 1,25,-1
 883 465 l 2,0,1
EndSplineSet
EndChar

StartChar: V
Encoding: 86 86 55
Width: 1118
Flags: W
LayerCount: 2
Back
Fore
SplineSet
995 1305 m 1,0,-1
 559 0 l 1,1,-1
 373 0 l 1,2,-1
 -59 1305 l 1,3,-1
 86 1305 l 1,4,-1
 467 139 l 1,5,-1
 846 1305 l 1,6,-1
 995 1305 l 1,0,-1
EndSplineSet
EndChar

StartChar: W
Encoding: 87 87 56
Width: 1118
Flags: W
LayerCount: 2
Back
Fore
SplineSet
995 1305 m 1,0,-1
 760 0 l 1,1,-1
 598 0 l 1,2,-1
 465 637 l 1,3,-1
 330 0 l 1,4,-1
 170 0 l 1,5,-1
 -63 1305 l 1,6,-1
 82 1305 l 1,7,-1
 266 231 l 1,8,-1
 397 932 l 1,9,-1
 532 932 l 1,10,-1
 664 231 l 1,11,-1
 848 1305 l 1,12,-1
 995 1305 l 1,0,-1
EndSplineSet
EndChar

StartChar: X
Encoding: 88 88 57
Width: 1118
Flags: W
LayerCount: 2
Back
Fore
SplineSet
954 0 m 1,0,-1
 584 0 l 1,1,-1
 584 117 l 1,2,-1
 672 117 l 1,3,-1
 467 545 l 1,4,-1
 260 117 l 1,5,-1
 348 117 l 1,6,-1
 348 0 l 1,7,-1
 -23 0 l 1,8,-1
 -23 117 l 1,9,-1
 104 117 l 1,10,-1
 387 657 l 1,11,-1
 109 1188 l 1,12,-1
 0 1188 l 1,13,-1
 0 1305 l 1,14,-1
 373 1305 l 1,15,-1
 373 1188 l 1,16,-1
 264 1188 l 1,17,-1
 467 770 l 1,18,-1
 664 1188 l 1,19,-1
 559 1188 l 1,20,-1
 559 1305 l 1,21,-1
 932 1305 l 1,22,-1
 932 1188 l 1,23,-1
 819 1188 l 1,24,-1
 547 657 l 1,25,-1
 827 117 l 1,26,-1
 954 117 l 1,27,-1
 954 0 l 1,0,-1
EndSplineSet
EndChar

StartChar: Y
Encoding: 89 89 58
Width: 1118
Flags: W
LayerCount: 2
Back
Fore
SplineSet
952 1188 m 1,0,-1
 846 1188 l 1,1,-1
 535 563 l 1,2,-1
 535 117 l 1,3,-1
 745 117 l 1,4,-1
 745 0 l 1,5,-1
 186 0 l 1,6,-1
 186 117 l 1,7,-1
 397 117 l 1,8,-1
 397 563 l 1,9,-1
 86 1188 l 1,10,-1
 -20 1188 l 1,11,-1
 -20 1305 l 1,12,-1
 348 1305 l 1,13,-1
 348 1188 l 1,14,-1
 240 1188 l 1,15,-1
 467 696 l 1,16,-1
 692 1188 l 1,17,-1
 584 1188 l 1,18,-1
 584 1305 l 1,19,-1
 952 1305 l 1,20,-1
 952 1188 l 1,0,-1
EndSplineSet
EndChar

StartChar: Z
Encoding: 90 90 59
Width: 1118
Flags: W
LayerCount: 2
Back
Fore
SplineSet
887 0 m 1,0,-1
 49 0 l 1,1,-1
 49 117 l 1,2,-1
 705 1188 l 1,3,-1
 166 1188 l 1,4,-1
 166 868 l 1,5,-1
 49 868 l 1,6,-1
 49 1305 l 1,7,-1
 866 1305 l 1,8,-1
 866 1188 l 1,9,-1
 217 117 l 1,10,-1
 770 117 l 1,11,-1
 770 442 l 1,12,-1
 887 442 l 1,13,-1
 887 0 l 1,0,-1
EndSplineSet
EndChar

StartChar: bracketleft
Encoding: 91 91 60
Width: 1118
Flags: W
LayerCount: 2
Back
Fore
SplineSet
745 -373 m 1,0,-1
 373 -373 l 1,1,-1
 373 1491 l 1,2,-1
 745 1491 l 1,3,-1
 745 1380 l 1,4,-1
 483 1380 l 1,5,-1
 483 -260 l 1,6,-1
 745 -260 l 1,7,-1
 745 -373 l 1,0,-1
EndSplineSet
EndChar

StartChar: backslash
Encoding: 92 92 61
Width: 1118
Flags: W
LayerCount: 2
Back
Fore
SplineSet
997 -188 m 1,0,-1
 899 -240 l 1,1,-1
 133 1303 l 1,2,-1
 231 1354 l 1,3,-1
 997 -188 l 1,0,-1
EndSplineSet
EndChar

StartChar: bracketright
Encoding: 93 93 62
Width: 1118
Flags: W
LayerCount: 2
Back
Fore
SplineSet
559 -373 m 1,0,-1
 186 -373 l 1,1,-1
 186 -260 l 1,2,-1
 449 -260 l 1,3,-1
 449 1380 l 1,4,-1
 186 1380 l 1,5,-1
 186 1491 l 1,6,-1
 559 1491 l 1,7,-1
 559 -373 l 1,0,-1
EndSplineSet
EndChar

StartChar: asciicircum
Encoding: 94 94 63
Width: 1118
Flags: W
LayerCount: 2
Back
Fore
SplineSet
934 559 m 1,0,-1
 782 559 l 1,1,-1
 467 1172 l 1,2,-1
 154 559 l 1,3,-1
 2 559 l 1,4,-1
 375 1305 l 1,5,-1
 559 1305 l 1,6,-1
 934 559 l 1,0,-1
EndSplineSet
EndChar

StartChar: underscore
Encoding: 95 95 64
Width: 1118
Flags: W
LayerCount: 2
Back
Fore
SplineSet
932 -186 m 1,0,-1
 0 -186 l 1,1,-1
 0 -69 l 1,2,-1
 932 -69 l 1,3,-1
 932 -186 l 1,0,-1
EndSplineSet
EndChar

StartChar: grave
Encoding: 96 96 65
Width: 1118
Flags: W
LayerCount: 2
Back
Fore
SplineSet
700 1077 m 1,0,-1
 659 1012 l 1,1,-1
 229 1255 l 1,2,-1
 295 1364 l 1,3,-1
 700 1077 l 1,0,-1
EndSplineSet
EndChar

StartChar: a
Encoding: 97 97 66
Width: 1118
Flags: W
LayerCount: 2
Back
Fore
SplineSet
-2 252 m 0,0,1
 -2 340 -2 340 42 399.5 c 128,-1,2
 86 459 86 459 157.5 493.5 c 128,-1,3
 229 528 229 528 321.5 543.5 c 128,-1,4
 414 559 414 559 510 559 c 0,5,6
 547 559 547 559 576.5 558 c 128,-1,7
 606 557 606 557 632.5 555 c 128,-1,8
 659 553 659 553 686 550 c 128,-1,9
 713 547 713 547 745 543 c 1,10,-1
 745 610 l 2,11,12
 745 678 745 678 715.5 722 c 128,-1,13
 686 766 686 766 643 791.5 c 128,-1,14
 600 817 600 817 553 827.5 c 128,-1,15
 506 838 506 838 473 838 c 0,16,17
 369 838 369 838 281 810 c 128,-1,18
 193 782 193 782 117 735 c 1,19,-1
 55 838 l 1,20,21
 139 889 139 889 243.5 921.5 c 128,-1,22
 348 954 348 954 473 954 c 0,23,24
 549 954 549 954 622.5 934.5 c 128,-1,25
 696 915 696 915 754.5 874.5 c 128,-1,26
 813 834 813 834 848 768 c 128,-1,27
 883 702 883 702 883 610 c 2,28,-1
 883 0 l 1,29,-1
 745 0 l 1,30,-1
 745 156 l 1,31,32
 709 111 709 111 663.5 77 c 128,-1,33
 618 43 618 43 568 21.5 c 128,-1,34
 518 0 518 0 468 -11.5 c 128,-1,35
 418 -23 418 -23 373 -23 c 0,36,37
 188 -23 188 -23 93 48 c 128,-1,38
 -2 119 -2 119 -2 252 c 0,0,1
373 94 m 0,39,40
 459 94 459 94 527.5 119.5 c 128,-1,41
 596 145 596 145 644 183 c 128,-1,42
 692 221 692 221 718.5 264 c 128,-1,43
 745 307 745 307 745 342 c 2,44,-1
 745 430 l 1,45,46
 678 440 678 440 616.5 441 c 128,-1,47
 555 442 555 442 510 442 c 0,48,49
 436 442 436 442 367.5 432 c 128,-1,50
 299 422 299 422 248 399.5 c 128,-1,51
 197 377 197 377 166 341 c 128,-1,52
 135 305 135 305 135 252 c 0,53,54
 135 193 135 193 192.5 143.5 c 128,-1,55
 250 94 250 94 373 94 c 0,39,40
EndSplineSet
EndChar

StartChar: b
Encoding: 98 98 67
Width: 1118
Flags: W
LayerCount: 2
Back
Fore
SplineSet
932 465 m 0,0,1
 932 358 932 358 899 268 c 128,-1,2
 866 178 866 178 804.5 113.5 c 128,-1,3
 743 49 743 49 656 13 c 128,-1,4
 569 -23 569 -23 461 -23 c 0,5,6
 385 -23 385 -23 315.5 4 c 128,-1,7
 246 31 246 31 186 84 c 1,8,-1
 186 0 l 1,9,-1
 49 0 l 1,10,-1
 49 1305 l 1,11,-1
 186 1305 l 1,12,-1
 186 846 l 1,13,14
 246 897 246 897 315.5 925.5 c 128,-1,15
 385 954 385 954 461 954 c 0,16,17
 569 954 569 954 656 917.5 c 128,-1,18
 743 881 743 881 804.5 816.5 c 128,-1,19
 866 752 866 752 899 661.5 c 128,-1,20
 932 571 932 571 932 465 c 0,0,1
793 465 m 0,21,22
 793 545 793 545 772.5 612.5 c 128,-1,23
 752 680 752 680 710 730 c 128,-1,24
 668 780 668 780 605.5 809 c 128,-1,25
 543 838 543 838 461 838 c 0,26,27
 303 838 303 838 186 713 c 1,28,-1
 186 215 l 1,29,30
 246 150 246 150 314.5 122 c 128,-1,31
 383 94 383 94 461 94 c 0,32,33
 543 94 543 94 604.5 123 c 128,-1,34
 666 152 666 152 708 202 c 128,-1,35
 750 252 750 252 771.5 319.5 c 128,-1,36
 793 387 793 387 793 465 c 0,21,22
EndSplineSet
EndChar

StartChar: c
Encoding: 99 99 68
Width: 1118
Flags: W
LayerCount: 2
Back
Fore
SplineSet
897 178 m 1,0,1
 838 86 838 86 735.5 31.5 c 128,-1,2
 633 -23 633 -23 492 -23 c 0,3,4
 383 -23 383 -23 292 13 c 128,-1,5
 201 49 201 49 136.5 113.5 c 128,-1,6
 72 178 72 178 36 267 c 128,-1,7
 0 356 0 356 0 465 c 0,8,9
 0 571 0 571 33 661.5 c 128,-1,10
 66 752 66 752 127 816.5 c 128,-1,11
 188 881 188 881 276.5 917.5 c 128,-1,12
 365 954 365 954 473 954 c 0,13,14
 516 954 516 954 561 944 c 128,-1,15
 606 934 606 934 646 913.5 c 128,-1,16
 686 893 686 893 718 864.5 c 128,-1,17
 750 836 750 836 766 797 c 1,18,-1
 766 932 l 1,19,-1
 889 932 l 1,20,-1
 889 559 l 1,21,-1
 766 559 l 1,22,23
 766 621 766 621 743.5 672 c 128,-1,24
 721 723 721 723 682 760 c 128,-1,25
 643 797 643 797 589 817.5 c 128,-1,26
 535 838 535 838 473 838 c 0,27,28
 389 838 389 838 326.5 809 c 128,-1,29
 264 780 264 780 222 730 c 128,-1,30
 180 680 180 680 158.5 612.5 c 128,-1,31
 137 545 137 545 137 465 c 256,32,33
 137 385 137 385 161.5 317.5 c 128,-1,34
 186 250 186 250 232.5 201 c 128,-1,35
 279 152 279 152 344.5 123 c 128,-1,36
 410 94 410 94 492 94 c 0,37,38
 596 94 596 94 677 135 c 128,-1,39
 758 176 758 176 801 244 c 1,40,-1
 897 178 l 1,0,1
EndSplineSet
EndChar

StartChar: d
Encoding: 100 100 69
Width: 1118
Flags: W
LayerCount: 2
Back
Fore
SplineSet
883 0 m 1,0,-1
 745 0 l 1,1,-1
 745 86 l 1,2,3
 686 33 686 33 615.5 5 c 128,-1,4
 545 -23 545 -23 471 -23 c 0,5,6
 360 -23 360 -23 272 13 c 128,-1,7
 184 49 184 49 123.5 113.5 c 128,-1,8
 63 178 63 178 30.5 268 c 128,-1,9
 -2 358 -2 358 -2 465 c 0,10,11
 -2 571 -2 571 30.5 661.5 c 128,-1,12
 63 752 63 752 123.5 816.5 c 128,-1,13
 184 881 184 881 272 917.5 c 128,-1,14
 360 954 360 954 471 954 c 0,15,16
 545 954 545 954 615.5 927.5 c 128,-1,17
 686 901 686 901 745 848 c 1,18,-1
 745 1188 l 1,19,-1
 559 1188 l 1,20,-1
 559 1305 l 1,21,-1
 883 1305 l 1,22,-1
 883 0 l 1,0,-1
745 715 m 1,23,24
 686 780 686 780 616.5 809 c 128,-1,25
 547 838 547 838 469 838 c 0,26,27
 387 838 387 838 324.5 809 c 128,-1,28
 262 780 262 780 220 730 c 128,-1,29
 178 680 178 680 156.5 612.5 c 128,-1,30
 135 545 135 545 135 465 c 256,31,32
 135 385 135 385 156.5 317.5 c 128,-1,33
 178 250 178 250 220 200 c 128,-1,34
 262 150 262 150 324.5 121 c 128,-1,35
 387 92 387 92 469 92 c 0,36,37
 627 92 627 92 745 217 c 1,38,-1
 745 715 l 1,23,24
EndSplineSet
EndChar

StartChar: e
Encoding: 101 101 70
Width: 1118
Flags: W
LayerCount: 2
Back
Fore
SplineSet
137 418 m 1,0,1
 152 270 152 270 245 182 c 128,-1,2
 338 94 338 94 487 94 c 0,3,4
 592 94 592 94 674 137 c 128,-1,5
 756 180 756 180 797 244 c 1,6,-1
 893 178 l 1,7,8
 823 80 823 80 726 28.5 c 128,-1,9
 629 -23 629 -23 487 -23 c 0,10,11
 379 -23 379 -23 289 13 c 128,-1,12
 199 49 199 49 133.5 113.5 c 128,-1,13
 68 178 68 178 32 267 c 128,-1,14
 -4 356 -4 356 -4 465 c 0,15,16
 -4 571 -4 571 28.5 660.5 c 128,-1,17
 61 750 61 750 122.5 815.5 c 128,-1,18
 184 881 184 881 272 917.5 c 128,-1,19
 360 954 360 954 469 954 c 0,20,21
 588 954 588 954 677 914 c 128,-1,22
 766 874 766 874 825.5 803.5 c 128,-1,23
 885 733 885 733 913.5 635 c 128,-1,24
 942 537 942 537 942 418 c 1,25,-1
 137 418 l 1,0,1
797 535 m 1,26,27
 774 688 774 688 686 763 c 128,-1,28
 598 838 598 838 469 838 c 0,29,30
 403 838 403 838 347 816.5 c 128,-1,31
 291 795 291 795 248 755 c 128,-1,32
 205 715 205 715 176 658.5 c 128,-1,33
 147 602 147 602 139 535 c 1,34,-1
 797 535 l 1,26,27
EndSplineSet
EndChar

StartChar: f
Encoding: 102 102 71
Width: 1118
Flags: W
LayerCount: 2
Back
Fore
SplineSet
932 815 m 1,0,-1
 535 815 l 1,1,-1
 535 117 l 1,2,-1
 745 117 l 1,3,-1
 745 0 l 1,4,-1
 186 0 l 1,5,-1
 186 117 l 1,6,-1
 397 117 l 1,7,-1
 397 815 l 1,8,-1
 186 815 l 1,9,-1
 186 932 l 1,10,-1
 397 932 l 1,11,12
 397 1124 397 1124 496.5 1225.5 c 128,-1,13
 596 1327 596 1327 797 1327 c 0,14,15
 844 1327 844 1327 876.5 1324 c 128,-1,16
 909 1321 909 1321 932 1317 c 1,17,-1
 932 1200 l 1,18,19
 903 1204 903 1204 871.5 1207 c 128,-1,20
 840 1210 840 1210 797 1210 c 0,21,22
 666 1210 666 1210 600.5 1143.5 c 128,-1,23
 535 1077 535 1077 535 932 c 1,24,-1
 932 932 l 1,25,-1
 932 815 l 1,0,-1
EndSplineSet
EndChar

StartChar: g
Encoding: 103 103 72
Width: 1118
Flags: W
LayerCount: 2
Back
Fore
SplineSet
883 10 m 2,0,1
 883 -86 883 -86 850 -161 c 128,-1,2
 817 -236 817 -236 757.5 -288 c 128,-1,3
 698 -340 698 -340 617.5 -367.5 c 128,-1,4
 537 -395 537 -395 438 -395 c 0,5,6
 299 -395 299 -395 201.5 -343 c 128,-1,7
 104 -291 104 -291 33 -193 c 1,8,-1
 129 -119 l 1,9,10
 172 -184 172 -184 253 -228 c 128,-1,11
 334 -272 334 -272 438 -272 c 0,12,13
 580 -272 580 -272 662.5 -200.5 c 128,-1,14
 745 -129 745 -129 745 6 c 2,15,-1
 745 106 l 1,16,17
 623 -2 623 -2 467 -2 c 0,18,19
 248 -2 248 -2 123 123 c 128,-1,20
 -2 248 -2 248 -2 465 c 0,21,22
 -2 571 -2 571 30.5 660.5 c 128,-1,23
 63 750 63 750 123.5 815.5 c 128,-1,24
 184 881 184 881 271 917.5 c 128,-1,25
 358 954 358 954 467 954 c 0,26,27
 543 954 543 954 614.5 927.5 c 128,-1,28
 686 901 686 901 745 848 c 1,29,-1
 745 932 l 1,30,-1
 883 932 l 1,31,-1
 883 10 l 2,0,1
745 715 m 1,32,33
 686 780 686 780 615.5 809 c 128,-1,34
 545 838 545 838 467 838 c 0,35,36
 385 838 385 838 322.5 809 c 128,-1,37
 260 780 260 780 219 730 c 128,-1,38
 178 680 178 680 156.5 611.5 c 128,-1,39
 135 543 135 543 135 465 c 0,40,41
 135 305 135 305 218 210 c 128,-1,42
 301 115 301 115 467 115 c 0,43,44
 545 115 545 115 615.5 144.5 c 128,-1,45
 686 174 686 174 745 240 c 1,46,-1
 745 715 l 1,32,33
EndSplineSet
EndChar

StartChar: h
Encoding: 104 104 73
Width: 1118
Flags: W
LayerCount: 2
Back
Fore
SplineSet
883 0 m 1,0,-1
 745 0 l 1,1,-1
 745 575 l 2,2,3
 745 700 745 700 691 769 c 128,-1,4
 637 838 637 838 516 838 c 0,5,6
 440 838 440 838 378.5 803 c 128,-1,7
 317 768 317 768 274 709.5 c 128,-1,8
 231 651 231 651 208.5 575.5 c 128,-1,9
 186 500 186 500 186 418 c 2,10,-1
 186 0 l 1,11,-1
 49 0 l 1,12,-1
 49 1305 l 1,13,-1
 186 1305 l 1,14,-1
 186 698 l 1,15,16
 285 954 285 954 539 954 c 0,17,18
 883 954 883 954 883 575 c 2,19,-1
 883 0 l 1,0,-1
EndSplineSet
EndChar

StartChar: i
Encoding: 105 105 74
Width: 1118
Flags: W
LayerCount: 2
Back
Fore
SplineSet
559 1118 m 1,0,-1
 373 1118 l 1,1,-1
 373 1305 l 1,2,-1
 559 1305 l 1,3,-1
 559 1118 l 1,0,-1
745 0 m 1,4,-1
 186 0 l 1,5,-1
 186 117 l 1,6,-1
 397 117 l 1,7,-1
 397 815 l 1,8,-1
 186 815 l 1,9,-1
 186 932 l 1,10,-1
 535 932 l 1,11,-1
 535 117 l 1,12,-1
 745 117 l 1,13,-1
 745 0 l 1,4,-1
EndSplineSet
EndChar

StartChar: j
Encoding: 106 106 75
Width: 1118
Flags: W
LayerCount: 2
Back
Fore
SplineSet
745 1118 m 1,0,-1
 559 1118 l 1,1,-1
 559 1305 l 1,2,-1
 745 1305 l 1,3,-1
 745 1118 l 1,0,-1
348 -395 m 0,4,5
 102 -395 102 -395 4 -193 c 1,6,-1
 109 -121 l 1,7,8
 145 -197 145 -197 203.5 -238 c 128,-1,9
 262 -279 262 -279 348 -279 c 0,10,11
 416 -279 416 -279 462 -259.5 c 128,-1,12
 508 -240 508 -240 534.5 -204 c 128,-1,13
 561 -168 561 -168 572.5 -117 c 128,-1,14
 584 -66 584 -66 584 0 c 2,15,-1
 584 815 l 1,16,-1
 373 815 l 1,17,-1
 373 932 l 1,18,-1
 721 932 l 1,19,-1
 721 0 l 2,20,21
 721 -180 721 -180 626.5 -287.5 c 128,-1,22
 532 -395 532 -395 348 -395 c 0,4,5
EndSplineSet
EndChar

StartChar: k
Encoding: 107 107 76
Width: 1118
Flags: W
LayerCount: 2
Back
Fore
SplineSet
930 0 m 1,0,-1
 735 0 l 1,1,-1
 354 418 l 1,2,-1
 186 264 l 1,3,-1
 186 0 l 1,4,-1
 49 0 l 1,5,-1
 49 1305 l 1,6,-1
 186 1305 l 1,7,-1
 186 430 l 1,8,-1
 717 932 l 1,9,-1
 913 932 l 1,10,-1
 446 504 l 1,11,-1
 930 0 l 1,0,-1
EndSplineSet
EndChar

StartChar: l
Encoding: 108 108 77
Width: 1118
Flags: W
LayerCount: 2
Back
Fore
SplineSet
745 0 m 1,0,-1
 186 0 l 1,1,-1
 186 117 l 1,2,-1
 397 117 l 1,3,-1
 397 1188 l 1,4,-1
 186 1188 l 1,5,-1
 186 1305 l 1,6,-1
 535 1305 l 1,7,-1
 535 117 l 1,8,-1
 745 117 l 1,9,-1
 745 0 l 1,0,-1
EndSplineSet
EndChar

StartChar: m
Encoding: 109 109 78
Width: 1118
Flags: W
LayerCount: 2
Back
Fore
SplineSet
932 0 m 1,0,-1
 795 0 l 1,1,-1
 795 670 l 2,2,3
 795 750 795 750 767 794 c 128,-1,4
 739 838 739 838 686 838 c 0,5,6
 608 838 608 838 571.5 756 c 128,-1,7
 535 674 535 674 535 526 c 2,8,-1
 535 0 l 1,9,-1
 397 0 l 1,10,-1
 397 670 l 2,11,12
 397 750 397 750 368.5 794 c 128,-1,13
 340 838 340 838 287 838 c 0,14,15
 238 838 238 838 209 809 c 128,-1,16
 180 780 180 780 163.5 735 c 128,-1,17
 147 690 147 690 142 635 c 128,-1,18
 137 580 137 580 137 526 c 2,19,-1
 137 0 l 1,20,-1
 0 0 l 1,21,-1
 0 932 l 1,22,-1
 137 932 l 1,23,-1
 137 797 l 1,24,25
 180 954 180 954 324 954 c 0,26,27
 461 954 461 954 510 817 c 1,28,29
 578 954 578 954 702 954 c 0,30,31
 821 954 821 954 876.5 883.5 c 128,-1,32
 932 813 932 813 932 670 c 2,33,-1
 932 0 l 1,0,-1
EndSplineSet
EndChar

StartChar: n
Encoding: 110 110 79
Width: 1118
Flags: W
LayerCount: 2
Back
Fore
SplineSet
883 0 m 1,0,-1
 745 0 l 1,1,-1
 745 575 l 2,2,3
 745 700 745 700 691 769 c 128,-1,4
 637 838 637 838 516 838 c 0,5,6
 440 838 440 838 378.5 803 c 128,-1,7
 317 768 317 768 274 709.5 c 128,-1,8
 231 651 231 651 208.5 575.5 c 128,-1,9
 186 500 186 500 186 418 c 2,10,-1
 186 0 l 1,11,-1
 49 0 l 1,12,-1
 49 932 l 1,13,-1
 186 932 l 1,14,-1
 186 698 l 1,15,16
 285 954 285 954 539 954 c 0,17,18
 883 954 883 954 883 575 c 2,19,-1
 883 0 l 1,0,-1
EndSplineSet
EndChar

StartChar: o
Encoding: 111 111 80
Width: 1118
Flags: W
LayerCount: 2
Back
Fore
SplineSet
956 463 m 0,0,1
 956 354 956 354 921.5 265 c 128,-1,2
 887 176 887 176 822.5 112.5 c 128,-1,3
 758 49 758 49 668 13 c 128,-1,4
 578 -23 578 -23 467 -23 c 0,5,6
 358 -23 358 -23 268 13 c 128,-1,7
 178 49 178 49 113.5 112.5 c 128,-1,8
 49 176 49 176 14.5 265 c 128,-1,9
 -20 354 -20 354 -20 463 c 0,10,11
 -20 569 -20 569 14.5 660.5 c 128,-1,12
 49 752 49 752 113.5 816.5 c 128,-1,13
 178 881 178 881 268 917.5 c 128,-1,14
 358 954 358 954 467 954 c 0,15,16
 578 954 578 954 668 917.5 c 128,-1,17
 758 881 758 881 822.5 816.5 c 128,-1,18
 887 752 887 752 921.5 660.5 c 128,-1,19
 956 569 956 569 956 463 c 0,0,1
819 463 m 256,20,21
 819 543 819 543 795.5 610.5 c 128,-1,22
 772 678 772 678 726 729 c 128,-1,23
 680 780 680 780 614.5 809 c 128,-1,24
 549 838 549 838 467 838 c 256,25,26
 385 838 385 838 319.5 809 c 128,-1,27
 254 780 254 780 209 729 c 128,-1,28
 164 678 164 678 140.5 610.5 c 128,-1,29
 117 543 117 543 117 463 c 256,30,31
 117 383 117 383 140.5 315.5 c 128,-1,32
 164 248 164 248 209 199 c 128,-1,33
 254 150 254 150 319.5 122 c 128,-1,34
 385 94 385 94 467 94 c 256,35,36
 549 94 549 94 614.5 122 c 128,-1,37
 680 150 680 150 726 199 c 128,-1,38
 772 248 772 248 795.5 315.5 c 128,-1,39
 819 383 819 383 819 463 c 256,20,21
EndSplineSet
EndChar

StartChar: p
Encoding: 112 112 81
Width: 1118
Flags: W
LayerCount: 2
Back
Fore
SplineSet
932 465 m 0,0,1
 932 356 932 356 898 267 c 128,-1,2
 864 178 864 178 802.5 113.5 c 128,-1,3
 741 49 741 49 654 13 c 128,-1,4
 567 -23 567 -23 459 -23 c 0,5,6
 385 -23 385 -23 315.5 4 c 128,-1,7
 246 31 246 31 186 84 c 1,8,-1
 186 -373 l 1,9,-1
 49 -373 l 1,10,-1
 49 932 l 1,11,-1
 186 932 l 1,12,-1
 186 846 l 1,13,14
 313 954 313 954 459 954 c 0,15,16
 567 954 567 954 654 918.5 c 128,-1,17
 741 883 741 883 802.5 817.5 c 128,-1,18
 864 752 864 752 898 661.5 c 128,-1,19
 932 571 932 571 932 465 c 0,0,1
795 465 m 256,20,21
 795 543 795 543 773.5 611.5 c 128,-1,22
 752 680 752 680 709 730 c 128,-1,23
 666 780 666 780 603.5 809 c 128,-1,24
 541 838 541 838 459 838 c 0,25,26
 381 838 381 838 313.5 809 c 128,-1,27
 246 780 246 780 186 715 c 1,28,-1
 186 215 l 1,29,30
 246 150 246 150 313.5 122 c 128,-1,31
 381 94 381 94 459 94 c 0,32,33
 541 94 541 94 603.5 123 c 128,-1,34
 666 152 666 152 709 202 c 128,-1,35
 752 252 752 252 773.5 319.5 c 128,-1,36
 795 387 795 387 795 465 c 256,20,21
EndSplineSet
EndChar

StartChar: q
Encoding: 113 113 82
Width: 1118
Flags: W
LayerCount: 2
Back
Fore
SplineSet
0 465 m 0,0,1
 0 571 0 571 34 661.5 c 128,-1,2
 68 752 68 752 129 817.5 c 128,-1,3
 190 883 190 883 277.5 918.5 c 128,-1,4
 365 954 365 954 473 954 c 0,5,6
 618 954 618 954 745 846 c 1,7,-1
 745 932 l 1,8,-1
 883 932 l 1,9,-1
 883 -373 l 1,10,-1
 745 -373 l 1,11,-1
 745 84 l 1,12,13
 686 31 686 31 616.5 4 c 128,-1,14
 547 -23 547 -23 473 -23 c 0,15,16
 365 -23 365 -23 277.5 13 c 128,-1,17
 190 49 190 49 129 113.5 c 128,-1,18
 68 178 68 178 34 267 c 128,-1,19
 0 356 0 356 0 465 c 0,0,1
137 465 m 256,20,21
 137 387 137 387 158.5 319.5 c 128,-1,22
 180 252 180 252 223 202 c 128,-1,23
 266 152 266 152 328.5 123 c 128,-1,24
 391 94 391 94 473 94 c 0,25,26
 551 94 551 94 618.5 122 c 128,-1,27
 686 150 686 150 745 215 c 1,28,-1
 745 715 l 1,29,30
 686 780 686 780 618.5 809 c 128,-1,31
 551 838 551 838 473 838 c 0,32,33
 391 838 391 838 328.5 809 c 128,-1,34
 266 780 266 780 223 730 c 128,-1,35
 180 680 180 680 158.5 611.5 c 128,-1,36
 137 543 137 543 137 465 c 256,20,21
EndSplineSet
EndChar

StartChar: r
Encoding: 114 114 83
Width: 1118
Flags: W
LayerCount: 2
Back
Fore
SplineSet
881 801 m 1,0,1
 807 838 807 838 705 838 c 0,2,3
 621 838 621 838 555 802 c 128,-1,4
 489 766 489 766 443 707.5 c 128,-1,5
 397 649 397 649 372.5 573.5 c 128,-1,6
 348 498 348 498 348 418 c 2,7,-1
 348 117 l 1,8,-1
 559 117 l 1,9,-1
 559 0 l 1,10,-1
 0 0 l 1,11,-1
 0 117 l 1,12,-1
 211 117 l 1,13,-1
 211 815 l 1,14,-1
 0 815 l 1,15,-1
 0 932 l 1,16,-1
 348 932 l 1,17,-1
 348 698 l 1,18,19
 442 954 442 954 705 954 c 0,20,21
 776 954 776 954 828.5 945 c 128,-1,22
 881 936 881 936 926 913 c 1,23,-1
 881 801 l 1,0,1
EndSplineSet
EndChar

StartChar: s
Encoding: 115 115 84
Width: 1118
Flags: W
LayerCount: 2
Back
Fore
SplineSet
907 258 m 256,0,1
 907 176 907 176 866 122 c 128,-1,2
 825 68 825 68 760.5 36 c 128,-1,3
 696 4 696 4 616.5 -9.5 c 128,-1,4
 537 -23 537 -23 461 -23 c 0,5,6
 334 -23 334 -23 208 14 c 128,-1,7
 82 51 82 51 -10 111 c 1,8,-1
 51 229 l 1,9,10
 154 164 154 164 254 129 c 128,-1,11
 354 94 354 94 461 94 c 0,12,13
 770 94 770 94 770 254 c 0,14,15
 770 293 770 293 744.5 317.5 c 128,-1,16
 719 342 719 342 676 357.5 c 128,-1,17
 633 373 633 373 577.5 382 c 128,-1,18
 522 391 522 391 461 399 c 0,19,20
 383 410 383 410 306 425 c 128,-1,21
 229 440 229 440 165.5 470 c 128,-1,22
 102 500 102 500 63.5 550 c 128,-1,23
 25 600 25 600 25 682 c 0,24,25
 25 752 25 752 60.5 803 c 128,-1,26
 96 854 96 854 155.5 888 c 128,-1,27
 215 922 215 922 295 938 c 128,-1,28
 375 954 375 954 461 954 c 0,29,30
 584 954 584 954 681 925.5 c 128,-1,31
 778 897 778 897 856 844 c 1,32,-1
 801 737 l 1,33,34
 721 793 721 793 639 815.5 c 128,-1,35
 557 838 557 838 461 838 c 0,36,37
 418 838 418 838 365.5 830.5 c 128,-1,38
 313 823 313 823 268 804.5 c 128,-1,39
 223 786 223 786 192.5 756.5 c 128,-1,40
 162 727 162 727 162 682 c 0,41,42
 162 643 162 643 187.5 619.5 c 128,-1,43
 213 596 213 596 256 580.5 c 128,-1,44
 299 565 299 565 354.5 556 c 128,-1,45
 410 547 410 547 471 539 c 0,46,47
 547 528 547 528 624.5 513 c 128,-1,48
 702 498 702 498 765.5 469 c 128,-1,49
 829 440 829 440 868 390 c 128,-1,50
 907 340 907 340 907 258 c 256,0,1
EndSplineSet
EndChar

StartChar: t
Encoding: 116 116 85
Width: 1118
Flags: W
LayerCount: 2
Back
Fore
SplineSet
942 297 m 1,0,1
 926 150 926 150 826.5 63.5 c 128,-1,2
 727 -23 727 -23 578 -23 c 0,3,4
 496 -23 496 -23 428 4 c 128,-1,5
 360 31 360 31 312 79 c 128,-1,6
 264 127 264 127 237.5 194.5 c 128,-1,7
 211 262 211 262 211 342 c 2,8,-1
 211 815 l 1,9,-1
 0 815 l 1,10,-1
 0 932 l 1,11,-1
 211 932 l 1,12,-1
 211 1305 l 1,13,-1
 348 1305 l 1,14,-1
 348 932 l 1,15,-1
 745 932 l 1,16,-1
 745 815 l 1,17,-1
 348 815 l 1,18,-1
 348 342 l 2,19,20
 348 291 348 291 364.5 246 c 128,-1,21
 381 201 381 201 410.5 167 c 128,-1,22
 440 133 440 133 482 113.5 c 128,-1,23
 524 94 524 94 578 94 c 0,24,25
 680 94 680 94 748.5 157.5 c 128,-1,26
 817 221 817 221 827 322 c 1,27,-1
 942 297 l 1,0,1
EndSplineSet
EndChar

StartChar: u
Encoding: 117 117 86
Width: 1118
Flags: W
LayerCount: 2
Back
Fore
SplineSet
49 932 m 1,0,-1
 186 932 l 1,1,-1
 186 356 l 2,2,3
 186 231 186 231 240.5 162.5 c 128,-1,4
 295 94 295 94 416 94 c 0,5,6
 492 94 492 94 553 129 c 128,-1,7
 614 164 614 164 657 222.5 c 128,-1,8
 700 281 700 281 722.5 356.5 c 128,-1,9
 745 432 745 432 745 514 c 2,10,-1
 745 932 l 1,11,-1
 883 932 l 1,12,-1
 883 0 l 1,13,-1
 745 0 l 1,14,-1
 745 233 l 1,15,16
 647 -23 647 -23 393 -23 c 0,17,18
 49 -23 49 -23 49 356 c 2,19,-1
 49 932 l 1,0,-1
EndSplineSet
EndChar

StartChar: v
Encoding: 118 118 87
Width: 1118
Flags: W
LayerCount: 2
Back
Fore
SplineSet
963 932 m 1,0,-1
 559 0 l 1,1,-1
 375 0 l 1,2,-1
 -31 932 l 1,3,-1
 133 932 l 1,4,-1
 467 115 l 1,5,-1
 799 932 l 1,6,-1
 963 932 l 1,0,-1
EndSplineSet
EndChar

StartChar: w
Encoding: 119 119 88
Width: 1118
Flags: W
LayerCount: 2
Back
Fore
SplineSet
963 932 m 1,0,-1
 774 0 l 1,1,-1
 614 0 l 1,2,-1
 465 684 l 1,3,-1
 324 0 l 1,4,-1
 164 0 l 1,5,-1
 -27 932 l 1,6,-1
 119 932 l 1,7,-1
 254 186 l 1,8,-1
 399 932 l 1,9,-1
 535 932 l 1,10,-1
 684 186 l 1,11,-1
 819 932 l 1,12,-1
 963 932 l 1,0,-1
EndSplineSet
EndChar

StartChar: x
Encoding: 120 120 89
Width: 1118
Flags: W
LayerCount: 2
Back
Fore
SplineSet
954 0 m 1,0,-1
 569 0 l 1,1,-1
 569 121 l 1,2,-1
 651 121 l 1,3,-1
 467 391 l 1,4,-1
 285 121 l 1,5,-1
 360 121 l 1,6,-1
 360 0 l 1,7,-1
 -20 0 l 1,8,-1
 -20 121 l 1,9,-1
 125 121 l 1,10,-1
 381 473 l 1,11,-1
 135 809 l 1,12,-1
 0 809 l 1,13,-1
 0 932 l 1,14,-1
 383 932 l 1,15,-1
 383 809 l 1,16,-1
 297 809 l 1,17,-1
 467 555 l 1,18,-1
 639 809 l 1,19,-1
 545 809 l 1,20,-1
 545 932 l 1,21,-1
 932 932 l 1,22,-1
 932 809 l 1,23,-1
 801 809 l 1,24,-1
 555 473 l 1,25,-1
 811 121 l 1,26,-1
 954 121 l 1,27,-1
 954 0 l 1,0,-1
EndSplineSet
EndChar

StartChar: y
Encoding: 121 121 90
Width: 1118
Flags: W
LayerCount: 2
Back
Fore
SplineSet
961 932 m 1,0,-1
 457 -236 l 2,1,2
 418 -334 418 -334 347 -364.5 c 128,-1,3
 276 -395 276 -395 190 -395 c 0,4,5
 94 -395 94 -395 -2 -360 c 1,6,-1
 25 -242 l 1,7,8
 72 -262 72 -262 117 -270.5 c 128,-1,9
 162 -279 162 -279 190 -279 c 0,10,11
 258 -279 258 -279 283.5 -246 c 128,-1,12
 309 -213 309 -213 328 -168 c 2,13,-1
 385 -27 l 1,14,-1
 -31 932 l 1,15,-1
 131 932 l 1,16,-1
 467 117 l 1,17,-1
 797 932 l 1,18,-1
 961 932 l 1,0,-1
EndSplineSet
EndChar

StartChar: z
Encoding: 122 122 91
Width: 1118
Flags: W
LayerCount: 2
Back
Fore
SplineSet
887 0 m 1,0,-1
 47 0 l 1,1,-1
 47 117 l 1,2,-1
 682 815 l 1,3,-1
 166 815 l 1,4,-1
 166 559 l 1,5,-1
 49 559 l 1,6,-1
 49 932 l 1,7,-1
 864 932 l 1,8,-1
 864 815 l 1,9,-1
 229 117 l 1,10,-1
 770 117 l 1,11,-1
 770 373 l 1,12,-1
 887 373 l 1,13,-1
 887 0 l 1,0,-1
EndSplineSet
EndChar

StartChar: braceleft
Encoding: 123 123 92
Width: 1118
Flags: W
LayerCount: 2
Back
Fore
SplineSet
743 -373 m 1,0,-1
 651 -373 l 2,1,2
 590 -373 590 -373 538.5 -351.5 c 128,-1,3
 487 -330 487 -330 450.5 -293 c 128,-1,4
 414 -256 414 -256 393.5 -204 c 128,-1,5
 373 -152 373 -152 373 -90 c 2,6,-1
 373 334 l 2,7,8
 373 502 373 502 186 502 c 1,9,-1
 186 614 l 1,10,11
 373 614 373 614 373 782 c 2,12,-1
 373 1212 l 2,13,14
 373 1274 373 1274 393.5 1325 c 128,-1,15
 414 1376 414 1376 450.5 1413 c 128,-1,16
 487 1450 487 1450 538.5 1470.5 c 128,-1,17
 590 1491 590 1491 651 1491 c 2,18,-1
 743 1491 l 1,19,-1
 743 1380 l 1,20,-1
 651 1380 l 2,21,22
 481 1380 481 1380 481 1212 c 2,23,-1
 481 782 l 2,24,25
 481 748 481 748 468 711 c 128,-1,26
 455 674 455 674 432.5 642 c 128,-1,27
 410 610 410 610 378 586.5 c 128,-1,28
 346 563 346 563 309 557 c 1,29,30
 346 551 346 551 377 528.5 c 128,-1,31
 408 506 408 506 431.5 474 c 128,-1,32
 455 442 455 442 468 405.5 c 128,-1,33
 481 369 481 369 481 334 c 2,34,-1
 481 -90 l 2,35,36
 481 -260 481 -260 651 -260 c 2,37,-1
 743 -260 l 1,38,-1
 743 -373 l 1,0,-1
EndSplineSet
EndChar

StartChar: bar
Encoding: 124 124 93
Width: 1118
Flags: W
LayerCount: 2
Back
Fore
SplineSet
535 -186 m 1,0,-1
 397 -186 l 1,1,-1
 397 1491 l 1,2,-1
 535 1491 l 1,3,-1
 535 -186 l 1,0,-1
EndSplineSet
EndChar

StartChar: braceright
Encoding: 125 125 94
Width: 1118
Flags: W
LayerCount: 2
Back
Fore
SplineSet
743 502 m 1,0,1
 559 502 559 502 559 334 c 2,2,-1
 559 -92 l 2,3,4
 559 -154 559 -154 538.5 -205 c 128,-1,5
 518 -256 518 -256 480 -294 c 128,-1,6
 442 -332 442 -332 391 -352.5 c 128,-1,7
 340 -373 340 -373 279 -373 c 2,8,-1
 186 -373 l 1,9,-1
 186 -260 l 1,10,-1
 279 -260 l 2,11,12
 446 -260 446 -260 446 -92 c 2,13,-1
 446 334 l 2,14,15
 446 369 446 369 459.5 406.5 c 128,-1,16
 473 444 473 444 496.5 476 c 128,-1,17
 520 508 520 508 552 529.5 c 128,-1,18
 584 551 584 551 621 557 c 1,19,20
 584 565 584 565 551 587.5 c 128,-1,21
 518 610 518 610 495.5 642 c 128,-1,22
 473 674 473 674 459.5 711 c 128,-1,23
 446 748 446 748 446 782 c 2,24,-1
 446 1212 l 2,25,26
 446 1380 446 1380 279 1380 c 2,27,-1
 186 1380 l 1,28,-1
 186 1491 l 1,29,-1
 279 1491 l 2,30,31
 340 1491 340 1491 391 1469.5 c 128,-1,32
 442 1448 442 1448 480 1411 c 128,-1,33
 518 1374 518 1374 538.5 1323 c 128,-1,34
 559 1272 559 1272 559 1212 c 2,35,-1
 559 782 l 2,36,37
 559 614 559 614 743 614 c 1,38,-1
 743 502 l 1,0,1
EndSplineSet
EndChar

StartChar: asciitilde
Encoding: 126 126 95
Width: 1118
Flags: W
LayerCount: 2
Back
Fore
SplineSet
651 373 m 0,0,1
 688 373 688 373 713.5 396.5 c 128,-1,2
 739 420 739 420 755.5 461 c 128,-1,3
 772 502 772 502 782.5 559.5 c 128,-1,4
 793 617 793 617 801 682 c 1,5,-1
 936 668 l 1,6,7
 930 578 930 578 908.5 501 c 128,-1,8
 887 424 887 424 852 368 c 128,-1,9
 817 312 817 312 766 279 c 128,-1,10
 715 246 715 246 651 246 c 0,11,12
 590 246 590 246 548 269.5 c 128,-1,13
 506 293 506 293 477.5 328 c 128,-1,14
 449 363 449 363 427.5 403 c 128,-1,15
 406 443 406 443 385.5 477.5 c 128,-1,16
 365 512 365 512 340 535.5 c 128,-1,17
 315 559 315 559 281 559 c 0,18,19
 244 559 244 559 218.5 535.5 c 128,-1,20
 193 512 193 512 176.5 471 c 128,-1,21
 160 430 160 430 149.5 374 c 128,-1,22
 139 318 139 318 131 252 c 1,23,-1
 -4 267 l 1,24,25
 2 355 2 355 23.5 432.5 c 128,-1,26
 45 510 45 510 80 566.5 c 128,-1,27
 115 623 115 623 165 655.5 c 128,-1,28
 215 688 215 688 281 688 c 0,29,30
 342 688 342 688 384 664.5 c 128,-1,31
 426 641 426 641 455.5 606.5 c 128,-1,32
 485 572 485 572 506.5 531 c 128,-1,33
 528 490 528 490 548.5 455 c 128,-1,34
 569 420 569 420 592.5 396.5 c 128,-1,35
 616 373 616 373 651 373 c 0,0,1
EndSplineSet
EndChar

StartChar: Aring
Encoding: 197 197 97
Width: 1118
Flags: W
LayerCount: 2
Back
Fore
SplineSet
242 1450 m 0,0,1
 242 1497 242 1497 259 1538 c 128,-1,2
 276 1579 276 1579 307 1609.5 c 128,-1,3
 338 1640 338 1640 379 1657.5 c 128,-1,4
 420 1675 420 1675 467 1675 c 256,5,6
 514 1675 514 1675 555 1657.5 c 128,-1,7
 596 1640 596 1640 626.5 1609.5 c 128,-1,8
 657 1579 657 1579 674.5 1538 c 128,-1,9
 692 1497 692 1497 692 1450 c 0,10,11
 692 1384 692 1384 660.5 1333 c 128,-1,12
 629 1282 629 1282 578 1253 c 1,13,-1
 995 0 l 1,14,-1
 848 0 l 1,15,-1
 725 373 l 1,16,-1
 209 373 l 1,17,-1
 88 0 l 1,18,-1
 -59 0 l 1,19,-1
 356 1251 l 1,20,21
 305 1280 305 1280 273.5 1332 c 128,-1,22
 242 1384 242 1384 242 1450 c 0,0,1
686 494 m 1,23,-1
 467 1167 l 1,24,-1
 248 494 l 1,25,-1
 686 494 l 1,23,-1
332 1450 m 256,26,27
 332 1395 332 1395 372 1355 c 128,-1,28
 412 1315 412 1315 467 1315 c 256,29,30
 522 1315 522 1315 562 1355 c 128,-1,31
 602 1395 602 1395 602 1450 c 256,32,33
 602 1505 602 1505 562 1545 c 128,-1,34
 522 1585 522 1585 467 1585 c 256,35,36
 412 1585 412 1585 372 1545 c 128,-1,37
 332 1505 332 1505 332 1450 c 256,26,27
EndSplineSet
EndChar

StartChar: Ccedilla
Encoding: 199 199 98
Width: 1118
Flags: W
LayerCount: 2
Back
Fore
SplineSet
940 342 m 1,0,1
 895 193 895 193 798.5 98.5 c 128,-1,2
 702 4 702 4 559 -16 c 1,3,-1
 559 -41 l 2,4,5
 559 -188 559 -188 477 -276 c 0,6,7
 389 -371 389 -371 242 -371 c 1,8,-1
 242 -254 l 1,9,10
 444 -254 444 -254 444 -41 c 2,11,-1
 444 -20 l 1,12,13
 317 -12 317 -12 228 46 c 128,-1,14
 139 104 139 104 84 196.5 c 128,-1,15
 29 289 29 289 4.5 406.5 c 128,-1,16
 -20 524 -20 524 -20 651 c 0,17,18
 -20 782 -20 782 6.5 904 c 128,-1,19
 33 1026 33 1026 93.5 1120 c 128,-1,20
 154 1214 154 1214 249 1270.5 c 128,-1,21
 344 1327 344 1327 481 1327 c 0,22,23
 602 1327 602 1327 688 1284 c 128,-1,24
 774 1241 774 1241 815 1153 c 1,25,-1
 815 1305 l 1,26,-1
 932 1305 l 1,27,-1
 932 877 l 1,28,-1
 815 877 l 1,29,30
 815 946 815 946 788.5 1007.5 c 128,-1,31
 762 1069 762 1069 717 1114 c 128,-1,32
 672 1159 672 1159 610.5 1184.5 c 128,-1,33
 549 1210 549 1210 481 1210 c 0,34,35
 375 1210 375 1210 305.5 1160 c 128,-1,36
 236 1110 236 1110 194 1029 c 128,-1,37
 152 948 152 948 134.5 849 c 128,-1,38
 117 750 117 750 117 651 c 0,39,40
 117 553 117 553 134.5 453.5 c 128,-1,41
 152 354 152 354 194 274.5 c 128,-1,42
 236 195 236 195 305.5 144.5 c 128,-1,43
 375 94 375 94 481 94 c 0,44,45
 725 94 725 94 821 389 c 1,46,-1
 940 342 l 1,0,1
EndSplineSet
EndChar

StartChar: ccedilla
Encoding: 231 231 109
Width: 1118
Flags: W
LayerCount: 2
Back
Fore
SplineSet
897 178 m 1,0,1
 844 96 844 96 759 45 c 128,-1,2
 674 -6 674 -6 559 -18 c 1,3,-1
 559 -41 l 2,4,5
 559 -188 559 -188 477 -276 c 0,6,7
 389 -371 389 -371 242 -371 c 1,8,-1
 242 -254 l 1,9,10
 444 -254 444 -254 444 -41 c 2,11,-1
 444 -20 l 1,12,13
 344 -12 344 -12 262 25.5 c 128,-1,14
 180 63 180 63 121.5 126.5 c 128,-1,15
 63 190 63 190 31.5 276 c 128,-1,16
 0 362 0 362 0 465 c 0,17,18
 0 571 0 571 33 661.5 c 128,-1,19
 66 752 66 752 127 816.5 c 128,-1,20
 188 881 188 881 276.5 917.5 c 128,-1,21
 365 954 365 954 473 954 c 0,22,23
 516 954 516 954 561 944 c 128,-1,24
 606 934 606 934 646 913.5 c 128,-1,25
 686 893 686 893 718 864.5 c 128,-1,26
 750 836 750 836 766 797 c 1,27,-1
 766 932 l 1,28,-1
 889 932 l 1,29,-1
 889 559 l 1,30,-1
 766 559 l 1,31,32
 766 621 766 621 743.5 672 c 128,-1,33
 721 723 721 723 682 760 c 128,-1,34
 643 797 643 797 589 817.5 c 128,-1,35
 535 838 535 838 473 838 c 0,36,37
 389 838 389 838 326.5 809 c 128,-1,38
 264 780 264 780 222 730 c 128,-1,39
 180 680 180 680 158.5 612.5 c 128,-1,40
 137 545 137 545 137 465 c 256,41,42
 137 385 137 385 161.5 317.5 c 128,-1,43
 186 250 186 250 232.5 201 c 128,-1,44
 279 152 279 152 344.5 123 c 128,-1,45
 410 94 410 94 492 94 c 0,46,47
 596 94 596 94 677 135 c 128,-1,48
 758 176 758 176 801 244 c 1,49,-1
 897 178 l 1,0,1
EndSplineSet
EndChar

StartChar: dagger
Encoding: 8224 8224 128
Width: 1118
Flags: W
LayerCount: 2
Back
Fore
SplineSet
745 969 m 1,0,-1
 508 983 l 1,1,-1
 520 373 l 1,2,-1
 410 373 l 1,3,-1
 424 983 l 1,4,-1
 186 969 l 1,5,-1
 186 1081 l 1,6,-1
 424 1067 l 1,7,-1
 410 1305 l 1,8,-1
 520 1305 l 1,9,-1
 508 1067 l 1,10,-1
 745 1081 l 1,11,-1
 745 969 l 1,0,-1
EndSplineSet
EndChar

StartChar: degree
Encoding: 176 176 129
Width: 1118
Flags: W
LayerCount: 2
Back
Fore
SplineSet
0 1118 m 0,0,1
 0 1194 0 1194 29.5 1262.5 c 128,-1,2
 59 1331 59 1331 109.5 1381.5 c 128,-1,3
 160 1432 160 1432 227.5 1461.5 c 128,-1,4
 295 1491 295 1491 373 1491 c 0,5,6
 449 1491 449 1491 517.5 1461.5 c 128,-1,7
 586 1432 586 1432 636 1381.5 c 128,-1,8
 686 1331 686 1331 715.5 1262.5 c 128,-1,9
 745 1194 745 1194 745 1118 c 0,10,11
 745 1040 745 1040 715.5 972.5 c 128,-1,12
 686 905 686 905 636 855 c 128,-1,13
 586 805 586 805 517.5 775 c 128,-1,14
 449 745 449 745 373 745 c 0,15,16
 295 745 295 745 227.5 775 c 128,-1,17
 160 805 160 805 109.5 855 c 128,-1,18
 59 905 59 905 29.5 972.5 c 128,-1,19
 0 1040 0 1040 0 1118 c 0,0,1
92 1118 m 0,20,21
 92 1059 92 1059 113.5 1008.5 c 128,-1,22
 135 958 135 958 174 919.5 c 128,-1,23
 213 881 213 881 263 859.5 c 128,-1,24
 313 838 313 838 373 838 c 0,25,26
 430 838 430 838 481 859.5 c 128,-1,27
 532 881 532 881 571 919.5 c 128,-1,28
 610 958 610 958 631.5 1008.5 c 128,-1,29
 653 1059 653 1059 653 1118 c 0,30,31
 653 1176 653 1176 631.5 1227 c 128,-1,32
 610 1278 610 1278 571 1317 c 128,-1,33
 532 1356 532 1356 481 1377.5 c 128,-1,34
 430 1399 430 1399 373 1399 c 0,35,36
 313 1399 313 1399 263 1377.5 c 128,-1,37
 213 1356 213 1356 174 1317 c 128,-1,38
 135 1278 135 1278 113.5 1227 c 128,-1,39
 92 1176 92 1176 92 1118 c 0,20,21
EndSplineSet
EndChar

StartChar: cent
Encoding: 162 162 130
Width: 1118
Flags: W
LayerCount: 2
Back
Fore
SplineSet
397 170 m 1,0,1
 219 203 219 203 113.5 331 c 128,-1,2
 8 459 8 459 8 651 c 0,3,4
 8 745 8 745 35.5 826 c 128,-1,5
 63 907 63 907 114.5 969.5 c 128,-1,6
 166 1032 166 1032 237.5 1073 c 128,-1,7
 309 1114 309 1114 397 1130 c 1,8,-1
 397 1305 l 1,9,-1
 535 1305 l 1,10,-1
 535 1139 l 1,11,12
 662 1133 662 1133 755 1079.5 c 128,-1,13
 848 1026 848 1026 905 940 c 1,14,-1
 809 874 l 1,15,16
 768 936 768 936 697.5 976 c 128,-1,17
 627 1016 627 1016 535 1022 c 1,18,-1
 535 279 l 1,19,20
 627 287 627 287 697.5 326 c 128,-1,21
 768 365 768 365 809 428 c 1,22,-1
 905 362 l 1,23,24
 848 276 848 276 755 223 c 128,-1,25
 662 170 662 170 535 162 c 1,26,-1
 535 0 l 1,27,-1
 397 0 l 1,28,-1
 397 170 l 1,0,1
145 651 m 256,29,30
 145 518 145 518 210.5 421 c 128,-1,31
 276 324 276 324 397 291 c 1,32,-1
 397 1010 l 1,33,34
 276 979 276 979 210.5 881.5 c 128,-1,35
 145 784 145 784 145 651 c 256,29,30
EndSplineSet
EndChar

StartChar: sterling
Encoding: 163 163 131
Width: 1118
Flags: W
LayerCount: 2
Back
Fore
SplineSet
49 711 m 1,0,-1
 236 711 l 1,1,-1
 236 975 l 2,2,3
 236 1051 236 1051 258.5 1116.5 c 128,-1,4
 281 1182 281 1182 323 1228 c 128,-1,5
 365 1274 365 1274 425 1300.5 c 128,-1,6
 485 1327 485 1327 563 1327 c 0,7,8
 614 1327 614 1327 661.5 1309.5 c 128,-1,9
 709 1292 709 1292 746.5 1260.5 c 128,-1,10
 784 1229 784 1229 812 1182 c 128,-1,11
 840 1135 840 1135 852 1075 c 1,12,-1
 727 1047 l 1,13,14
 705 1137 705 1137 664 1173.5 c 128,-1,15
 623 1210 623 1210 563 1210 c 0,16,17
 465 1210 465 1210 419 1148.5 c 128,-1,18
 373 1087 373 1087 373 975 c 2,19,-1
 373 711 l 1,20,-1
 559 711 l 1,21,-1
 559 594 l 1,22,-1
 373 594 l 1,23,-1
 373 324 l 2,24,25
 373 244 373 244 347.5 191.5 c 128,-1,26
 322 139 322 139 281 117 c 1,27,-1
 487 117 l 2,28,29
 758 117 758 117 870 340 c 1,30,-1
 979 281 l 1,31,32
 913 139 913 139 783 69.5 c 128,-1,33
 653 0 653 0 487 0 c 2,34,-1
 49 0 l 1,35,-1
 49 117 l 1,36,-1
 111 117 l 2,37,38
 145 117 145 117 169 133.5 c 128,-1,39
 193 150 193 150 208 174.5 c 128,-1,40
 223 199 223 199 229.5 227.5 c 128,-1,41
 236 256 236 256 236 279 c 2,42,-1
 236 594 l 1,43,-1
 49 594 l 1,44,-1
 49 711 l 1,0,-1
EndSplineSet
EndChar

StartChar: section
Encoding: 167 167 132
Width: 1118
Flags: W
LayerCount: 2
Back
Fore
SplineSet
68 829 m 0,0,1
 68 905 68 905 99.5 970.5 c 128,-1,2
 131 1036 131 1036 203 1090 c 1,3,4
 143 1130 143 1130 105.5 1190.5 c 128,-1,5
 68 1251 68 1251 68 1343 c 0,6,7
 68 1423 68 1423 99.5 1484.5 c 128,-1,8
 131 1546 131 1546 185.5 1588 c 128,-1,9
 240 1630 240 1630 312.5 1652.5 c 128,-1,10
 385 1675 385 1675 467 1675 c 0,11,12
 547 1675 547 1675 621.5 1653.5 c 128,-1,13
 696 1632 696 1632 757.5 1588 c 128,-1,14
 819 1544 819 1544 860 1477.5 c 128,-1,15
 901 1411 901 1411 913 1319 c 1,16,-1
 784 1298 l 1,17,18
 762 1430 762 1430 682 1494.5 c 128,-1,19
 602 1559 602 1559 467 1559 c 0,20,21
 422 1559 422 1559 375 1547.5 c 128,-1,22
 328 1536 328 1536 290 1510.5 c 128,-1,23
 252 1485 252 1485 228.5 1444 c 128,-1,24
 205 1403 205 1403 205 1343 c 0,25,26
 205 1270 205 1270 258 1225 c 128,-1,27
 311 1180 311 1180 391 1145 c 128,-1,28
 471 1110 471 1110 563 1077 c 128,-1,29
 655 1044 655 1044 735 996 c 128,-1,30
 815 948 815 948 868.5 875.5 c 128,-1,31
 922 803 922 803 922 688 c 0,32,33
 922 616 922 616 894 549.5 c 128,-1,34
 866 483 866 483 807 430 c 1,35,36
 858 387 858 387 890 325.5 c 128,-1,37
 922 264 922 264 922 176 c 0,38,39
 922 96 922 96 889 28.5 c 128,-1,40
 856 -39 856 -39 799.5 -86 c 128,-1,41
 743 -133 743 -133 668.5 -159.5 c 128,-1,42
 594 -186 594 -186 512 -186 c 0,43,44
 426 -186 426 -186 347 -164.5 c 128,-1,45
 268 -143 268 -143 202.5 -99 c 128,-1,46
 137 -55 137 -55 89 13.5 c 128,-1,47
 41 82 41 82 20 178 c 1,48,-1
 147 211 l 1,49,50
 176 72 176 72 269 1 c 128,-1,51
 362 -70 362 -70 512 -70 c 0,52,53
 567 -70 567 -70 617.5 -54.5 c 128,-1,54
 668 -39 668 -39 704.5 -9.5 c 128,-1,55
 741 20 741 20 762.5 63 c 128,-1,56
 784 106 784 106 784 164 c 0,57,58
 784 252 784 252 731 306 c 128,-1,59
 678 360 678 360 598 397 c 128,-1,60
 518 434 518 434 426 465 c 128,-1,61
 334 496 334 496 254 540 c 128,-1,62
 174 584 174 584 121 651.5 c 128,-1,63
 68 719 68 719 68 829 c 0,0,1
205 831 m 0,64,65
 205 758 205 758 252 712 c 128,-1,66
 299 666 299 666 370.5 633 c 128,-1,67
 442 600 442 600 528 571.5 c 128,-1,68
 614 543 614 543 694 504 c 1,69,70
 735 537 735 537 759.5 581 c 128,-1,71
 784 625 784 625 784 676 c 0,72,73
 784 754 784 754 742 805 c 128,-1,74
 700 856 700 856 635.5 892 c 128,-1,75
 571 928 571 928 491.5 956.5 c 128,-1,76
 412 985 412 985 336 1018 c 1,77,78
 266 983 266 983 235.5 936 c 128,-1,79
 205 889 205 889 205 831 c 0,64,65
EndSplineSet
EndChar

StartChar: bullet
Encoding: 8226 8226 133
Width: 1118
Flags: W
LayerCount: 2
Back
Fore
SplineSet
186 559 m 0,0,1
 186 635 186 635 216 703.5 c 128,-1,2
 246 772 246 772 296 822 c 128,-1,3
 346 872 346 872 413.5 902 c 128,-1,4
 481 932 481 932 559 932 c 0,5,6
 635 932 635 932 703.5 902 c 128,-1,7
 772 872 772 872 822 822 c 128,-1,8
 872 772 872 772 902 703.5 c 128,-1,9
 932 635 932 635 932 559 c 0,10,11
 932 481 932 481 902 413.5 c 128,-1,12
 872 346 872 346 822 296 c 128,-1,13
 772 246 772 246 703.5 216 c 128,-1,14
 635 186 635 186 559 186 c 0,15,16
 481 186 481 186 413.5 216 c 128,-1,17
 346 246 346 246 296 296 c 128,-1,18
 246 346 246 346 216 413.5 c 128,-1,19
 186 481 186 481 186 559 c 0,0,1
EndSplineSet
EndChar

StartChar: paragraph
Encoding: 182 182 134
Width: 1118
Flags: W
LayerCount: 2
Back
Fore
SplineSet
907 0 m 1,0,-1
 770 0 l 1,1,-1
 770 559 l 1,2,-1
 535 559 l 1,3,-1
 535 0 l 1,4,-1
 397 0 l 1,5,-1
 397 567 l 1,6,7
 31 606 31 606 31 932 c 0,8,9
 31 1305 31 1305 530 1305 c 2,10,-1
 907 1305 l 1,11,-1
 907 0 l 1,0,-1
770 682 m 1,12,-1
 770 1188 l 1,13,-1
 535 1188 l 1,14,-1
 535 682 l 1,15,-1
 770 682 l 1,12,-1
397 1178 m 1,16,17
 283 1159 283 1159 226.5 1096.5 c 128,-1,18
 170 1034 170 1034 170 932 c 0,19,20
 170 731 170 731 397 692 c 1,21,-1
 397 1178 l 1,16,17
EndSplineSet
EndChar

StartChar: germandbls
Encoding: 223 223 135
Width: 1118
Flags: W
LayerCount: 2
Back
Fore
SplineSet
932 268 m 0,0,1
 932 207 932 207 905.5 153.5 c 128,-1,2
 879 100 879 100 831.5 61.5 c 128,-1,3
 784 23 784 23 719.5 0 c 128,-1,4
 655 -23 655 -23 580 -23 c 0,5,6
 481 -23 481 -23 409.5 5 c 128,-1,7
 338 33 338 33 272 86 c 1,8,-1
 350 190 l 1,9,10
 403 141 403 141 457.5 117.5 c 128,-1,11
 512 94 512 94 580 94 c 0,12,13
 672 94 672 94 732.5 137 c 128,-1,14
 793 180 793 180 793 270 c 0,15,16
 793 326 793 326 763 363.5 c 128,-1,17
 733 401 733 401 690 429 c 128,-1,18
 647 457 647 457 595 481.5 c 128,-1,19
 543 506 543 506 500 534.5 c 128,-1,20
 457 563 457 563 427 602 c 128,-1,21
 397 641 397 641 397 698 c 0,22,23
 397 766 397 766 430 804 c 128,-1,24
 463 842 463 842 503 873.5 c 128,-1,25
 543 905 543 905 575.5 942 c 128,-1,26
 608 979 608 979 608 1040 c 0,27,28
 608 1110 608 1110 567 1160 c 128,-1,29
 526 1210 526 1210 426 1210 c 0,30,31
 352 1210 352 1210 305 1180.5 c 128,-1,32
 258 1151 258 1151 231.5 1100 c 128,-1,33
 205 1049 205 1049 195.5 983.5 c 128,-1,34
 186 918 186 918 186 846 c 2,35,-1
 186 0 l 1,36,-1
 49 0 l 1,37,-1
 49 844 l 2,38,39
 49 920 49 920 61.5 1005 c 128,-1,40
 74 1090 74 1090 114 1161.5 c 128,-1,41
 154 1233 154 1233 228.5 1280 c 128,-1,42
 303 1327 303 1327 426 1327 c 0,43,44
 502 1327 502 1327 561.5 1304.5 c 128,-1,45
 621 1282 621 1282 661.5 1244 c 128,-1,46
 702 1206 702 1206 723.5 1154 c 128,-1,47
 745 1102 745 1102 745 1040 c 0,48,49
 745 958 745 958 712.5 909 c 128,-1,50
 680 860 680 860 640 827.5 c 128,-1,51
 600 795 600 795 567.5 769 c 128,-1,52
 535 743 535 743 535 709 c 0,53,54
 535 682 535 682 564.5 660.5 c 128,-1,55
 594 639 594 639 638 615.5 c 128,-1,56
 682 592 682 592 733 563.5 c 128,-1,57
 784 535 784 535 828 495 c 128,-1,58
 872 455 872 455 902 399.5 c 128,-1,59
 932 344 932 344 932 268 c 0,0,1
EndSplineSet
EndChar

StartChar: registered
Encoding: 174 174 136
Width: 1118
Flags: W
LayerCount: 2
Back
Fore
SplineSet
1118 932 m 0,0,1
 1118 821 1118 821 1076 719.5 c 128,-1,2
 1034 618 1034 618 960.5 541.5 c 128,-1,3
 887 465 887 465 784.5 419 c 128,-1,4
 682 373 682 373 561 373 c 0,5,6
 453 373 453 373 351.5 413 c 128,-1,7
 250 453 250 453 172 526.5 c 128,-1,8
 94 600 94 600 47 702.5 c 128,-1,9
 0 805 0 805 0 932 c 0,10,11
 0 1047 0 1047 44 1149 c 128,-1,12
 88 1251 88 1251 164 1327 c 128,-1,13
 240 1403 240 1403 342 1447 c 128,-1,14
 444 1491 444 1491 561 1491 c 0,15,16
 674 1491 674 1491 774 1449 c 128,-1,17
 874 1407 874 1407 951 1331 c 128,-1,18
 1028 1255 1028 1255 1073 1153 c 128,-1,19
 1118 1051 1118 1051 1118 932 c 0,0,1
1053 932 m 0,20,21
 1053 1032 1053 1032 1015 1121 c 128,-1,22
 977 1210 977 1210 910.5 1278 c 128,-1,23
 844 1346 844 1346 754 1385.5 c 128,-1,24
 664 1425 664 1425 561 1425 c 0,25,26
 459 1425 459 1425 369 1387.5 c 128,-1,27
 279 1350 279 1350 211 1283.5 c 128,-1,28
 143 1217 143 1217 104.5 1126.5 c 128,-1,29
 66 1036 66 1036 66 932 c 0,30,31
 66 827 66 827 104.5 737 c 128,-1,32
 143 647 143 647 209.5 580.5 c 128,-1,33
 276 514 276 514 366.5 476 c 128,-1,34
 457 438 457 438 561 438 c 0,35,36
 662 438 662 438 752 476 c 128,-1,37
 842 514 842 514 908.5 580.5 c 128,-1,38
 975 647 975 647 1014 737 c 128,-1,39
 1053 827 1053 827 1053 932 c 0,20,21
866 596 m 1,40,-1
 680 596 l 1,41,-1
 506 838 l 1,42,-1
 471 838 l 1,43,-1
 471 596 l 1,44,-1
 328 596 l 1,45,-1
 328 1272 l 1,46,-1
 596 1272 l 2,47,48
 647 1272 647 1272 694 1258.5 c 128,-1,49
 741 1245 741 1245 777 1217.5 c 128,-1,50
 813 1190 813 1190 833.5 1150 c 128,-1,51
 854 1110 854 1110 854 1055 c 0,52,53
 854 975 854 975 805 914.5 c 128,-1,54
 756 854 756 854 662 844 c 1,55,-1
 866 596 l 1,40,-1
713 1055 m 0,56,57
 713 1100 713 1100 684 1131.5 c 128,-1,58
 655 1163 655 1163 596 1163 c 2,59,-1
 471 1163 l 1,60,-1
 471 948 l 1,61,-1
 596 948 l 2,62,63
 651 948 651 948 682 978 c 128,-1,64
 713 1008 713 1008 713 1055 c 0,56,57
EndSplineSet
EndChar

StartChar: copyright
Encoding: 169 169 137
Width: 1118
Flags: W
LayerCount: 2
Back
Fore
SplineSet
866 530 m 1,0,1
 770 383 770 383 565 383 c 0,2,3
 485 383 485 383 418.5 409.5 c 128,-1,4
 352 436 352 436 304 484 c 128,-1,5
 256 532 256 532 229.5 599 c 128,-1,6
 203 666 203 666 203 745 c 0,7,8
 203 821 203 821 228.5 886.5 c 128,-1,9
 254 952 254 952 301 1001.5 c 128,-1,10
 348 1051 348 1051 414.5 1079.5 c 128,-1,11
 481 1108 481 1108 565 1108 c 0,12,13
 770 1108 770 1108 866 961 c 1,14,-1
 760 889 l 1,15,16
 705 989 705 989 565 989 c 0,17,18
 463 989 463 989 404.5 919.5 c 128,-1,19
 346 850 346 850 346 745 c 0,20,21
 346 645 346 645 402.5 573.5 c 128,-1,22
 459 502 459 502 565 502 c 0,23,24
 705 502 705 502 760 602 c 1,25,-1
 866 530 l 1,0,1
1122 743 m 0,26,27
 1122 633 1122 633 1080 531.5 c 128,-1,28
 1038 430 1038 430 963.5 353 c 128,-1,29
 889 276 889 276 786.5 230 c 128,-1,30
 684 184 684 184 563 184 c 0,31,32
 455 184 455 184 353.5 224 c 128,-1,33
 252 264 252 264 174 338 c 128,-1,34
 96 412 96 412 49 514 c 128,-1,35
 2 616 2 616 2 743 c 0,36,37
 2 858 2 858 46 960.5 c 128,-1,38
 90 1063 90 1063 166 1140 c 128,-1,39
 242 1217 242 1217 344 1261 c 128,-1,40
 446 1305 446 1305 563 1305 c 0,41,42
 676 1305 676 1305 777.5 1262 c 128,-1,43
 879 1219 879 1219 955.5 1144 c 128,-1,44
 1032 1069 1032 1069 1077 965.5 c 128,-1,45
 1122 862 1122 862 1122 743 c 0,26,27
1057 743 m 0,46,47
 1057 844 1057 844 1018 934 c 128,-1,48
 979 1024 979 1024 912.5 1091.5 c 128,-1,49
 846 1159 846 1159 756 1199 c 128,-1,50
 666 1239 666 1239 563 1239 c 0,51,52
 461 1239 461 1239 371 1200 c 128,-1,53
 281 1161 281 1161 213 1094.5 c 128,-1,54
 145 1028 145 1028 106.5 938 c 128,-1,55
 68 848 68 848 68 743 c 0,56,57
 68 639 68 639 106.5 549 c 128,-1,58
 145 459 145 459 212 392.5 c 128,-1,59
 279 326 279 326 369 288 c 128,-1,60
 459 250 459 250 563 250 c 0,61,62
 664 250 664 250 754 288 c 128,-1,63
 844 326 844 326 911.5 392.5 c 128,-1,64
 979 459 979 459 1018 549 c 128,-1,65
 1057 639 1057 639 1057 743 c 0,46,47
EndSplineSet
EndChar

StartChar: trademark
Encoding: 8482 8482 138
Width: 1118
Flags: W
LayerCount: 2
Back
Fore
SplineSet
1118 745 m 1,0,-1
 1008 745 l 1,1,-1
 1008 1139 l 1,2,-1
 879 805 l 1,3,-1
 801 805 l 1,4,-1
 672 1139 l 1,5,-1
 672 745 l 1,6,-1
 561 745 l 1,7,-1
 561 1305 l 1,8,-1
 719 1305 l 1,9,-1
 840 977 l 1,10,-1
 961 1305 l 1,11,-1
 1118 1305 l 1,12,-1
 1118 745 l 1,0,-1
465 1192 m 1,13,-1
 289 1192 l 1,14,-1
 289 745 l 1,15,-1
 176 745 l 1,16,-1
 176 1192 l 1,17,-1
 0 1192 l 1,18,-1
 0 1305 l 1,19,-1
 465 1305 l 1,20,-1
 465 1192 l 1,13,-1
EndSplineSet
EndChar

StartChar: acute
Encoding: 180 180 139
Width: 1118
Flags: W
LayerCount: 2
Back
Fore
SplineSet
711 1255 m 1,0,-1
 279 1012 l 1,1,-1
 242 1077 l 1,2,-1
 645 1364 l 1,3,-1
 711 1255 l 1,0,-1
EndSplineSet
EndChar

StartChar: dieresis
Encoding: 168 168 140
Width: 1118
Flags: W
LayerCount: 2
Back
Fore
SplineSet
745 1118 m 1,0,-1
 559 1118 l 1,1,-1
 559 1305 l 1,2,-1
 745 1305 l 1,3,-1
 745 1118 l 1,0,-1
373 1118 m 1,4,-1
 186 1118 l 1,5,-1
 186 1305 l 1,6,-1
 373 1305 l 1,7,-1
 373 1118 l 1,4,-1
EndSplineSet
EndChar

StartChar: notequal
Encoding: 8800 8800 141
Width: 1118
Flags: W
LayerCount: 2
Back
Fore
SplineSet
932 187 m 1,0,-1
 387 187 l 1,1,-1
 297 0 l 1,2,-1
 186 0 l 1,3,-1
 276 187 l 1,4,-1
 0 187 l 1,5,-1
 0 299 l 1,6,-1
 330 299 l 1,7,-1
 492 635 l 1,8,-1
 0 635 l 1,9,-1
 0 746 l 1,10,-1
 545 746 l 1,11,-1
 635 932 l 1,12,-1
 745 932 l 1,13,-1
 655 746 l 1,14,-1
 932 746 l 1,15,-1
 932 635 l 1,16,-1
 602 635 l 1,17,-1
 440 299 l 1,18,-1
 932 299 l 1,19,-1
 932 187 l 1,0,-1
EndSplineSet
EndChar

StartChar: AE
Encoding: 198 198 142
Width: 1118
Flags: W
LayerCount: 2
Back
Fore
SplineSet
932 0 m 1,0,-1
 426 0 l 1,1,-1
 426 373 l 1,2,-1
 193 373 l 1,3,-1
 82 0 l 1,4,-1
 -63 0 l 1,5,-1
 332 1305 l 1,6,-1
 932 1305 l 1,7,-1
 932 1184 l 1,8,-1
 565 1184 l 1,9,-1
 565 727 l 1,10,-1
 842 727 l 1,11,-1
 842 606 l 1,12,-1
 565 606 l 1,13,-1
 565 123 l 1,14,-1
 932 123 l 1,15,-1
 932 0 l 1,0,-1
426 494 m 1,16,-1
 426 1153 l 1,17,-1
 229 494 l 1,18,-1
 426 494 l 1,16,-1
EndSplineSet
EndChar

StartChar: Oslash
Encoding: 216 216 143
Width: 1118
Flags: W
LayerCount: 2
Back
Fore
SplineSet
-45 188 m 1,0,-1
 33 272 l 1,1,2
 -2 356 -2 356 -17.5 451.5 c 128,-1,3
 -33 547 -33 547 -33 651 c 0,4,5
 -33 782 -33 782 -6.5 904 c 128,-1,6
 20 1026 20 1026 80.5 1120 c 128,-1,7
 141 1214 141 1214 236.5 1270.5 c 128,-1,8
 332 1327 332 1327 467 1327 c 0,9,10
 598 1327 598 1327 691 1274 c 128,-1,11
 784 1221 784 1221 844 1130 c 1,12,-1
 979 1276 l 1,13,-1
 979 1116 l 1,14,-1
 897 1030 l 1,15,16
 932 946 932 946 949.5 851 c 128,-1,17
 967 756 967 756 967 651 c 0,18,19
 967 520 967 520 940 398 c 128,-1,20
 913 276 913 276 854 183 c 128,-1,21
 795 90 795 90 699.5 33.5 c 128,-1,22
 604 -23 604 -23 467 -23 c 0,23,24
 332 -23 332 -23 239.5 28.5 c 128,-1,25
 147 80 147 80 88 170 c 1,26,-1
 -45 29 l 1,27,-1
 -45 188 l 1,0,-1
829 651 m 0,28,29
 829 801 829 801 795 922 c 1,30,-1
 180 268 l 1,31,32
 221 190 221 190 290.5 142 c 128,-1,33
 360 94 360 94 467 94 c 0,34,35
 573 94 573 94 643 144.5 c 128,-1,36
 713 195 713 195 755 274.5 c 128,-1,37
 797 354 797 354 813 453.5 c 128,-1,38
 829 553 829 553 829 651 c 0,28,29
104 651 m 0,39,40
 104 582 104 582 111.5 513 c 128,-1,41
 119 444 119 444 137 381 c 1,42,-1
 750 1032 l 1,43,44
 702 1118 702 1118 631.5 1164 c 128,-1,45
 561 1210 561 1210 467 1210 c 0,46,47
 360 1210 360 1210 290.5 1160 c 128,-1,48
 221 1110 221 1110 179 1029 c 128,-1,49
 137 948 137 948 120.5 849 c 128,-1,50
 104 750 104 750 104 651 c 0,39,40
EndSplineSet
EndChar

StartChar: infinity
Encoding: 8734 8734 144
Width: 1118
Flags: W
LayerCount: 2
Back
Fore
SplineSet
950 465 m 256,0,1
 950 414 950 414 932.5 369 c 128,-1,2
 915 324 915 324 883.5 291 c 128,-1,3
 852 258 852 258 808 239 c 128,-1,4
 764 220 764 220 713 220 c 0,5,6
 641 220 641 220 582.5 253.5 c 128,-1,7
 524 287 524 287 471 377 c 1,8,9
 418 289 418 289 362.5 254.5 c 128,-1,10
 307 220 307 220 229 220 c 0,11,12
 180 220 180 220 137 239 c 128,-1,13
 94 258 94 258 61.5 291 c 128,-1,14
 29 324 29 324 10.5 369 c 128,-1,15
 -8 414 -8 414 -8 465 c 256,16,17
 -8 516 -8 516 10.5 561.5 c 128,-1,18
 29 607 29 607 60.5 639.5 c 128,-1,19
 92 672 92 672 135 690.5 c 128,-1,20
 178 709 178 709 229 709 c 0,21,22
 307 709 307 709 362.5 674 c 128,-1,23
 418 639 418 639 471 549 c 1,24,25
 524 639 524 639 582.5 674 c 128,-1,26
 641 709 641 709 713 709 c 0,27,28
 762 709 762 709 805 690.5 c 128,-1,29
 848 672 848 672 880.5 639.5 c 128,-1,30
 913 607 913 607 931.5 561.5 c 128,-1,31
 950 516 950 516 950 465 c 256,0,1
860 465 m 0,32,33
 860 537 860 537 817 579 c 128,-1,34
 774 621 774 621 715 621 c 0,35,36
 588 621 588 621 514 465 c 1,37,38
 588 306 588 306 715 306 c 0,39,40
 774 306 774 306 816 353 c 128,-1,41
 858 400 858 400 860 465 c 0,32,33
428 465 m 1,42,43
 358 621 358 621 227 621 c 0,44,45
 168 621 168 621 125 577 c 128,-1,46
 82 533 82 533 82 465 c 0,47,48
 82 400 82 400 123 353 c 128,-1,49
 164 306 164 306 227 306 c 0,50,51
 356 306 356 306 428 465 c 1,42,43
EndSplineSet
EndChar

StartChar: plusminus
Encoding: 177 177 145
Width: 1118
Flags: W
LayerCount: 2
Back
Fore
SplineSet
932 422 m 1,0,-1
 522 422 l 1,1,-1
 522 0 l 1,2,-1
 410 0 l 1,3,-1
 410 422 l 1,4,-1
 0 422 l 1,5,-1
 0 535 l 1,6,-1
 410 535 l 1,7,-1
 410 944 l 1,8,-1
 522 944 l 1,9,-1
 522 535 l 1,10,-1
 932 535 l 1,11,-1
 932 422 l 1,0,-1
932 -186 m 1,12,-1
 0 -186 l 1,13,-1
 0 -73 l 1,14,-1
 932 -73 l 1,15,-1
 932 -186 l 1,12,-1
EndSplineSet
EndChar

StartChar: lessequal
Encoding: 8804 8804 146
Width: 1118
Flags: W
LayerCount: 2
Back
Fore
SplineSet
788 45 m 1,0,-1
 711 -32 l 1,1,-1
 199 478 l 1,2,-1
 711 990 l 1,3,-1
 788 912 l 1,4,-1
 356 478 l 1,5,-1
 788 45 l 1,0,-1
932 -186 m 1,6,-1
 186 -186 l 1,7,-1
 186 -73 l 1,8,-1
 932 -73 l 1,9,-1
 932 -186 l 1,6,-1
EndSplineSet
EndChar

StartChar: greaterequal
Encoding: 8805 8805 147
Width: 1118
Flags: W
LayerCount: 2
Back
Fore
SplineSet
920 478 m 1,0,-1
 408 -32 l 1,1,-1
 330 45 l 1,2,-1
 762 478 l 1,3,-1
 330 912 l 1,4,-1
 408 990 l 1,5,-1
 920 478 l 1,0,-1
932 -186 m 1,6,-1
 186 -186 l 1,7,-1
 186 -73 l 1,8,-1
 932 -73 l 1,9,-1
 932 -186 l 1,6,-1
EndSplineSet
EndChar

StartChar: yen
Encoding: 165 165 148
Width: 1118
Flags: W
LayerCount: 2
Back
Fore
SplineSet
932 408 m 1,0,-1
 535 408 l 1,1,-1
 535 0 l 1,2,-1
 399 0 l 1,3,-1
 399 408 l 1,4,-1
 0 408 l 1,5,-1
 0 528 l 1,6,-1
 399 528 l 1,7,-1
 399 563 l 1,8,-1
 291 778 l 1,9,-1
 0 778 l 1,10,-1
 0 899 l 1,11,-1
 229 899 l 1,12,-1
 25 1305 l 1,13,-1
 178 1305 l 1,14,-1
 467 709 l 1,15,-1
 469 709 l 1,16,-1
 758 1305 l 1,17,-1
 911 1305 l 1,18,-1
 707 899 l 1,19,-1
 932 899 l 1,20,-1
 932 778 l 1,21,-1
 645 778 l 1,22,-1
 535 563 l 1,23,-1
 535 528 l 1,24,-1
 932 528 l 1,25,-1
 932 408 l 1,0,-1
EndSplineSet
EndChar

StartChar: mu
Encoding: 181 181 149
Width: 1118
Flags: W
LayerCount: 2
Back
Fore
SplineSet
883 0 m 1,0,-1
 745 0 l 1,1,-1
 745 236 l 1,2,3
 649 -23 649 -23 393 -23 c 0,4,5
 270 -23 270 -23 186 33 c 1,6,-1
 186 -373 l 1,7,-1
 49 -373 l 1,8,-1
 49 932 l 1,9,-1
 186 932 l 1,10,-1
 186 358 l 2,11,12
 186 233 186 233 240.5 163.5 c 128,-1,13
 295 94 295 94 416 94 c 0,14,15
 492 94 492 94 553 129 c 128,-1,16
 614 164 614 164 657 222.5 c 128,-1,17
 700 281 700 281 722.5 356.5 c 128,-1,18
 745 432 745 432 745 514 c 2,19,-1
 745 932 l 1,20,-1
 883 932 l 1,21,-1
 883 0 l 1,0,-1
EndSplineSet
EndChar

StartChar: partialdiff
Encoding: 8706 8706 150
Width: 1118
Flags: W
LayerCount: 2
Back
Fore
SplineSet
-20 354 m 0,0,1
 -20 459 -20 459 38 540 c 128,-1,2
 96 621 96 621 197.5 682 c 128,-1,3
 299 743 299 743 435 785 c 128,-1,4
 571 827 571 827 727 852 c 1,5,6
 649 977 649 977 517 1064 c 128,-1,7
 385 1151 385 1151 219 1210 c 1,8,-1
 264 1327 l 1,9,10
 399 1274 399 1274 524 1205.5 c 128,-1,11
 649 1137 649 1137 743.5 1042.5 c 128,-1,12
 838 948 838 948 894 824 c 128,-1,13
 950 700 950 700 950 537 c 0,14,15
 950 408 950 408 914.5 304.5 c 128,-1,16
 879 201 879 201 811 128 c 128,-1,17
 743 55 743 55 647 16 c 128,-1,18
 551 -23 551 -23 430 -23 c 0,19,20
 225 -23 225 -23 102.5 73.5 c 128,-1,21
 -20 170 -20 170 -20 354 c 0,0,1
813 537 m 0,22,23
 813 592 813 592 805 642 c 128,-1,24
 797 692 797 692 780 739 c 1,25,26
 635 723 635 723 513 688 c 128,-1,27
 391 653 391 653 303 604 c 128,-1,28
 215 555 215 555 166 492.5 c 128,-1,29
 117 430 117 430 117 354 c 0,30,31
 117 238 117 238 201 166 c 128,-1,32
 285 94 285 94 430 94 c 0,33,34
 522 94 522 94 593 126 c 128,-1,35
 664 158 664 158 713 216 c 128,-1,36
 762 274 762 274 787.5 356 c 128,-1,37
 813 438 813 438 813 537 c 0,22,23
EndSplineSet
EndChar

StartChar: summation
Encoding: 8721 8721 151
Width: 1118
Flags: W
LayerCount: 2
Back
Fore
SplineSet
883 0 m 1,0,-1
 43 0 l 1,1,-1
 43 117 l 1,2,-1
 371 653 l 1,3,-1
 43 1188 l 1,4,-1
 43 1305 l 1,5,-1
 883 1305 l 1,6,-1
 883 864 l 1,7,-1
 762 864 l 1,8,-1
 762 1188 l 1,9,-1
 207 1188 l 1,10,-1
 532 653 l 1,11,-1
 207 117 l 1,12,-1
 762 117 l 1,13,-1
 762 442 l 1,14,-1
 883 442 l 1,15,-1
 883 0 l 1,0,-1
EndSplineSet
EndChar

StartChar: product
Encoding: 8719 8719 152
Width: 1118
Flags: W
LayerCount: 2
Back
Fore
SplineSet
932 1188 m 1,0,-1
 745 1188 l 1,1,-1
 745 0 l 1,2,-1
 608 0 l 1,3,-1
 608 1188 l 1,4,-1
 324 1188 l 1,5,-1
 324 0 l 1,6,-1
 186 0 l 1,7,-1
 186 1188 l 1,8,-1
 0 1188 l 1,9,-1
 0 1305 l 1,10,-1
 932 1305 l 1,11,-1
 932 1188 l 1,0,-1
EndSplineSet
EndChar

StartChar: pi
Encoding: 960 960 153
Width: 1118
Flags: W
LayerCount: 2
Back
Fore
SplineSet
721 207 m 2,0,1
 721 154 721 154 756 126 c 128,-1,2
 791 98 791 98 842 98 c 0,3,4
 870 98 870 98 887.5 102 c 128,-1,5
 905 106 905 106 920 115 c 1,6,-1
 946 2 l 1,7,8
 905 -23 905 -23 823 -23 c 0,9,10
 778 -23 778 -23 735 -7.5 c 128,-1,11
 692 8 692 8 658.5 37 c 128,-1,12
 625 66 625 66 604.5 109 c 128,-1,13
 584 152 584 152 584 207 c 2,14,-1
 584 809 l 1,15,-1
 348 809 l 1,16,17
 348 412 348 412 305 0 c 1,18,-1
 166 0 l 1,19,20
 188 201 188 201 199.5 402.5 c 128,-1,21
 211 604 211 604 211 809 c 1,22,-1
 0 809 l 1,23,-1
 0 932 l 1,24,-1
 932 932 l 1,25,-1
 932 809 l 1,26,-1
 721 809 l 1,27,-1
 721 207 l 2,0,1
EndSplineSet
EndChar

StartChar: integral
Encoding: 8747 8747 154
Width: 1118
Flags: W
LayerCount: 2
Back
Fore
SplineSet
932 1575 m 1,0,1
 903 1579 903 1579 871.5 1580 c 128,-1,2
 840 1581 840 1581 799 1581 c 0,3,4
 670 1581 670 1581 602.5 1520.5 c 128,-1,5
 535 1460 535 1460 535 1317 c 2,6,-1
 535 -16 l 2,7,8
 535 -395 535 -395 137 -395 c 0,9,10
 106 -395 106 -395 72.5 -393 c 128,-1,11
 39 -391 39 -391 4 -387 c 1,12,-1
 4 -272 l 1,13,14
 33 -276 33 -276 62.5 -277.5 c 128,-1,15
 92 -279 92 -279 137 -279 c 0,16,17
 264 -279 264 -279 330.5 -218.5 c 128,-1,18
 397 -158 397 -158 397 -16 c 2,19,-1
 397 1317 l 2,20,21
 397 1698 397 1698 799 1698 c 0,22,23
 829 1698 829 1698 863 1695 c 128,-1,24
 897 1692 897 1692 932 1688 c 1,25,-1
 932 1575 l 1,0,1
EndSplineSet
EndChar

StartChar: ordfeminine
Encoding: 170 170 155
Width: 1118
Flags: W
LayerCount: 2
Back
Fore
SplineSet
-8 760 m 0,0,1
 -8 829 -8 829 26.5 878.5 c 128,-1,2
 61 928 61 928 119.5 958.5 c 128,-1,3
 178 989 178 989 251 1002.5 c 128,-1,4
 324 1016 324 1016 401 1016 c 0,5,6
 432 1016 432 1016 450.5 1016 c 128,-1,7
 469 1016 469 1016 484.5 1014 c 128,-1,8
 500 1012 500 1012 516 1010 c 128,-1,9
 532 1008 532 1008 559 1004 c 1,10,-1
 559 1079 l 2,11,12
 559 1116 559 1116 539.5 1140.5 c 128,-1,13
 520 1165 520 1165 492.5 1179.5 c 128,-1,14
 465 1194 465 1194 432 1200 c 128,-1,15
 399 1206 399 1206 373 1206 c 0,16,17
 287 1206 287 1206 220.5 1188.5 c 128,-1,18
 154 1171 154 1171 90 1126 c 1,19,-1
 35 1235 l 1,20,21
 96 1276 96 1276 177 1299.5 c 128,-1,22
 258 1323 258 1323 373 1323 c 0,23,24
 434 1323 434 1323 492.5 1309.5 c 128,-1,25
 551 1296 551 1296 597 1266.5 c 128,-1,26
 643 1237 643 1237 671.5 1191 c 128,-1,27
 700 1145 700 1145 700 1079 c 2,28,-1
 700 559 l 1,29,-1
 559 559 l 1,30,-1
 559 670 l 1,31,32
 442 541 442 541 274 541 c 0,33,34
 213 541 213 541 162 555 c 128,-1,35
 111 569 111 569 73 598 c 128,-1,36
 35 627 35 627 13.5 667 c 128,-1,37
 -8 707 -8 707 -8 760 c 0,0,1
274 657 m 0,38,39
 342 657 342 657 395.5 673.5 c 128,-1,40
 449 690 449 690 484.5 713.5 c 128,-1,41
 520 737 520 737 539.5 764 c 128,-1,42
 559 791 559 791 559 813 c 2,43,-1
 559 893 l 1,44,45
 506 901 506 901 472 902 c 128,-1,46
 438 903 438 903 401 903 c 0,47,48
 283 903 283 903 208 869.5 c 128,-1,49
 133 836 133 836 133 760 c 0,50,51
 133 715 133 715 169 686 c 128,-1,52
 205 657 205 657 274 657 c 0,38,39
700 256 m 1,53,-1
 0 256 l 1,54,-1
 0 373 l 1,55,-1
 700 373 l 1,56,-1
 700 256 l 1,53,-1
EndSplineSet
EndChar

StartChar: ordmasculine
Encoding: 186 186 156
Width: 1118
Flags: W
LayerCount: 2
Back
Fore
SplineSet
766 932 m 0,0,1
 766 846 766 846 735.5 773 c 128,-1,2
 705 700 705 700 652.5 649 c 128,-1,3
 600 598 600 598 527.5 569.5 c 128,-1,4
 455 541 455 541 373 541 c 0,5,6
 289 541 289 541 218 568.5 c 128,-1,7
 147 596 147 596 94 647 c 128,-1,8
 41 698 41 698 11.5 770 c 128,-1,9
 -18 842 -18 842 -18 932 c 0,10,11
 -18 1020 -18 1020 11.5 1092.5 c 128,-1,12
 41 1165 41 1165 94 1217.5 c 128,-1,13
 147 1270 147 1270 218 1297.5 c 128,-1,14
 289 1325 289 1325 373 1325 c 0,15,16
 455 1325 455 1325 527.5 1297.5 c 128,-1,17
 600 1270 600 1270 652.5 1217.5 c 128,-1,18
 705 1165 705 1165 735.5 1092.5 c 128,-1,19
 766 1020 766 1020 766 932 c 0,0,1
629 932 m 0,20,21
 629 993 629 993 608.5 1044.5 c 128,-1,22
 588 1096 588 1096 553 1132.5 c 128,-1,23
 518 1169 518 1169 472 1188.5 c 128,-1,24
 426 1208 426 1208 373 1208 c 0,25,26
 319 1208 319 1208 273 1188.5 c 128,-1,27
 227 1169 227 1169 192.5 1132.5 c 128,-1,28
 158 1096 158 1096 138.5 1044.5 c 128,-1,29
 119 993 119 993 119 932 c 0,30,31
 119 807 119 807 190.5 732 c 128,-1,32
 262 657 262 657 373 657 c 0,33,34
 428 657 428 657 474 676.5 c 128,-1,35
 520 696 520 696 555 732 c 128,-1,36
 590 768 590 768 609.5 819 c 128,-1,37
 629 870 629 870 629 932 c 0,20,21
745 256 m 1,38,-1
 0 256 l 1,39,-1
 0 373 l 1,40,-1
 745 373 l 1,41,-1
 745 256 l 1,38,-1
EndSplineSet
EndChar

StartChar: Omega
Encoding: 8486 8486 157
Width: 1118
Flags: W
LayerCount: 2
Back
Fore
SplineSet
956 741 m 0,0,1
 956 596 956 596 901 460 c 128,-1,2
 846 324 846 324 721 231 c 1,3,-1
 721 117 l 1,4,-1
 932 117 l 1,5,-1
 932 0 l 1,6,-1
 584 0 l 1,7,-1
 584 291 l 1,8,9
 651 317 651 317 696 368.5 c 128,-1,10
 741 420 741 420 769 481.5 c 128,-1,11
 797 543 797 543 808 610.5 c 128,-1,12
 819 678 819 678 819 741 c 0,13,14
 819 823 819 823 799.5 907 c 128,-1,15
 780 991 780 991 737 1059.5 c 128,-1,16
 694 1128 694 1128 627.5 1171 c 128,-1,17
 561 1214 561 1214 467 1214 c 0,18,19
 377 1214 377 1214 310.5 1171 c 128,-1,20
 244 1128 244 1128 201 1059.5 c 128,-1,21
 158 991 158 991 137.5 907 c 128,-1,22
 117 823 117 823 117 741 c 0,23,24
 117 678 117 678 128 610.5 c 128,-1,25
 139 543 139 543 166 481.5 c 128,-1,26
 193 420 193 420 237 368.5 c 128,-1,27
 281 317 281 317 348 291 c 1,28,-1
 348 0 l 1,29,-1
 0 0 l 1,30,-1
 0 117 l 1,31,-1
 211 117 l 1,32,-1
 211 231 l 1,33,34
 90 317 90 317 35 454.5 c 128,-1,35
 -20 592 -20 592 -20 741 c 0,36,37
 -20 854 -20 854 11.5 960.5 c 128,-1,38
 43 1067 43 1067 104.5 1148 c 128,-1,39
 166 1229 166 1229 257 1278 c 128,-1,40
 348 1327 348 1327 467 1327 c 256,41,42
 586 1327 586 1327 677 1278 c 128,-1,43
 768 1229 768 1229 830.5 1148 c 128,-1,44
 893 1067 893 1067 924.5 960.5 c 128,-1,45
 956 854 956 854 956 741 c 0,0,1
EndSplineSet
EndChar

StartChar: ae
Encoding: 230 230 158
Width: 1118
Flags: W
LayerCount: 2
Back
Fore
SplineSet
449 170 m 1,0,1
 436 135 436 135 414.5 101.5 c 128,-1,2
 393 68 393 68 362.5 40 c 128,-1,3
 332 12 332 12 293 -5.5 c 128,-1,4
 254 -23 254 -23 205 -23 c 0,5,6
 88 -23 88 -23 25.5 56 c 128,-1,7
 -37 135 -37 135 -37 254 c 0,8,9
 -37 334 -37 334 -8.5 392.5 c 128,-1,10
 20 451 20 451 66.5 487.5 c 128,-1,11
 113 524 113 524 173 541.5 c 128,-1,12
 233 559 233 559 297 559 c 0,13,14
 319 559 319 559 343 558 c 128,-1,15
 367 557 367 557 389 553 c 1,16,-1
 389 649 l 2,17,18
 389 725 389 725 354 782.5 c 128,-1,19
 319 840 319 840 248 840 c 0,20,21
 207 840 207 840 160 804 c 128,-1,22
 113 768 113 768 78 709 c 1,23,-1
 -8 793 l 1,24,25
 18 836 18 836 53 866.5 c 128,-1,26
 88 897 88 897 123 916.5 c 128,-1,27
 158 936 158 936 190.5 945 c 128,-1,28
 223 954 223 954 248 954 c 0,29,30
 326 954 326 954 382 919.5 c 128,-1,31
 438 885 438 885 461 807 c 1,32,33
 489 885 489 885 555 919.5 c 128,-1,34
 621 954 621 954 690 954 c 0,35,36
 782 954 782 954 835.5 898 c 128,-1,37
 889 842 889 842 914.5 760 c 128,-1,38
 940 678 940 678 947 585 c 128,-1,39
 954 492 954 492 954 418 c 1,40,-1
 526 418 l 1,41,42
 526 252 526 252 565 178 c 128,-1,43
 604 104 604 104 682 104 c 0,44,45
 729 104 729 104 765 133 c 128,-1,46
 801 162 801 162 819 227 c 1,47,-1
 936 190 l 1,48,49
 901 82 901 82 838.5 29.5 c 128,-1,50
 776 -23 776 -23 674 -23 c 0,51,52
 598 -23 598 -23 534.5 27.5 c 128,-1,53
 471 78 471 78 449 170 c 1,0,1
807 539 m 1,54,55
 807 702 807 702 775 771 c 128,-1,56
 743 840 743 840 672 840 c 0,57,58
 606 840 606 840 566 773.5 c 128,-1,59
 526 707 526 707 526 539 c 1,60,-1
 807 539 l 1,54,55
389 438 m 1,61,62
 377 440 377 440 354.5 441 c 128,-1,63
 332 442 332 442 309 442 c 0,64,65
 223 442 223 442 161.5 394 c 128,-1,66
 100 346 100 346 100 244 c 0,67,68
 100 190 100 190 130 147 c 128,-1,69
 160 104 160 104 219 104 c 0,70,71
 252 104 252 104 282.5 119.5 c 128,-1,72
 313 135 313 135 336.5 161.5 c 128,-1,73
 360 188 360 188 374.5 224 c 128,-1,74
 389 260 389 260 389 301 c 2,75,-1
 389 438 l 1,61,62
EndSplineSet
EndChar

StartChar: oslash
Encoding: 248 248 159
Width: 1118
Flags: W
LayerCount: 2
Back
Fore
SplineSet
-43 119 m 1,0,-1
 49 193 l 1,1,2
 -20 309 -20 309 -20 463 c 0,3,4
 -20 569 -20 569 14.5 660.5 c 128,-1,5
 49 752 49 752 113.5 816.5 c 128,-1,6
 178 881 178 881 268 917.5 c 128,-1,7
 358 954 358 954 467 954 c 0,8,9
 580 954 580 954 670 916.5 c 128,-1,10
 760 879 760 879 825 811 c 1,11,-1
 977 932 l 1,12,-1
 977 813 l 1,13,-1
 883 737 l 1,14,15
 956 616 956 616 956 463 c 0,16,17
 956 354 956 354 921.5 265 c 128,-1,18
 887 176 887 176 822.5 112.5 c 128,-1,19
 758 49 758 49 668 13 c 128,-1,20
 578 -23 578 -23 467 -23 c 0,21,22
 354 -23 354 -23 263 14 c 128,-1,23
 172 51 172 51 106 119 c 1,24,-1
 -43 0 l 1,25,-1
 -43 119 l 1,0,-1
819 463 m 0,26,27
 819 569 819 569 776 653 c 1,28,-1
 209 201 l 1,29,30
 256 152 256 152 319.5 123 c 128,-1,31
 383 94 383 94 467 94 c 0,32,33
 549 94 549 94 614.5 122 c 128,-1,34
 680 150 680 150 726 199 c 128,-1,35
 772 248 772 248 795.5 315.5 c 128,-1,36
 819 383 819 383 819 463 c 0,26,27
117 463 m 0,37,38
 117 356 117 356 156 279 c 1,39,-1
 725 731 l 1,40,41
 678 780 678 780 613.5 809 c 128,-1,42
 549 838 549 838 467 838 c 256,43,44
 385 838 385 838 319.5 809 c 128,-1,45
 254 780 254 780 209 729 c 128,-1,46
 164 678 164 678 140.5 610.5 c 128,-1,47
 117 543 117 543 117 463 c 0,37,38
EndSplineSet
EndChar

StartChar: questiondown
Encoding: 191 191 160
Width: 1118
Flags: W
LayerCount: 2
Back
Fore
SplineSet
559 1305 m 1,0,-1
 745 1305 l 1,1,-1
 745 1118 l 1,2,-1
 559 1118 l 1,3,-1
 559 1305 l 1,0,-1
209 283 m 0,4,5
 209 360 209 360 237.5 418.5 c 128,-1,6
 266 477 266 477 309 526 c 128,-1,7
 352 575 352 575 403.5 618.5 c 128,-1,8
 455 662 455 662 498 708 c 128,-1,9
 541 754 541 754 569.5 808 c 128,-1,10
 598 862 598 862 598 932 c 1,11,-1
 743 932 l 1,12,13
 743 854 743 854 713.5 792.5 c 128,-1,14
 684 731 684 731 641 678 c 128,-1,15
 598 625 598 625 546 577.5 c 128,-1,16
 494 530 494 530 451 484 c 128,-1,17
 408 438 408 438 378 389 c 128,-1,18
 348 340 348 340 348 283 c 0,19,20
 348 195 348 195 402.5 144.5 c 128,-1,21
 457 94 457 94 559 94 c 0,22,23
 686 94 686 94 749.5 169 c 128,-1,24
 813 244 813 244 827 358 c 1,25,-1
 950 340 l 1,26,27
 932 172 932 172 834.5 74.5 c 128,-1,28
 737 -23 737 -23 561 -23 c 0,29,30
 395 -23 395 -23 302 62 c 128,-1,31
 209 147 209 147 209 283 c 0,4,5
EndSplineSet
EndChar

StartChar: exclamdown
Encoding: 161 161 161
Width: 1118
Flags: W
LayerCount: 2
Back
Fore
SplineSet
561 0 m 1,0,-1
 612 938 l 1,1,-1
 694 938 l 1,2,-1
 745 0 l 1,3,-1
 561 0 l 1,0,-1
559 1305 m 1,4,-1
 745 1305 l 1,5,-1
 745 1118 l 1,6,-1
 559 1118 l 1,7,-1
 559 1305 l 1,4,-1
EndSplineSet
EndChar

StartChar: logicalnot
Encoding: 172 172 162
Width: 1118
Flags: W
LayerCount: 2
Back
Fore
SplineSet
932 0 m 1,0,-1
 819 0 l 1,1,-1
 819 447 l 1,2,-1
 0 447 l 1,3,-1
 0 559 l 1,4,-1
 932 559 l 1,5,-1
 932 0 l 1,0,-1
EndSplineSet
EndChar

StartChar: radical
Encoding: 8730 8730 163
Width: 1118
Flags: W
LayerCount: 2
Back
Fore
SplineSet
932 1008 m 1,0,-1
 647 1008 l 1,1,-1
 346 0 l 1,2,-1
 242 0 l 1,3,-1
 23 725 l 1,4,-1
 129 758 l 1,5,-1
 295 164 l 1,6,-1
 565 1118 l 1,7,-1
 932 1118 l 1,8,-1
 932 1008 l 1,0,-1
EndSplineSet
EndChar

StartChar: florin
Encoding: 402 402 164
Width: 1118
Flags: W
LayerCount: 2
Back
Fore
SplineSet
932 932 m 1,0,-1
 932 815 l 1,1,-1
 535 815 l 1,2,-1
 535 -16 l 2,3,4
 535 -395 535 -395 137 -395 c 0,5,6
 106 -395 106 -395 72.5 -393 c 128,-1,7
 39 -391 39 -391 4 -387 c 1,8,-1
 4 -272 l 1,9,10
 33 -276 33 -276 62.5 -277.5 c 128,-1,11
 92 -279 92 -279 137 -279 c 0,12,13
 264 -279 264 -279 330.5 -218.5 c 128,-1,14
 397 -158 397 -158 397 -16 c 2,15,-1
 397 815 l 1,16,-1
 186 815 l 1,17,-1
 186 932 l 1,18,-1
 397 932 l 1,19,20
 397 1124 397 1124 496.5 1223.5 c 128,-1,21
 596 1323 596 1323 797 1323 c 0,22,23
 844 1323 844 1323 876.5 1320 c 128,-1,24
 909 1317 909 1317 932 1313 c 1,25,-1
 932 1196 l 1,26,27
 903 1200 903 1200 871.5 1203 c 128,-1,28
 840 1206 840 1206 797 1206 c 0,29,30
 666 1206 666 1206 600.5 1141.5 c 128,-1,31
 535 1077 535 1077 535 932 c 1,32,-1
 932 932 l 1,0,-1
EndSplineSet
EndChar

StartChar: approxequal
Encoding: 8776 8776 165
Width: 1118
Flags: W
LayerCount: 2
Back
Fore
SplineSet
952 719 m 1,0,1
 838 519 838 519 641 519 c 0,2,3
 567 519 567 519 523 541.5 c 128,-1,4
 479 564 479 564 444.5 591.5 c 128,-1,5
 410 619 410 619 376 641.5 c 128,-1,6
 342 664 342 664 291 664 c 0,7,8
 162 664 162 664 80 527 c 1,9,-1
 -20 586 l 1,10,11
 94 783 94 783 291 783 c 0,12,13
 365 783 365 783 410 759.5 c 128,-1,14
 455 736 455 736 489.5 708 c 128,-1,15
 524 680 524 680 558 657.5 c 128,-1,16
 592 635 592 635 641 635 c 0,17,18
 770 635 770 635 852 779 c 1,19,-1
 952 719 l 1,0,1
952 344 m 1,20,21
 838 144 838 144 641 144 c 0,22,23
 567 144 567 144 523 166.5 c 128,-1,24
 479 189 479 189 444.5 216.5 c 128,-1,25
 410 244 410 244 376 266.5 c 128,-1,26
 342 289 342 289 291 289 c 0,27,28
 162 289 162 289 80 152 c 1,29,-1
 -20 211 l 1,30,31
 94 408 94 408 291 408 c 0,32,33
 365 408 365 408 410 384.5 c 128,-1,34
 455 361 455 361 489.5 333.5 c 128,-1,35
 524 306 524 306 558 283 c 128,-1,36
 592 260 592 260 641 260 c 0,37,38
 770 260 770 260 852 404 c 1,39,-1
 952 344 l 1,20,21
EndSplineSet
EndChar

StartChar: Delta
Encoding: 8710 8710 166
Width: 1118
Flags: W
LayerCount: 2
Back
Fore
SplineSet
995 0 m 1,0,-1
 -59 0 l 1,1,-1
 375 1305 l 1,2,-1
 561 1305 l 1,3,-1
 995 0 l 1,0,-1
809 117 m 1,4,-1
 467 1165 l 1,5,-1
 125 117 l 1,6,-1
 809 117 l 1,4,-1
EndSplineSet
EndChar

StartChar: guillemotleft
Encoding: 171 171 167
Width: 1118
Flags: W
LayerCount: 2
Back
Fore
SplineSet
788 229 m 1,0,-1
 711 150 l 1,1,-1
 385 477 l 1,2,-1
 711 807 l 1,3,-1
 788 727 l 1,4,-1
 543 477 l 1,5,-1
 788 229 l 1,0,-1
418 229 m 1,6,-1
 338 150 l 1,7,-1
 14 477 l 1,8,-1
 338 807 l 1,9,-1
 418 727 l 1,10,-1
 170 477 l 1,11,-1
 418 229 l 1,6,-1
EndSplineSet
EndChar

StartChar: guillemotright
Encoding: 187 187 168
Width: 1118
Flags: W
LayerCount: 2
Back
Fore
SplineSet
920 477 m 1,0,-1
 592 150 l 1,1,-1
 514 227 l 1,2,-1
 762 477 l 1,3,-1
 514 727 l 1,4,-1
 592 805 l 1,5,-1
 920 477 l 1,0,-1
545 477 m 1,6,-1
 221 150 l 1,7,-1
 141 227 l 1,8,-1
 389 477 l 1,9,-1
 141 727 l 1,10,-1
 221 805 l 1,11,-1
 545 477 l 1,6,-1
EndSplineSet
EndChar

StartChar: ellipsis
Encoding: 8230 8230 169
Width: 1118
Flags: W
LayerCount: 2
Back
Fore
SplineSet
932 0 m 1,0,-1
 745 0 l 1,1,-1
 745 186 l 1,2,-1
 932 186 l 1,3,-1
 932 0 l 1,0,-1
559 0 m 1,4,-1
 373 0 l 1,5,-1
 373 186 l 1,6,-1
 559 186 l 1,7,-1
 559 0 l 1,4,-1
186 0 m 1,8,-1
 0 0 l 1,9,-1
 0 186 l 1,10,-1
 186 186 l 1,11,-1
 186 0 l 1,8,-1
EndSplineSet
EndChar

StartChar: OE
Encoding: 338 338 174
Width: 1118
Flags: W
LayerCount: 2
Back
Fore
SplineSet
422 651 m 256,0,1
 422 774 422 774 417 877.5 c 128,-1,2
 412 981 412 981 395.5 1054.5 c 128,-1,3
 379 1128 379 1128 350.5 1169 c 128,-1,4
 322 1210 322 1210 274 1210 c 0,5,6
 227 1210 227 1210 197.5 1169 c 128,-1,7
 168 1128 168 1128 151.5 1054.5 c 128,-1,8
 135 981 135 981 129 877.5 c 128,-1,9
 123 774 123 774 123 651 c 256,10,11
 123 528 123 528 129 426 c 128,-1,12
 135 324 135 324 151.5 250 c 128,-1,13
 168 176 168 176 197.5 135 c 128,-1,14
 227 94 227 94 274 94 c 0,15,16
 322 94 322 94 350.5 135 c 128,-1,17
 379 176 379 176 395.5 250 c 128,-1,18
 412 324 412 324 417 426 c 128,-1,19
 422 528 422 528 422 651 c 256,0,1
274 -23 m 0,20,21
 -14 -23 -14 -23 -14 651 c 0,22,23
 -14 1327 -14 1327 274 1327 c 0,24,25
 348 1327 348 1327 384 1289 c 128,-1,26
 420 1251 420 1251 449 1171 c 1,27,-1
 449 1305 l 1,28,-1
 932 1305 l 1,29,-1
 932 1188 l 1,30,-1
 559 1188 l 1,31,-1
 559 721 l 1,32,-1
 842 721 l 1,33,-1
 842 604 l 1,34,-1
 559 604 l 1,35,-1
 559 117 l 1,36,-1
 932 117 l 1,37,-1
 932 0 l 1,38,-1
 449 0 l 1,39,-1
 449 133 l 1,40,41
 420 53 420 53 384 15 c 128,-1,42
 348 -23 348 -23 274 -23 c 0,20,21
EndSplineSet
EndChar

StartChar: oe
Encoding: 339 339 175
Width: 1118
Flags: W
LayerCount: 2
Back
Fore
SplineSet
526 418 m 1,0,1
 526 252 526 252 565 178 c 128,-1,2
 604 104 604 104 682 104 c 0,3,4
 729 104 729 104 762 132 c 128,-1,5
 795 160 795 160 809 231 c 1,6,-1
 936 190 l 1,7,8
 868 -23 868 -23 682 -23 c 0,9,10
 504 -23 504 -23 455 178 c 1,11,12
 412 -23 412 -23 242 -23 c 0,13,14
 -37 -23 -37 -23 -37 465 c 0,15,16
 -37 954 -37 954 242 954 c 0,17,18
 406 954 406 954 453 760 c 1,19,20
 475 858 475 858 530.5 906 c 128,-1,21
 586 954 586 954 670 954 c 0,22,23
 770 954 770 954 826.5 902 c 128,-1,24
 883 850 883 850 911.5 770 c 128,-1,25
 940 690 940 690 947 596 c 128,-1,26
 954 502 954 502 954 418 c 1,27,-1
 526 418 l 1,0,1
807 539 m 1,28,29
 807 690 807 690 779.5 765 c 128,-1,30
 752 840 752 840 670 840 c 256,31,32
 588 840 588 840 559 761 c 128,-1,33
 530 682 530 682 526 539 c 1,34,-1
 807 539 l 1,28,29
383 465 m 0,35,36
 383 840 383 840 242 840 c 0,37,38
 100 840 100 840 100 465 c 0,39,40
 100 88 100 88 242 88 c 0,41,42
 383 88 383 88 383 465 c 0,35,36
EndSplineSet
EndChar

StartChar: endash
Encoding: 8211 8211 176
Width: 1118
Flags: W
LayerCount: 2
Back
Fore
SplineSet
0 424 m 1,0,-1
 0 532 l 1,1,-1
 932 532 l 1,2,-1
 932 424 l 1,3,-1
 0 424 l 1,0,-1
EndSplineSet
EndChar

StartChar: emdash
Encoding: 8212 8212 177
Width: 1118
Flags: W
LayerCount: 2
Back
Fore
SplineSet
1026 424 m 1,0,-1
 -92 424 l 1,1,-1
 -92 532 l 1,2,-1
 1026 532 l 1,3,-1
 1026 424 l 1,0,-1
EndSplineSet
EndChar

StartChar: quotedblleft
Encoding: 8220 8220 178
Width: 1118
Flags: W
LayerCount: 2
Back
Fore
SplineSet
932 745 m 1,0,-1
 612 745 l 1,1,-1
 612 963 l 2,2,3
 612 1032 612 1032 632.5 1093.5 c 128,-1,4
 653 1155 653 1155 693 1201 c 128,-1,5
 733 1247 733 1247 792.5 1275 c 128,-1,6
 852 1303 852 1303 932 1303 c 1,7,-1
 932 1186 l 1,8,9
 729 1186 729 1186 729 963 c 2,10,-1
 729 932 l 1,11,-1
 932 932 l 1,12,-1
 932 745 l 1,0,-1
373 745 m 1,13,-1
 55 745 l 1,14,-1
 55 963 l 2,15,16
 55 1032 55 1032 74.5 1093.5 c 128,-1,17
 94 1155 94 1155 134 1201 c 128,-1,18
 174 1247 174 1247 233.5 1275 c 128,-1,19
 293 1303 293 1303 373 1303 c 1,20,-1
 373 1186 l 1,21,22
 172 1186 172 1186 172 963 c 2,23,-1
 172 932 l 1,24,-1
 373 932 l 1,25,-1
 373 745 l 1,13,-1
EndSplineSet
EndChar

StartChar: quotedblright
Encoding: 8221 8221 179
Width: 1118
Flags: W
LayerCount: 2
Back
Fore
SplineSet
0 1305 m 1,0,-1
 319 1305 l 1,1,-1
 319 1087 l 2,2,3
 319 1018 319 1018 299 956.5 c 128,-1,4
 279 895 279 895 239 849 c 128,-1,5
 199 803 199 803 139.5 775.5 c 128,-1,6
 80 748 80 748 0 748 c 1,7,-1
 0 864 l 1,8,9
 203 864 203 864 203 1087 c 2,10,-1
 203 1118 l 1,11,-1
 0 1118 l 1,12,-1
 0 1305 l 1,0,-1
559 1305 m 1,13,-1
 877 1305 l 1,14,-1
 877 1087 l 2,15,16
 877 1018 877 1018 857.5 956.5 c 128,-1,17
 838 895 838 895 798 849 c 128,-1,18
 758 803 758 803 698.5 775.5 c 128,-1,19
 639 748 639 748 559 748 c 1,20,-1
 559 864 l 1,21,22
 760 864 760 864 760 1087 c 2,23,-1
 760 1118 l 1,24,-1
 559 1118 l 1,25,-1
 559 1305 l 1,13,-1
EndSplineSet
EndChar

StartChar: quoteleft
Encoding: 8216 8216 180
Width: 1118
Flags: W
LayerCount: 2
Back
Fore
SplineSet
745 745 m 1,0,-1
 426 745 l 1,1,-1
 426 963 l 2,2,3
 426 1032 426 1032 446.5 1093.5 c 128,-1,4
 467 1155 467 1155 507 1201 c 128,-1,5
 547 1247 547 1247 606.5 1275 c 128,-1,6
 666 1303 666 1303 745 1303 c 1,7,-1
 745 1186 l 1,8,9
 543 1186 543 1186 543 963 c 2,10,-1
 543 932 l 1,11,-1
 745 932 l 1,12,-1
 745 745 l 1,0,-1
EndSplineSet
EndChar

StartChar: quoteright
Encoding: 8217 8217 181
Width: 1118
Flags: W
LayerCount: 2
Back
Fore
SplineSet
186 1305 m 1,0,-1
 506 1305 l 1,1,-1
 506 1087 l 2,2,3
 506 1018 506 1018 485.5 956.5 c 128,-1,4
 465 895 465 895 425 849 c 128,-1,5
 385 803 385 803 325.5 775.5 c 128,-1,6
 266 748 266 748 186 748 c 1,7,-1
 186 864 l 1,8,9
 389 864 389 864 389 1087 c 2,10,-1
 389 1118 l 1,11,-1
 186 1118 l 1,12,-1
 186 1305 l 1,0,-1
EndSplineSet
EndChar

StartChar: divide
Encoding: 247 247 182
Width: 1118
Flags: W
LayerCount: 2
Back
Fore
SplineSet
559 758 m 1,0,-1
 373 758 l 1,1,-1
 373 944 l 1,2,-1
 559 944 l 1,3,-1
 559 758 l 1,0,-1
559 13 m 1,4,-1
 373 13 l 1,5,-1
 373 199 l 1,6,-1
 559 199 l 1,7,-1
 559 13 l 1,4,-1
932 420 m 1,8,-1
 0 420 l 1,9,-1
 0 537 l 1,10,-1
 932 537 l 1,11,-1
 932 420 l 1,8,-1
EndSplineSet
EndChar

StartChar: lozenge
Encoding: 9674 9674 183
Width: 1118
Flags: W
LayerCount: 2
Back
Fore
SplineSet
950 467 m 1,0,-1
 465 -16 l 1,1,-1
 -18 467 l 1,2,-1
 465 952 l 1,3,-1
 950 467 l 1,0,-1
819 467 m 1,4,-1
 465 821 l 1,5,-1
 111 467 l 1,6,-1
 465 113 l 1,7,-1
 819 467 l 1,4,-1
EndSplineSet
EndChar

StartChar: fraction
Encoding: 8260 8260 186
Width: 1118
Flags: W
LayerCount: 2
Back
Fore
SplineSet
932 1272 m 1,0,-1
 96 -27 l 1,1,-1
 2 33 l 1,2,-1
 840 1335 l 1,3,-1
 932 1272 l 1,0,-1
EndSplineSet
EndChar

StartChar: Euro
Encoding: 8364 8364 187
Width: 1118
Flags: W
LayerCount: 2
Back
Fore
SplineSet
0 858 m 1,0,-1
 166 858 l 1,1,2
 180 956 180 956 210 1041 c 128,-1,3
 240 1126 240 1126 288 1189.5 c 128,-1,4
 336 1253 336 1253 404.5 1290 c 128,-1,5
 473 1327 473 1327 563 1327 c 0,6,7
 702 1327 702 1327 795.5 1239 c 128,-1,8
 889 1151 889 1151 940 963 c 1,9,-1
 819 932 l 1,10,11
 791 1055 791 1055 725 1132.5 c 128,-1,12
 659 1210 659 1210 567 1210 c 0,13,14
 467 1210 467 1210 398.5 1122 c 128,-1,15
 330 1034 330 1034 303 858 c 1,16,-1
 559 858 l 1,17,-1
 559 745 l 1,18,-1
 291 745 l 1,19,20
 289 723 289 723 289 699.5 c 128,-1,21
 289 676 289 676 289 651 c 0,22,23
 289 627 289 627 289 604.5 c 128,-1,24
 289 582 289 582 291 559 c 1,25,-1
 559 559 l 1,26,-1
 559 446 l 1,27,-1
 303 446 l 1,28,29
 328 268 328 268 397.5 181 c 128,-1,30
 467 94 467 94 567 94 c 0,31,32
 659 94 659 94 725 173 c 128,-1,33
 791 252 791 252 819 375 c 1,34,-1
 940 342 l 1,35,36
 889 154 889 154 795.5 65.5 c 128,-1,37
 702 -23 702 -23 563 -23 c 0,38,39
 473 -23 473 -23 404.5 14 c 128,-1,40
 336 51 336 51 288 113.5 c 128,-1,41
 240 176 240 176 209 262 c 128,-1,42
 178 348 178 348 164 446 c 1,43,-1
 0 446 l 1,44,-1
 0 559 l 1,45,-1
 154 559 l 1,46,47
 152 582 152 582 152 605.5 c 128,-1,48
 152 629 152 629 152 651 c 0,49,50
 152 674 152 674 152 698.5 c 128,-1,51
 152 723 152 723 154 745 c 1,52,-1
 0 745 l 1,53,-1
 0 858 l 1,0,-1
EndSplineSet
EndChar

StartChar: guilsinglleft
Encoding: 8249 8249 188
Width: 1118
Flags: W
LayerCount: 2
Back
Fore
SplineSet
604 229 m 1,0,-1
 526 150 l 1,1,-1
 199 477 l 1,2,-1
 526 807 l 1,3,-1
 604 727 l 1,4,-1
 356 477 l 1,5,-1
 604 229 l 1,0,-1
EndSplineSet
EndChar

StartChar: guilsinglright
Encoding: 8250 8250 189
Width: 1118
Flags: W
LayerCount: 2
Back
Fore
SplineSet
733 477 m 1,0,-1
 408 150 l 1,1,-1
 328 227 l 1,2,-1
 575 477 l 1,3,-1
 328 727 l 1,4,-1
 408 805 l 1,5,-1
 733 477 l 1,0,-1
EndSplineSet
EndChar

StartChar: fi
Encoding: 64257 64257 190
Width: 1118
Flags: W
LayerCount: 2
Back
Fore
SplineSet
1118 0 m 1,0,-1
 0 0 l 1,1,-1
 0 117 l 1,2,-1
 211 117 l 1,3,-1
 211 815 l 1,4,-1
 0 815 l 1,5,-1
 0 932 l 1,6,-1
 211 932 l 1,7,8
 211 1124 211 1124 310.5 1223.5 c 128,-1,9
 410 1323 410 1323 610 1323 c 0,10,11
 657 1323 657 1323 690 1320 c 128,-1,12
 723 1317 723 1317 745 1313 c 1,13,-1
 745 1196 l 1,14,15
 717 1200 717 1200 685 1203 c 128,-1,16
 653 1206 653 1206 610 1206 c 0,17,18
 479 1206 479 1206 413.5 1141.5 c 128,-1,19
 348 1077 348 1077 348 932 c 1,20,-1
 907 932 l 1,21,-1
 907 117 l 1,22,-1
 1118 117 l 1,23,-1
 1118 0 l 1,0,-1
770 117 m 1,24,-1
 770 815 l 1,25,-1
 348 815 l 1,26,-1
 348 117 l 1,27,-1
 770 117 l 1,24,-1
EndSplineSet
EndChar

StartChar: fl
Encoding: 64258 64258 191
Width: 1118
Flags: W
LayerCount: 2
Back
Fore
SplineSet
1118 0 m 1,0,-1
 0 0 l 1,1,-1
 0 117 l 1,2,-1
 211 117 l 1,3,-1
 211 815 l 1,4,-1
 0 815 l 1,5,-1
 0 932 l 1,6,-1
 211 932 l 1,7,8
 211 1124 211 1124 310.5 1223.5 c 128,-1,9
 410 1323 410 1323 610 1323 c 0,10,11
 713 1323 713 1323 780.5 1314 c 128,-1,12
 848 1305 848 1305 907 1288 c 1,13,-1
 907 117 l 1,14,-1
 1118 117 l 1,15,-1
 1118 0 l 1,0,-1
770 117 m 1,16,-1
 770 1192 l 1,17,18
 748 1196 748 1196 710 1201 c 128,-1,19
 672 1206 672 1206 610 1206 c 0,20,21
 479 1206 479 1206 413.5 1141.5 c 128,-1,22
 348 1077 348 1077 348 932 c 1,23,-1
 559 932 l 1,24,-1
 559 815 l 1,25,-1
 348 815 l 1,26,-1
 348 117 l 1,27,-1
 770 117 l 1,16,-1
EndSplineSet
EndChar

StartChar: daggerdbl
Encoding: 8225 8225 192
Width: 1118
Flags: W
LayerCount: 2
Back
Fore
SplineSet
745 412 m 1,0,-1
 508 426 l 1,1,-1
 520 186 l 1,2,-1
 410 186 l 1,3,-1
 424 426 l 1,4,-1
 186 412 l 1,5,-1
 186 522 l 1,6,-1
 424 510 l 1,7,-1
 424 983 l 1,8,-1
 186 969 l 1,9,-1
 186 1081 l 1,10,-1
 424 1067 l 1,11,-1
 410 1305 l 1,12,-1
 520 1305 l 1,13,-1
 508 1067 l 1,14,-1
 745 1081 l 1,15,-1
 745 969 l 1,16,-1
 508 983 l 1,17,-1
 508 510 l 1,18,-1
 745 522 l 1,19,-1
 745 412 l 1,0,-1
EndSplineSet
EndChar

StartChar: periodcentered
Encoding: 183 183 193
Width: 1118
Flags: W
LayerCount: 2
Back
Fore
SplineSet
559 385 m 1,0,-1
 373 385 l 1,1,-1
 373 571 l 1,2,-1
 559 571 l 1,3,-1
 559 385 l 1,0,-1
EndSplineSet
EndChar

StartChar: quotesinglbase
Encoding: 8218 8218 194
Width: 1118
Flags: W
LayerCount: 2
Back
Fore
SplineSet
558 187 m 1,0,-1
 878 187 l 1,1,-1
 878 -31 l 2,2,3
 878 -100 878 -100 857.5 -161.5 c 128,-1,4
 837 -223 837 -223 797 -269 c 128,-1,5
 757 -315 757 -315 697.5 -342.5 c 128,-1,6
 638 -370 638 -370 558 -370 c 1,7,-1
 558 -254 l 1,8,9
 761 -254 761 -254 761 -31 c 2,10,-1
 761 0 l 1,11,-1
 558 0 l 1,12,-1
 558 187 l 1,0,-1
EndSplineSet
EndChar

StartChar: quotedblbase
Encoding: 8222 8222 195
Width: 1118
Flags: W
LayerCount: 2
Back
Fore
SplineSet
0 187 m 1,0,-1
 319 187 l 1,1,-1
 319 -31 l 2,2,3
 319 -100 319 -100 299 -161.5 c 128,-1,4
 279 -223 279 -223 239 -269 c 128,-1,5
 199 -315 199 -315 139.5 -342.5 c 128,-1,6
 80 -370 80 -370 0 -370 c 1,7,-1
 0 -254 l 1,8,9
 203 -254 203 -254 203 -31 c 2,10,-1
 203 0 l 1,11,-1
 0 0 l 1,12,-1
 0 187 l 1,0,-1
559 187 m 1,13,-1
 877 187 l 1,14,-1
 877 -31 l 2,15,16
 877 -100 877 -100 857.5 -161.5 c 128,-1,17
 838 -223 838 -223 798 -269 c 128,-1,18
 758 -315 758 -315 698.5 -342.5 c 128,-1,19
 639 -370 639 -370 559 -370 c 1,20,-1
 559 -254 l 1,21,22
 760 -254 760 -254 760 -31 c 2,23,-1
 760 0 l 1,24,-1
 559 0 l 1,25,-1
 559 187 l 1,13,-1
EndSplineSet
EndChar

StartChar: perthousand
Encoding: 8240 8240 196
Width: 1118
Flags: W
LayerCount: 2
Back
Fore
SplineSet
664 1276 m 1,0,-1
 96 -37 l 1,1,-1
 -6 4 l 1,2,-1
 567 1319 l 1,3,-1
 664 1276 l 1,0,-1
276 1075 m 0,4,5
 276 1139 276 1139 252.5 1182 c 128,-1,6
 229 1225 229 1225 178 1225 c 0,7,8
 129 1225 129 1225 104.5 1182 c 128,-1,9
 80 1139 80 1139 80 1075 c 0,10,11
 80 1012 80 1012 104.5 969 c 128,-1,12
 129 926 129 926 178 926 c 0,13,14
 229 926 229 926 252.5 969 c 128,-1,15
 276 1012 276 1012 276 1075 c 0,4,5
-20 1075 m 0,16,17
 -20 1180 -20 1180 29 1253.5 c 128,-1,18
 78 1327 78 1327 180 1327 c 0,19,20
 283 1327 283 1327 332 1253.5 c 128,-1,21
 381 1180 381 1180 381 1075 c 0,22,23
 381 971 381 971 332 897 c 128,-1,24
 283 823 283 823 180 823 c 0,25,26
 78 823 78 823 29 897 c 128,-1,27
 -20 971 -20 971 -20 1075 c 0,16,17
590 229 m 0,28,29
 590 293 590 293 566.5 336 c 128,-1,30
 543 379 543 379 492 379 c 0,31,32
 442 379 442 379 417.5 336 c 128,-1,33
 393 293 393 293 393 229 c 0,34,35
 393 166 393 166 417.5 123 c 128,-1,36
 442 80 442 80 492 80 c 0,37,38
 543 80 543 80 566.5 123 c 128,-1,39
 590 166 590 166 590 229 c 0,28,29
293 229 m 0,40,41
 293 334 293 334 342 407.5 c 128,-1,42
 391 481 391 481 494 481 c 0,43,44
 596 481 596 481 645 407.5 c 128,-1,45
 694 334 694 334 694 229 c 0,46,47
 694 125 694 125 645 51 c 128,-1,48
 596 -23 596 -23 494 -23 c 0,49,50
 391 -23 391 -23 342 51 c 128,-1,51
 293 125 293 125 293 229 c 0,40,41
1012 229 m 0,52,53
 1012 293 1012 293 988.5 336 c 128,-1,54
 965 379 965 379 913 379 c 0,55,56
 864 379 864 379 839.5 336 c 128,-1,57
 815 293 815 293 815 229 c 0,58,59
 815 166 815 166 839.5 123 c 128,-1,60
 864 80 864 80 913 80 c 0,61,62
 965 80 965 80 988.5 123 c 128,-1,63
 1012 166 1012 166 1012 229 c 0,52,53
715 229 m 0,64,65
 715 334 715 334 764 407.5 c 128,-1,66
 813 481 813 481 915 481 c 0,67,68
 1018 481 1018 481 1067 407.5 c 128,-1,69
 1116 334 1116 334 1116 229 c 0,70,71
 1116 125 1116 125 1067 51 c 128,-1,72
 1018 -23 1018 -23 915 -23 c 0,73,74
 813 -23 813 -23 764 51 c 128,-1,75
 715 125 715 125 715 229 c 0,64,65
EndSplineSet
EndChar

StartChar: apple
Encoding: 63743 63743 208
Width: 1118
Flags: W
LayerCount: 2
Back
Fore
SplineSet
819 1343 m 1,0,1
 819 1194 819 1194 745.5 1111 c 128,-1,2
 672 1028 672 1028 555 1018 c 1,3,4
 557 1284 557 1284 819 1343 c 1,0,1
1128 362 m 1,5,6
 1114 319 1114 319 1085.5 258 c 128,-1,7
 1057 197 1057 197 1017 140.5 c 128,-1,8
 977 84 977 84 927 43 c 128,-1,9
 877 2 877 2 821 2 c 0,10,11
 791 2 791 2 762 10 c 128,-1,12
 733 18 733 18 704.5 28.5 c 128,-1,13
 676 39 676 39 646 47 c 128,-1,14
 616 55 616 55 586 55 c 0,15,16
 555 55 555 55 526.5 47 c 128,-1,17
 498 39 498 39 471 27.5 c 128,-1,18
 444 16 444 16 417.5 8 c 128,-1,19
 391 0 391 0 365 0 c 0,20,21
 297 0 297 0 231.5 61.5 c 128,-1,22
 166 123 166 123 114.5 216 c 128,-1,23
 63 309 63 309 32.5 416.5 c 128,-1,24
 2 524 2 524 2 616 c 0,25,26
 2 690 2 690 21.5 765 c 128,-1,27
 41 840 41 840 80 899 c 128,-1,28
 119 958 119 958 179.5 996 c 128,-1,29
 240 1034 240 1034 324 1034 c 0,30,31
 360 1034 360 1034 395 1027 c 128,-1,32
 430 1020 430 1020 461 1010.5 c 128,-1,33
 492 1001 492 1001 520.5 994 c 128,-1,34
 549 987 549 987 578 987 c 0,35,36
 610 987 610 987 641 995.5 c 128,-1,37
 672 1004 672 1004 703.5 1014 c 128,-1,38
 735 1024 735 1024 767 1032 c 128,-1,39
 799 1040 799 1040 834 1040 c 0,40,41
 981 1040 981 1040 1090 907 c 1,42,43
 944 784 944 784 944 645 c 0,44,45
 944 602 944 602 956.5 558 c 128,-1,46
 969 514 969 514 992.5 475 c 128,-1,47
 1016 436 1016 436 1050.5 406.5 c 128,-1,48
 1085 377 1085 377 1128 362 c 1,5,6
EndSplineSet
EndChar

StartChar: dotlessi
Encoding: 305 305 213
Width: 1118
Flags: W
LayerCount: 2
Back
Fore
SplineSet
745 0 m 1,0,-1
 186 0 l 1,1,-1
 186 117 l 1,2,-1
 397 117 l 1,3,-1
 397 811 l 1,4,-1
 186 811 l 1,5,-1
 186 932 l 1,6,-1
 535 932 l 1,7,-1
 535 117 l 1,8,-1
 745 117 l 1,9,-1
 745 0 l 1,0,-1
EndSplineSet
EndChar

StartChar: circumflex
Encoding: 710 710 214
Width: 1118
Flags: W
LayerCount: 2
Back
Fore
SplineSet
764 1081 m 1,0,-1
 711 1014 l 1,1,-1
 469 1219 l 1,2,-1
 223 1012 l 1,3,-1
 170 1077 l 1,4,-1
 467 1368 l 1,5,-1
 764 1081 l 1,0,-1
EndSplineSet
EndChar

StartChar: tilde
Encoding: 732 732 215
Width: 1118
Flags: W
LayerCount: 2
Back
Fore
SplineSet
846 1229 m 1,0,1
 756 1071 756 1071 600 1071 c 0,2,3
 543 1071 543 1071 507 1089.5 c 128,-1,4
 471 1108 471 1108 443.5 1129.5 c 128,-1,5
 416 1151 416 1151 389 1169.5 c 128,-1,6
 362 1188 362 1188 324 1188 c 0,7,8
 221 1188 221 1188 158 1077 c 1,9,-1
 78 1124 l 1,10,11
 170 1280 170 1280 324 1280 c 0,12,13
 381 1280 381 1280 417 1261.5 c 128,-1,14
 453 1243 453 1243 480.5 1221.5 c 128,-1,15
 508 1200 508 1200 534.5 1181.5 c 128,-1,16
 561 1163 561 1163 600 1163 c 0,17,18
 702 1163 702 1163 766 1276 c 1,19,-1
 846 1229 l 1,0,1
EndSplineSet
EndChar

StartChar: macron
Encoding: 175 175 216
Width: 1118
Flags: W
LayerCount: 2
Back
Fore
SplineSet
745 1106 m 1,0,-1
 186 1106 l 1,1,-1
 186 1219 l 1,2,-1
 745 1219 l 1,3,-1
 745 1106 l 1,0,-1
EndSplineSet
EndChar

StartChar: breve
Encoding: 728 728 217
Width: 1118
Flags: W
LayerCount: 2
Back
Fore
SplineSet
752 1210 m 1,0,1
 635 1094 635 1094 467 1094 c 256,2,3
 299 1094 299 1094 182 1210 c 1,4,-1
 260 1286 l 1,5,6
 354 1192 354 1192 467 1192 c 256,7,8
 580 1192 580 1192 674 1286 c 1,9,-1
 752 1210 l 1,0,1
EndSplineSet
EndChar

StartChar: dotaccent
Encoding: 729 729 218
Width: 1118
Flags: W
LayerCount: 2
Back
Fore
SplineSet
559 1118 m 1,0,-1
 373 1118 l 1,1,-1
 373 1305 l 1,2,-1
 559 1305 l 1,3,-1
 559 1118 l 1,0,-1
EndSplineSet
EndChar

StartChar: ring
Encoding: 730 730 219
Width: 1118
Flags: W
LayerCount: 2
Back
Fore
SplineSet
242 1257 m 0,0,1
 242 1305 242 1305 259 1345.5 c 128,-1,2
 276 1386 276 1386 307 1417 c 128,-1,3
 338 1448 338 1448 379 1465.5 c 128,-1,4
 420 1483 420 1483 467 1483 c 256,5,6
 514 1483 514 1483 555 1465.5 c 128,-1,7
 596 1448 596 1448 626.5 1417 c 128,-1,8
 657 1386 657 1386 674.5 1345.5 c 128,-1,9
 692 1305 692 1305 692 1257 c 0,10,11
 692 1210 692 1210 674.5 1169 c 128,-1,12
 657 1128 657 1128 626.5 1097.5 c 128,-1,13
 596 1067 596 1067 555 1049.5 c 128,-1,14
 514 1032 514 1032 467 1032 c 256,15,16
 420 1032 420 1032 379 1049.5 c 128,-1,17
 338 1067 338 1067 307 1097.5 c 128,-1,18
 276 1128 276 1128 259 1169 c 128,-1,19
 242 1210 242 1210 242 1257 c 0,0,1
332 1257 m 0,20,21
 332 1202 332 1202 372 1162 c 128,-1,22
 412 1122 412 1122 467 1122 c 256,23,24
 522 1122 522 1122 562 1162 c 128,-1,25
 602 1202 602 1202 602 1257 c 0,26,27
 602 1313 602 1313 562 1353 c 128,-1,28
 522 1393 522 1393 467 1393 c 256,29,30
 412 1393 412 1393 372 1353 c 128,-1,31
 332 1313 332 1313 332 1257 c 0,20,21
EndSplineSet
EndChar

StartChar: cedilla
Encoding: 184 184 220
Width: 1118
Flags: W
LayerCount: 2
Back
Fore
SplineSet
559 -41 m 2,0,1
 559 -188 559 -188 477 -276 c 0,2,3
 389 -371 389 -371 242 -371 c 1,4,-1
 242 -254 l 1,5,6
 444 -254 444 -254 444 -41 c 2,7,-1
 444 0 l 1,8,-1
 559 0 l 1,9,-1
 559 -41 l 2,0,1
EndSplineSet
EndChar

StartChar: hungarumlaut
Encoding: 733 733 221
Width: 1118
Flags: W
LayerCount: 2
Back
Fore
SplineSet
682 1024 m 1,0,-1
 541 1024 l 1,1,-1
 682 1399 l 1,2,-1
 868 1399 l 1,3,-1
 682 1024 l 1,0,-1
309 1024 m 1,4,-1
 170 1024 l 1,5,-1
 309 1399 l 1,6,-1
 496 1399 l 1,7,-1
 309 1024 l 1,4,-1
EndSplineSet
EndChar

StartChar: ogonek
Encoding: 731 731 222
Width: 1118
Flags: W
LayerCount: 2
Back
Fore
SplineSet
1020 -379 m 1,0,1
 895 -379 895 -379 823.5 -316.5 c 128,-1,2
 752 -254 752 -254 752 -152 c 0,3,4
 752 -88 752 -88 778.5 -42 c 128,-1,5
 805 4 805 4 844 39 c 1,6,-1
 881 0 l 1,7,8
 831 -45 831 -45 831 -121 c 0,9,10
 831 -193 831 -193 885.5 -241 c 128,-1,11
 940 -289 940 -289 1020 -289 c 1,12,-1
 1020 -379 l 1,0,1
EndSplineSet
EndChar

StartChar: caron
Encoding: 711 711 223
Width: 1118
Flags: W
LayerCount: 2
Back
Fore
SplineSet
764 1296 m 1,0,-1
 467 1012 l 1,1,-1
 170 1300 l 1,2,-1
 223 1368 l 1,3,-1
 469 1161 l 1,4,-1
 711 1364 l 1,5,-1
 764 1296 l 1,0,-1
EndSplineSet
EndChar

StartChar: exclam
Encoding: 33 33 224
Width: 1118
Flags: W
LayerCount: 2
Back
Fore
SplineSet
557 1305 m 1,0,-1
 506 367 l 1,1,-1
 424 367 l 1,2,-1
 373 1305 l 1,3,-1
 557 1305 l 1,0,-1
559 0 m 1,4,-1
 373 0 l 1,5,-1
 373 186 l 1,6,-1
 559 186 l 1,7,-1
 559 0 l 1,4,-1
EndSplineSet
EndChar

StartChar: quotedbl
Encoding: 34 34 225
Width: 1118
Flags: W
LayerCount: 2
Back
Fore
SplineSet
745 1305 m 1,0,-1
 705 840 l 1,1,-1
 602 840 l 1,2,-1
 559 1305 l 1,3,-1
 745 1305 l 1,0,-1
373 1305 m 1,4,-1
 330 840 l 1,5,-1
 229 840 l 1,6,-1
 186 1305 l 1,7,-1
 373 1305 l 1,4,-1
EndSplineSet
EndChar

StartChar: commaaccent
Encoding: 63171 63171 226
Width: 1118
Flags: W
LayerCount: 2
Back
Fore
SplineSet
610 -104 m 1,0,-1
 438 -373 l 1,1,-1
 311 -373 l 1,2,-1
 395 -104 l 1,3,-1
 610 -104 l 1,0,-1
EndSplineSet
EndChar

StartChar: currency
Encoding: 164 164 227
Width: 1118
Flags: W
LayerCount: 2
Back
Fore
SplineSet
973 1079 m 1,0,-1
 856 963 l 1,1,2
 905 901 905 901 931.5 821 c 128,-1,3
 958 741 958 741 958 649 c 256,4,5
 958 557 958 557 931.5 478 c 128,-1,6
 905 399 905 399 858 338 c 1,7,-1
 973 223 l 1,8,-1
 893 145 l 1,9,-1
 778 258 l 1,10,11
 717 211 717 211 638 186.5 c 128,-1,12
 559 162 559 162 467 162 c 0,13,14
 373 162 373 162 294 188.5 c 128,-1,15
 215 215 215 215 154 262 c 1,16,-1
 39 145 l 1,17,-1
 -39 223 l 1,18,-1
 76 340 l 1,19,20
 29 401 29 401 4.5 479 c 128,-1,21
 -20 557 -20 557 -20 649 c 0,22,23
 -20 834 -20 834 78 961 c 1,24,-1
 -39 1079 l 1,25,-1
 39 1157 l 1,26,-1
 156 1038 l 1,27,28
 283 1141 283 1141 467 1141 c 0,29,30
 559 1141 559 1141 638 1114 c 128,-1,31
 717 1087 717 1087 776 1040 c 1,32,-1
 893 1157 l 1,33,-1
 973 1079 l 1,0,-1
819 649 m 256,34,35
 819 729 819 729 795.5 796.5 c 128,-1,36
 772 864 772 864 726 915.5 c 128,-1,37
 680 967 680 967 614.5 995.5 c 128,-1,38
 549 1024 549 1024 467 1024 c 256,39,40
 385 1024 385 1024 319.5 995.5 c 128,-1,41
 254 967 254 967 209 915.5 c 128,-1,42
 164 864 164 864 140.5 796.5 c 128,-1,43
 117 729 117 729 117 649 c 256,44,45
 117 569 117 569 140.5 501.5 c 128,-1,46
 164 434 164 434 209 385 c 128,-1,47
 254 336 254 336 319.5 308.5 c 128,-1,48
 385 281 385 281 467 281 c 256,49,50
 549 281 549 281 614.5 308.5 c 128,-1,51
 680 336 680 336 726 385 c 128,-1,52
 772 434 772 434 795.5 501.5 c 128,-1,53
 819 569 819 569 819 649 c 256,34,35
EndSplineSet
EndChar

StartChar: brokenbar
Encoding: 166 166 228
Width: 1118
Flags: W
LayerCount: 2
Back
Fore
SplineSet
535 -186 m 1,0,-1
 397 -186 l 1,1,-1
 397 559 l 1,2,-1
 535 559 l 1,3,-1
 535 -186 l 1,0,-1
535 745 m 1,4,-1
 397 745 l 1,5,-1
 397 1491 l 1,6,-1
 535 1491 l 1,7,-1
 535 745 l 1,4,-1
EndSplineSet
EndChar

StartChar: uni00AD
Encoding: 173 173 229
Width: 1118
Flags: W
LayerCount: 2
Back
Fore
SplineSet
932 420 m 1,0,-1
 0 420 l 1,1,-1
 0 537 l 1,2,-1
 932 537 l 1,3,-1
 932 420 l 1,0,-1
EndSplineSet
EndChar

StartChar: twosuperior
Encoding: 178 178 230
Width: 1118
Flags: W
LayerCount: 2
Back
Fore
SplineSet
449 1151 m 0,0,1
 449 1096 449 1096 416 1051 c 0,2,3
 399 1022 399 1022 340 969 c 0,4,5
 315 946 315 946 280.5 914.5 c 128,-1,6
 246 883 246 883 201 836 c 1,7,-1
 348 836 l 1,8,-1
 348 909 l 1,9,-1
 446 909 l 1,10,-1
 446 745 l 1,11,-1
 41 745 l 1,12,-1
 41 823 l 1,13,-1
 293 1063 l 2,14,15
 340 1110 340 1110 340 1151 c 0,16,17
 340 1186 340 1186 312.5 1204.5 c 128,-1,18
 285 1223 285 1223 244 1223 c 0,19,20
 129 1223 129 1223 129 1085 c 1,21,-1
 27 1085 l 1,22,23
 27 1317 27 1317 244 1317 c 0,24,25
 328 1317 328 1317 383 1276 c 0,26,27
 449 1227 449 1227 449 1151 c 0,0,1
EndSplineSet
EndChar

StartChar: threesuperior
Encoding: 179 179 231
Width: 1118
Flags: W
LayerCount: 2
Back
Fore
SplineSet
434 909 m 0,0,1
 434 840 434 840 376.5 786.5 c 128,-1,2
 319 733 319 733 227 733 c 0,3,4
 23 733 23 733 -2 936 c 1,5,-1
 104 950 l 1,6,7
 119 827 119 827 227 827 c 0,8,9
 268 827 268 827 297 852 c 128,-1,10
 326 877 326 877 326 909 c 0,11,12
 326 965 326 965 293 975 c 1,13,14
 276 985 276 985 209 985 c 1,15,-1
 209 1085 l 1,16,17
 315 1085 315 1085 315 1151 c 0,18,19
 315 1225 315 1225 227 1225 c 0,20,21
 115 1225 115 1225 115 1102 c 1,22,-1
 10 1102 l 1,23,24
 10 1208 10 1208 74 1264 c 0,25,26
 137 1315 137 1315 227 1315 c 0,27,28
 319 1315 319 1315 371.5 1269 c 128,-1,29
 424 1223 424 1223 424 1151 c 0,30,31
 424 1075 424 1075 358 1040 c 1,32,33
 434 987 434 987 434 909 c 0,0,1
EndSplineSet
EndChar

StartChar: onesuperior
Encoding: 185 185 232
Width: 1118
Flags: W
LayerCount: 2
Back
Fore
SplineSet
389 745 m 1,0,-1
 100 745 l 1,1,-1
 100 836 l 1,2,-1
 190 836 l 1,3,-1
 190 1126 l 1,4,5
 170 1075 170 1075 122 1038 c 128,-1,6
 74 1001 74 1001 0 1001 c 1,7,-1
 0 1100 l 1,8,9
 31 1100 31 1100 64.5 1114 c 128,-1,10
 98 1128 98 1128 126 1155 c 128,-1,11
 154 1182 154 1182 172 1219.5 c 128,-1,12
 190 1257 190 1257 190 1305 c 1,13,-1
 299 1305 l 1,14,-1
 299 836 l 1,15,-1
 389 836 l 1,16,-1
 389 745 l 1,0,-1
EndSplineSet
EndChar

StartChar: onequarter
Encoding: 188 188 233
Width: 1118
Flags: W
LayerCount: 2
Back
Fore
SplineSet
932 1272 m 1,0,-1
 96 -27 l 1,1,-1
 2 33 l 1,2,-1
 840 1335 l 1,3,-1
 932 1272 l 1,0,-1
389 745 m 1,4,-1
 100 745 l 1,5,-1
 100 836 l 1,6,-1
 190 836 l 1,7,-1
 190 1126 l 1,8,9
 170 1075 170 1075 122 1038 c 128,-1,10
 74 1001 74 1001 0 1001 c 1,11,-1
 0 1100 l 1,12,13
 31 1100 31 1100 64.5 1114 c 128,-1,14
 98 1128 98 1128 126 1155 c 128,-1,15
 154 1182 154 1182 172 1219.5 c 128,-1,16
 190 1257 190 1257 190 1305 c 1,17,-1
 299 1305 l 1,18,-1
 299 836 l 1,19,-1
 389 836 l 1,20,-1
 389 745 l 1,4,-1
932 0 m 1,21,-1
 645 0 l 1,22,-1
 645 90 l 1,23,-1
 737 90 l 1,24,-1
 737 150 l 1,25,-1
 487 150 l 1,26,-1
 487 225 l 1,27,-1
 731 559 l 1,28,-1
 842 559 l 1,29,-1
 842 242 l 1,30,-1
 932 242 l 1,31,-1
 932 150 l 1,32,-1
 842 150 l 1,33,-1
 842 90 l 1,34,-1
 932 90 l 1,35,-1
 932 0 l 1,21,-1
737 242 m 1,36,-1
 737 401 l 1,37,-1
 618 242 l 1,38,-1
 737 242 l 1,36,-1
EndSplineSet
EndChar

StartChar: onehalf
Encoding: 189 189 234
Width: 1118
Flags: W
LayerCount: 2
Back
Fore
SplineSet
932 1272 m 1,0,-1
 96 -27 l 1,1,-1
 2 33 l 1,2,-1
 840 1335 l 1,3,-1
 932 1272 l 1,0,-1
934 406 m 0,4,5
 934 350 934 350 901 305 c 1,6,7
 885 276 885 276 825 223 c 0,8,9
 801 201 801 201 766 169 c 128,-1,10
 731 137 731 137 686 90 c 1,11,-1
 834 90 l 1,12,-1
 834 164 l 1,13,-1
 932 164 l 1,14,-1
 932 0 l 1,15,-1
 526 0 l 1,16,-1
 526 78 l 1,17,-1
 778 317 l 2,18,19
 825 365 825 365 825 406 c 0,20,21
 825 440 825 440 797.5 458.5 c 128,-1,22
 770 477 770 477 729 477 c 0,23,24
 614 477 614 477 614 340 c 1,25,-1
 512 340 l 1,26,27
 512 571 512 571 729 571 c 0,28,29
 813 571 813 571 868 530 c 0,30,31
 934 481 934 481 934 406 c 0,4,5
389 745 m 1,32,-1
 100 745 l 1,33,-1
 100 836 l 1,34,-1
 190 836 l 1,35,-1
 190 1126 l 1,36,37
 170 1075 170 1075 122 1038 c 128,-1,38
 74 1001 74 1001 0 1001 c 1,39,-1
 0 1100 l 1,40,41
 31 1100 31 1100 64.5 1114 c 128,-1,42
 98 1128 98 1128 126 1155 c 128,-1,43
 154 1182 154 1182 172 1219.5 c 128,-1,44
 190 1257 190 1257 190 1305 c 1,45,-1
 299 1305 l 1,46,-1
 299 836 l 1,47,-1
 389 836 l 1,48,-1
 389 745 l 1,32,-1
EndSplineSet
EndChar

StartChar: threequarters
Encoding: 190 190 235
Width: 1118
Flags: W
LayerCount: 2
Back
Fore
SplineSet
434 909 m 0,0,1
 434 840 434 840 376.5 786.5 c 128,-1,2
 319 733 319 733 227 733 c 0,3,4
 23 733 23 733 -2 936 c 1,5,-1
 104 950 l 1,6,7
 119 827 119 827 227 827 c 0,8,9
 268 827 268 827 297 852 c 128,-1,10
 326 877 326 877 326 909 c 0,11,12
 326 965 326 965 293 975 c 1,13,14
 276 985 276 985 209 985 c 1,15,-1
 209 1085 l 1,16,17
 315 1085 315 1085 315 1151 c 0,18,19
 315 1225 315 1225 227 1225 c 0,20,21
 115 1225 115 1225 115 1102 c 1,22,-1
 10 1102 l 1,23,24
 10 1208 10 1208 74 1264 c 0,25,26
 137 1315 137 1315 227 1315 c 0,27,28
 319 1315 319 1315 371.5 1269 c 128,-1,29
 424 1223 424 1223 424 1151 c 0,30,31
 424 1075 424 1075 358 1040 c 1,32,33
 434 987 434 987 434 909 c 0,0,1
932 1272 m 1,34,-1
 96 -27 l 1,35,-1
 2 33 l 1,36,-1
 840 1335 l 1,37,-1
 932 1272 l 1,34,-1
932 0 m 1,38,-1
 645 0 l 1,39,-1
 645 90 l 1,40,-1
 737 90 l 1,41,-1
 737 150 l 1,42,-1
 487 150 l 1,43,-1
 487 225 l 1,44,-1
 731 559 l 1,45,-1
 842 559 l 1,46,-1
 842 242 l 1,47,-1
 932 242 l 1,48,-1
 932 150 l 1,49,-1
 842 150 l 1,50,-1
 842 90 l 1,51,-1
 932 90 l 1,52,-1
 932 0 l 1,38,-1
737 242 m 1,53,-1
 737 401 l 1,54,-1
 618 242 l 1,55,-1
 737 242 l 1,53,-1
EndSplineSet
EndChar

StartChar: Eth
Encoding: 208 208 236
Width: 1118
Flags: W
LayerCount: 2
Back
Fore
SplineSet
975 653 m 0,0,1
 975 518 975 518 945 399.5 c 128,-1,2
 915 281 915 281 854 191.5 c 128,-1,3
 793 102 793 102 697.5 51 c 128,-1,4
 602 0 602 0 473 0 c 2,5,-1
 49 0 l 1,6,-1
 49 606 l 1,7,-1
 -117 606 l 1,8,-1
 -117 723 l 1,9,-1
 49 723 l 1,10,-1
 49 1305 l 1,11,-1
 473 1305 l 2,12,13
 610 1305 610 1305 705.5 1251.5 c 128,-1,14
 801 1198 801 1198 861.5 1108 c 128,-1,15
 922 1018 922 1018 948.5 900 c 128,-1,16
 975 782 975 782 975 653 c 0,0,1
838 653 m 256,17,18
 838 909 838 909 741.5 1048.5 c 128,-1,19
 645 1188 645 1188 473 1188 c 2,20,-1
 186 1188 l 1,21,-1
 186 723 l 1,22,-1
 440 723 l 1,23,-1
 440 606 l 1,24,-1
 186 606 l 1,25,-1
 186 117 l 1,26,-1
 473 117 l 2,27,28
 645 117 645 117 741.5 257 c 128,-1,29
 838 397 838 397 838 653 c 256,17,18
EndSplineSet
EndChar

StartChar: multiply
Encoding: 215 215 237
Width: 1118
Flags: W
LayerCount: 2
Back
Fore
SplineSet
836 768 m 1,0,-1
 545 478 l 1,1,-1
 836 187 l 1,2,-1
 756 109 l 1,3,-1
 467 400 l 1,4,-1
 176 109 l 1,5,-1
 98 187 l 1,6,-1
 387 478 l 1,7,-1
 98 768 l 1,8,-1
 176 846 l 1,9,-1
 467 555 l 1,10,-1
 756 846 l 1,11,-1
 836 768 l 1,0,-1
EndSplineSet
EndChar

StartChar: Thorn
Encoding: 222 222 239
Width: 1118
Flags: W
LayerCount: 2
Back
Fore
SplineSet
930 664 m 0,0,1
 930 291 930 291 430 291 c 2,2,-1
 186 291 l 1,3,-1
 186 0 l 1,4,-1
 49 0 l 1,5,-1
 49 1305 l 1,6,-1
 186 1305 l 1,7,-1
 186 1036 l 1,8,-1
 430 1036 l 2,9,10
 930 1036 930 1036 930 664 c 0,0,1
791 664 m 0,11,12
 791 918 791 918 430 918 c 2,13,-1
 186 918 l 1,14,-1
 186 406 l 1,15,-1
 430 406 l 2,16,17
 610 406 610 406 700.5 471.5 c 128,-1,18
 791 537 791 537 791 664 c 0,11,12
EndSplineSet
EndChar

StartChar: eth
Encoding: 240 240 240
Width: 1118
Flags: W
LayerCount: 2
Back
Fore
SplineSet
233 977 m 1,0,-1
 393 1137 l 1,1,2
 352 1159 352 1159 309 1176.5 c 128,-1,3
 266 1194 266 1194 219 1210 c 1,4,-1
 264 1327 l 1,5,6
 381 1282 381 1282 483 1229 c 1,7,-1
 627 1372 l 1,8,-1
 705 1292 l 1,9,-1
 584 1169 l 1,10,11
 664 1118 664 1118 731.5 1054.5 c 128,-1,12
 799 991 799 991 847 913.5 c 128,-1,13
 895 836 895 836 922.5 742.5 c 128,-1,14
 950 649 950 649 950 537 c 0,15,16
 950 408 950 408 914.5 304.5 c 128,-1,17
 879 201 879 201 811 128 c 128,-1,18
 743 55 743 55 647 16 c 128,-1,19
 551 -23 551 -23 430 -23 c 0,20,21
 225 -23 225 -23 102.5 73.5 c 128,-1,22
 -20 170 -20 170 -20 354 c 0,23,24
 -20 459 -20 459 38 540 c 128,-1,25
 96 621 96 621 197.5 682 c 128,-1,26
 299 743 299 743 435 785 c 128,-1,27
 571 827 571 827 727 852 c 1,28,29
 686 922 686 922 625.5 977 c 128,-1,30
 565 1032 565 1032 494 1079 c 1,31,-1
 311 897 l 1,32,-1
 233 977 l 1,0,-1
813 537 m 0,33,34
 813 592 813 592 805 642 c 128,-1,35
 797 692 797 692 780 739 c 1,36,37
 635 723 635 723 513 688 c 128,-1,38
 391 653 391 653 303 604 c 128,-1,39
 215 555 215 555 166 492.5 c 128,-1,40
 117 430 117 430 117 354 c 0,41,42
 117 238 117 238 201 166 c 128,-1,43
 285 94 285 94 430 94 c 0,44,45
 522 94 522 94 593 126 c 128,-1,46
 664 158 664 158 713 216 c 128,-1,47
 762 274 762 274 787.5 356 c 128,-1,48
 813 438 813 438 813 537 c 0,33,34
EndSplineSet
EndChar

StartChar: thorn
Encoding: 254 254 242
Width: 1118
Flags: W
LayerCount: 2
Back
Fore
SplineSet
934 465 m 0,0,1
 934 356 934 356 901 267 c 128,-1,2
 868 178 868 178 808 112.5 c 128,-1,3
 748 47 748 47 659.5 11 c 128,-1,4
 571 -25 571 -25 461 -25 c 0,5,6
 311 -25 311 -25 186 74 c 1,7,-1
 186 -373 l 1,8,-1
 49 -373 l 1,9,-1
 49 1305 l 1,10,-1
 186 1305 l 1,11,-1
 186 856 l 1,12,13
 311 954 311 954 461 954 c 0,14,15
 567 954 567 954 655 919.5 c 128,-1,16
 743 885 743 885 804.5 821.5 c 128,-1,17
 866 758 866 758 900 668 c 128,-1,18
 934 578 934 578 934 465 c 0,0,1
795 465 m 0,19,20
 795 547 795 547 773.5 615.5 c 128,-1,21
 752 684 752 684 711 734 c 128,-1,22
 670 784 670 784 606.5 813 c 128,-1,23
 543 842 543 842 461 842 c 0,24,25
 305 842 305 842 186 715 c 1,26,-1
 186 215 l 1,27,28
 305 86 305 86 461 86 c 0,29,30
 543 86 543 86 606.5 114.5 c 128,-1,31
 670 143 670 143 711 194.5 c 128,-1,32
 752 246 752 246 773.5 315.5 c 128,-1,33
 795 385 795 385 795 465 c 0,19,20
EndSplineSet
EndChar

StartChar: Aogonek
Encoding: 260 260 247
Width: 1118
Flags: W
LayerCount: 2
Back
Fore
SplineSet
1135 -379 m 1,0,1
 1010 -379 1010 -379 938 -316.5 c 128,-1,2
 866 -254 866 -254 866 -152 c 0,3,4
 866 -104 866 -104 881.5 -66.5 c 128,-1,5
 897 -29 897 -29 920 0 c 1,6,-1
 848 0 l 1,7,-1
 725 373 l 1,8,-1
 209 373 l 1,9,-1
 88 0 l 1,10,-1
 -59 0 l 1,11,-1
 375 1305 l 1,12,-1
 561 1305 l 1,13,-1
 995 0 l 1,14,15
 946 -45 946 -45 946 -121 c 0,16,17
 946 -193 946 -193 1000.5 -241 c 128,-1,18
 1055 -289 1055 -289 1135 -289 c 1,19,-1
 1135 -379 l 1,0,1
686 494 m 1,20,-1
 467 1167 l 1,21,-1
 248 494 l 1,22,-1
 686 494 l 1,20,-1
EndSplineSet
EndChar

StartChar: aogonek
Encoding: 261 261 248
Width: 1118
Flags: W
LayerCount: 2
Back
Fore
SplineSet
883 0 m 1,0,1
 860 -23 860 -23 845.5 -54.5 c 128,-1,2
 831 -86 831 -86 831 -121 c 0,3,4
 831 -193 831 -193 885.5 -241 c 128,-1,5
 940 -289 940 -289 1020 -289 c 1,6,-1
 1020 -379 l 1,7,8
 895 -379 895 -379 823.5 -316.5 c 128,-1,9
 752 -254 752 -254 752 -152 c 0,10,11
 752 -104 752 -104 767 -66.5 c 128,-1,12
 782 -29 782 -29 805 0 c 1,13,-1
 745 0 l 1,14,-1
 745 156 l 1,15,16
 709 111 709 111 663.5 77 c 128,-1,17
 618 43 618 43 568 21.5 c 128,-1,18
 518 0 518 0 468 -11.5 c 128,-1,19
 418 -23 418 -23 373 -23 c 0,20,21
 188 -23 188 -23 93 48 c 128,-1,22
 -2 119 -2 119 -2 252 c 0,23,24
 -2 340 -2 340 42 399.5 c 128,-1,25
 86 459 86 459 157.5 493.5 c 128,-1,26
 229 528 229 528 321.5 543.5 c 128,-1,27
 414 559 414 559 510 559 c 0,28,29
 547 559 547 559 576.5 558 c 128,-1,30
 606 557 606 557 632.5 555 c 128,-1,31
 659 553 659 553 686 550 c 128,-1,32
 713 547 713 547 745 543 c 1,33,-1
 745 610 l 2,34,35
 745 678 745 678 715.5 722 c 128,-1,36
 686 766 686 766 643 791.5 c 128,-1,37
 600 817 600 817 553 827.5 c 128,-1,38
 506 838 506 838 473 838 c 0,39,40
 369 838 369 838 281 810 c 128,-1,41
 193 782 193 782 117 735 c 1,42,-1
 55 838 l 1,43,44
 139 889 139 889 243.5 921.5 c 128,-1,45
 348 954 348 954 473 954 c 0,46,47
 549 954 549 954 622.5 934.5 c 128,-1,48
 696 915 696 915 754.5 874.5 c 128,-1,49
 813 834 813 834 848 768 c 128,-1,50
 883 702 883 702 883 610 c 2,51,-1
 883 0 l 1,0,1
373 94 m 0,52,53
 459 94 459 94 527.5 119.5 c 128,-1,54
 596 145 596 145 644 183 c 128,-1,55
 692 221 692 221 718.5 264 c 128,-1,56
 745 307 745 307 745 342 c 2,57,-1
 745 430 l 1,58,59
 678 440 678 440 616.5 441 c 128,-1,60
 555 442 555 442 510 442 c 0,61,62
 436 442 436 442 367.5 432 c 128,-1,63
 299 422 299 422 248 399.5 c 128,-1,64
 197 377 197 377 166 341 c 128,-1,65
 135 305 135 305 135 252 c 0,66,67
 135 193 135 193 192.5 143.5 c 128,-1,68
 250 94 250 94 373 94 c 0,52,53
EndSplineSet
EndChar

StartChar: dcaron
Encoding: 271 271 258
Width: 1118
Flags: W
LayerCount: 2
Back
Fore
SplineSet
745 0 m 1,0,-1
 608 0 l 1,1,-1
 608 86 l 1,2,3
 561 33 561 33 502.5 5 c 128,-1,4
 444 -23 444 -23 385 -23 c 0,5,6
 295 -23 295 -23 223.5 13 c 128,-1,7
 152 49 152 49 102.5 113.5 c 128,-1,8
 53 178 53 178 26.5 268 c 128,-1,9
 0 358 0 358 0 465 c 0,10,11
 0 571 0 571 26.5 661.5 c 128,-1,12
 53 752 53 752 102.5 816.5 c 128,-1,13
 152 881 152 881 223.5 917.5 c 128,-1,14
 295 954 295 954 385 954 c 0,15,16
 444 954 444 954 502.5 927.5 c 128,-1,17
 561 901 561 901 608 848 c 1,18,-1
 608 1188 l 1,19,-1
 422 1188 l 1,20,-1
 422 1305 l 1,21,-1
 745 1305 l 1,22,-1
 745 0 l 1,0,-1
608 715 m 1,23,24
 561 780 561 780 507 809 c 128,-1,25
 453 838 453 838 393 838 c 0,26,27
 332 838 332 838 284 809 c 128,-1,28
 236 780 236 780 203 730 c 128,-1,29
 170 680 170 680 152.5 612.5 c 128,-1,30
 135 545 135 545 135 465 c 256,31,32
 135 385 135 385 152.5 317.5 c 128,-1,33
 170 250 170 250 203 200 c 128,-1,34
 236 150 236 150 284 121 c 128,-1,35
 332 92 332 92 393 92 c 0,36,37
 516 92 516 92 608 217 c 1,38,-1
 608 715 l 1,23,24
1065 1304 m 1,39,-1
 981 839 l 1,40,-1
 880 839 l 1,41,-1
 880 1304 l 1,42,-1
 1065 1304 l 1,39,-1
EndSplineSet
EndChar

StartChar: dcroat
Encoding: 273 273 260
Width: 1118
Flags: W
LayerCount: 2
Back
Fore
SplineSet
1069 1001 m 1,0,-1
 883 1001 l 1,1,-1
 883 0 l 1,2,-1
 745 0 l 1,3,-1
 745 86 l 1,4,5
 686 33 686 33 615.5 5 c 128,-1,6
 545 -23 545 -23 471 -23 c 0,7,8
 360 -23 360 -23 272 13 c 128,-1,9
 184 49 184 49 123.5 113.5 c 128,-1,10
 63 178 63 178 30.5 268 c 128,-1,11
 -2 358 -2 358 -2 465 c 0,12,13
 -2 571 -2 571 30.5 661.5 c 128,-1,14
 63 752 63 752 123.5 816.5 c 128,-1,15
 184 881 184 881 272 917.5 c 128,-1,16
 360 954 360 954 471 954 c 0,17,18
 545 954 545 954 615.5 927.5 c 128,-1,19
 686 901 686 901 745 848 c 1,20,-1
 745 1001 l 1,21,-1
 559 1001 l 1,22,-1
 559 1118 l 1,23,-1
 745 1118 l 1,24,-1
 745 1305 l 1,25,-1
 883 1305 l 1,26,-1
 883 1118 l 1,27,-1
 1069 1118 l 1,28,-1
 1069 1001 l 1,0,-1
745 715 m 1,29,30
 686 780 686 780 616.5 809 c 128,-1,31
 547 838 547 838 469 838 c 0,32,33
 387 838 387 838 324.5 809 c 128,-1,34
 262 780 262 780 220 730 c 128,-1,35
 178 680 178 680 156.5 612.5 c 128,-1,36
 135 545 135 545 135 465 c 256,37,38
 135 385 135 385 156.5 317.5 c 128,-1,39
 178 250 178 250 220 200 c 128,-1,40
 262 150 262 150 324.5 121 c 128,-1,41
 387 92 387 92 469 92 c 0,42,43
 627 92 627 92 745 217 c 1,44,-1
 745 715 l 1,29,30
EndSplineSet
EndChar

StartChar: Eogonek
Encoding: 280 280 267
Width: 1118
Flags: W
LayerCount: 2
Back
Fore
SplineSet
1024 -379 m 1,0,1
 899 -379 899 -379 827.5 -316.5 c 128,-1,2
 756 -254 756 -254 756 -152 c 0,3,4
 756 -104 756 -104 771 -66.5 c 128,-1,5
 786 -29 786 -29 809 0 c 1,6,-1
 49 0 l 1,7,-1
 49 1305 l 1,8,-1
 883 1305 l 1,9,-1
 883 1188 l 1,10,-1
 186 1188 l 1,11,-1
 186 721 l 1,12,-1
 700 721 l 1,13,-1
 700 604 l 1,14,-1
 186 604 l 1,15,-1
 186 117 l 1,16,-1
 883 117 l 1,17,-1
 883 2 l 1,18,-1
 885 0 l 1,19,20
 836 -45 836 -45 836 -121 c 0,21,22
 836 -193 836 -193 890 -241 c 128,-1,23
 944 -289 944 -289 1024 -289 c 1,24,-1
 1024 -379 l 1,0,1
EndSplineSet
EndChar

StartChar: eogonek
Encoding: 281 281 268
Width: 1118
Flags: W
LayerCount: 2
Back
Fore
SplineSet
659 2 m 1,0,1
 637 -20 637 -20 624.5 -53 c 128,-1,2
 612 -86 612 -86 612 -121 c 0,3,4
 612 -193 612 -193 666.5 -241 c 128,-1,5
 721 -289 721 -289 801 -289 c 1,6,-1
 801 -379 l 1,7,8
 676 -379 676 -379 604 -316.5 c 128,-1,9
 532 -254 532 -254 532 -152 c 0,10,11
 532 -111 532 -111 543.5 -78 c 128,-1,12
 555 -45 555 -45 573 -16 c 1,13,14
 530 -23 530 -23 487 -23 c 0,15,16
 379 -23 379 -23 289 13 c 128,-1,17
 199 49 199 49 133.5 113.5 c 128,-1,18
 68 178 68 178 32 267 c 128,-1,19
 -4 356 -4 356 -4 465 c 0,20,21
 -4 571 -4 571 28.5 660.5 c 128,-1,22
 61 750 61 750 122.5 815.5 c 128,-1,23
 184 881 184 881 272 917.5 c 128,-1,24
 360 954 360 954 469 954 c 0,25,26
 588 954 588 954 677 914 c 128,-1,27
 766 874 766 874 825.5 803.5 c 128,-1,28
 885 733 885 733 913.5 635 c 128,-1,29
 942 537 942 537 942 418 c 1,30,-1
 137 418 l 1,31,32
 152 270 152 270 245 182 c 128,-1,33
 338 94 338 94 487 94 c 0,34,35
 592 94 592 94 674 137 c 128,-1,36
 756 180 756 180 797 244 c 1,37,-1
 893 178 l 1,38,39
 799 47 799 47 659 2 c 1,0,1
797 535 m 1,40,41
 774 688 774 688 686 763 c 128,-1,42
 598 838 598 838 469 838 c 0,43,44
 403 838 403 838 347 816.5 c 128,-1,45
 291 795 291 795 248 755 c 128,-1,46
 205 715 205 715 176 658.5 c 128,-1,47
 147 602 147 602 139 535 c 1,48,-1
 797 535 l 1,40,41
EndSplineSet
EndChar

StartChar: gcommaaccent
Encoding: 291 291 278
Width: 1118
Flags: W
LayerCount: 2
Back
Fore
SplineSet
283 1118 m 1,0,-1
 557 1491 l 1,1,-1
 653 1491 l 1,2,-1
 467 1118 l 1,3,-1
 283 1118 l 1,0,-1
883 10 m 2,4,5
 883 -86 883 -86 850 -161 c 128,-1,6
 817 -236 817 -236 757.5 -288 c 128,-1,7
 698 -340 698 -340 617.5 -367.5 c 128,-1,8
 537 -395 537 -395 438 -395 c 0,9,10
 299 -395 299 -395 201.5 -343 c 128,-1,11
 104 -291 104 -291 33 -193 c 1,12,-1
 129 -119 l 1,13,14
 172 -184 172 -184 253 -228 c 128,-1,15
 334 -272 334 -272 438 -272 c 0,16,17
 580 -272 580 -272 662.5 -200.5 c 128,-1,18
 745 -129 745 -129 745 6 c 2,19,-1
 745 106 l 1,20,21
 623 -2 623 -2 467 -2 c 0,22,23
 248 -2 248 -2 123 123 c 128,-1,24
 -2 248 -2 248 -2 465 c 0,25,26
 -2 571 -2 571 30.5 660.5 c 128,-1,27
 63 750 63 750 123.5 815.5 c 128,-1,28
 184 881 184 881 271 917.5 c 128,-1,29
 358 954 358 954 467 954 c 0,30,31
 543 954 543 954 614.5 927.5 c 128,-1,32
 686 901 686 901 745 848 c 1,33,-1
 745 932 l 1,34,-1
 883 932 l 1,35,-1
 883 10 l 2,4,5
745 715 m 1,36,37
 686 780 686 780 615.5 809 c 128,-1,38
 545 838 545 838 467 838 c 0,39,40
 385 838 385 838 322.5 809 c 128,-1,41
 260 780 260 780 219 730 c 128,-1,42
 178 680 178 680 156.5 611.5 c 128,-1,43
 135 543 135 543 135 465 c 0,44,45
 135 305 135 305 218 210 c 128,-1,46
 301 115 301 115 467 115 c 0,47,48
 545 115 545 115 615.5 144.5 c 128,-1,49
 686 174 686 174 745 240 c 1,50,-1
 745 715 l 1,36,37
EndSplineSet
EndChar

StartChar: Hbar
Encoding: 294 294 281
Width: 1118
Flags: W
LayerCount: 2
Back
Fore
SplineSet
883 1096 m 1,0,-1
 1071 1096 l 1,1,-1
 1071 983 l 1,2,-1
 883 983 l 1,3,-1
 883 0 l 1,4,-1
 745 0 l 1,5,-1
 745 604 l 1,6,-1
 186 604 l 1,7,-1
 186 0 l 1,8,-1
 49 0 l 1,9,-1
 49 983 l 1,10,-1
 -137 983 l 1,11,-1
 -137 1096 l 1,12,-1
 49 1096 l 1,13,-1
 49 1305 l 1,14,-1
 186 1305 l 1,15,-1
 186 1096 l 1,16,-1
 745 1096 l 1,17,-1
 745 1305 l 1,18,-1
 883 1305 l 1,19,-1
 883 1096 l 1,0,-1
745 721 m 1,20,-1
 745 983 l 1,21,-1
 186 983 l 1,22,-1
 186 721 l 1,23,-1
 745 721 l 1,20,-1
EndSplineSet
EndChar

StartChar: hbar
Encoding: 295 295 282
Width: 1118
Flags: W
LayerCount: 2
Back
Fore
SplineSet
883 0 m 1,0,-1
 745 0 l 1,1,-1
 745 575 l 2,2,3
 745 700 745 700 691 769 c 128,-1,4
 637 838 637 838 516 838 c 0,5,6
 440 838 440 838 378.5 803 c 128,-1,7
 317 768 317 768 274 709.5 c 128,-1,8
 231 651 231 651 208.5 575.5 c 128,-1,9
 186 500 186 500 186 418 c 2,10,-1
 186 0 l 1,11,-1
 49 0 l 1,12,-1
 49 1006 l 1,13,-1
 -137 1006 l 1,14,-1
 -137 1118 l 1,15,-1
 49 1118 l 1,16,-1
 49 1305 l 1,17,-1
 186 1305 l 1,18,-1
 186 1118 l 1,19,-1
 373 1118 l 1,20,-1
 373 1006 l 1,21,-1
 186 1006 l 1,22,-1
 186 698 l 1,23,24
 285 954 285 954 539 954 c 0,25,26
 883 954 883 954 883 575 c 2,27,-1
 883 0 l 1,0,-1
EndSplineSet
EndChar

StartChar: Iogonek
Encoding: 302 302 289
Width: 1118
Flags: W
LayerCount: 2
Back
Fore
SplineSet
885 -379 m 1,0,1
 760 -379 760 -379 688 -316.5 c 128,-1,2
 616 -254 616 -254 616 -152 c 0,3,4
 616 -104 616 -104 631.5 -66.5 c 128,-1,5
 647 -29 647 -29 670 0 c 1,6,-1
 186 0 l 1,7,-1
 186 117 l 1,8,-1
 397 117 l 1,9,-1
 397 1188 l 1,10,-1
 186 1188 l 1,11,-1
 186 1305 l 1,12,-1
 745 1305 l 1,13,-1
 745 1188 l 1,14,-1
 535 1188 l 1,15,-1
 535 117 l 1,16,-1
 745 117 l 1,17,-1
 745 0 l 1,18,19
 696 -45 696 -45 696 -121 c 0,20,21
 696 -193 696 -193 750.5 -241 c 128,-1,22
 805 -289 805 -289 885 -289 c 1,23,-1
 885 -379 l 1,0,1
EndSplineSet
EndChar

StartChar: iogonek
Encoding: 303 303 290
Width: 1118
Flags: W
LayerCount: 2
Back
Fore
SplineSet
885 -379 m 1,0,1
 760 -379 760 -379 688 -316.5 c 128,-1,2
 616 -254 616 -254 616 -152 c 0,3,4
 616 -104 616 -104 631.5 -66.5 c 128,-1,5
 647 -29 647 -29 670 0 c 1,6,-1
 186 0 l 1,7,-1
 186 117 l 1,8,-1
 397 117 l 1,9,-1
 397 815 l 1,10,-1
 186 815 l 1,11,-1
 186 932 l 1,12,-1
 535 932 l 1,13,-1
 535 117 l 1,14,-1
 745 117 l 1,15,-1
 745 0 l 1,16,17
 696 -45 696 -45 696 -121 c 0,18,19
 696 -193 696 -193 750.5 -241 c 128,-1,20
 805 -289 805 -289 885 -289 c 1,21,-1
 885 -379 l 1,0,1
559 1118 m 1,22,-1
 373 1118 l 1,23,-1
 373 1305 l 1,24,-1
 559 1305 l 1,25,-1
 559 1118 l 1,22,-1
EndSplineSet
EndChar

StartChar: IJ
Encoding: 306 306 292
Width: 1118
Flags: W
LayerCount: 2
Back
Fore
SplineSet
256 -170 m 1,0,1
 305 -227 305 -227 368.5 -253 c 128,-1,2
 432 -279 432 -279 504 -279 c 0,3,4
 596 -279 596 -279 653.5 -242 c 128,-1,5
 711 -205 711 -205 741.5 -147.5 c 128,-1,6
 772 -90 772 -90 783.5 -18.5 c 128,-1,7
 795 53 795 53 795 125 c 2,8,-1
 795 1305 l 1,9,-1
 932 1305 l 1,10,-1
 932 125 l 2,11,12
 932 -123 932 -123 826.5 -259 c 128,-1,13
 721 -395 721 -395 504 -395 c 0,14,15
 293 -395 293 -395 170 -266 c 1,16,-1
 256 -170 l 1,0,1
559 0 m 1,17,-1
 0 0 l 1,18,-1
 0 117 l 1,19,-1
 211 117 l 1,20,-1
 211 1188 l 1,21,-1
 0 1188 l 1,22,-1
 0 1305 l 1,23,-1
 559 1305 l 1,24,-1
 559 1188 l 1,25,-1
 349 1188 l 1,26,-1
 349 117 l 1,27,-1
 559 117 l 1,28,-1
 559 0 l 1,17,-1
EndSplineSet
EndChar

StartChar: ij
Encoding: 307 307 293
Width: 1118
Flags: W
LayerCount: 2
Back
Fore
SplineSet
373 1118 m 1,0,-1
 186 1118 l 1,1,-1
 186 1305 l 1,2,-1
 373 1305 l 1,3,-1
 373 1118 l 1,0,-1
559 0 m 1,4,-1
 0 0 l 1,5,-1
 0 117 l 1,6,-1
 211 117 l 1,7,-1
 211 815 l 1,8,-1
 0 815 l 1,9,-1
 0 932 l 1,10,-1
 348 932 l 1,11,-1
 348 117 l 1,12,-1
 559 117 l 1,13,-1
 559 0 l 1,4,-1
932 1118 m 1,14,-1
 745 1118 l 1,15,-1
 745 1305 l 1,16,-1
 932 1305 l 1,17,-1
 932 1118 l 1,14,-1
535 -395 m 0,18,19
 289 -395 289 -395 190 -193 c 1,20,-1
 295 -121 l 1,21,22
 332 -197 332 -197 390.5 -238 c 128,-1,23
 449 -279 449 -279 535 -279 c 0,24,25
 602 -279 602 -279 648 -259.5 c 128,-1,26
 694 -240 694 -240 721 -204 c 128,-1,27
 748 -168 748 -168 759 -117 c 128,-1,28
 770 -66 770 -66 770 0 c 2,29,-1
 770 815 l 1,30,-1
 559 815 l 1,31,-1
 559 932 l 1,32,-1
 907 932 l 1,33,-1
 907 0 l 2,34,35
 907 -180 907 -180 813 -287.5 c 128,-1,36
 719 -395 719 -395 535 -395 c 0,18,19
EndSplineSet
EndChar

StartChar: jcircumflex
Encoding: 309 309 295
Width: 1118
Flags: W
LayerCount: 2
Back
Fore
SplineSet
348 -395 m 0,0,1
 102 -395 102 -395 4 -193 c 1,2,-1
 109 -121 l 1,3,4
 145 -197 145 -197 203.5 -238 c 128,-1,5
 262 -279 262 -279 348 -279 c 0,6,7
 416 -279 416 -279 462 -259.5 c 128,-1,8
 508 -240 508 -240 534.5 -204 c 128,-1,9
 561 -168 561 -168 572.5 -117 c 128,-1,10
 584 -66 584 -66 584 0 c 2,11,-1
 584 815 l 1,12,-1
 373 815 l 1,13,-1
 373 932 l 1,14,-1
 721 932 l 1,15,-1
 721 0 l 2,16,17
 721 -180 721 -180 626.5 -287.5 c 128,-1,18
 532 -395 532 -395 348 -395 c 0,0,1
856 1081 m 1,19,-1
 803 1014 l 1,20,-1
 561 1219 l 1,21,-1
 315 1012 l 1,22,-1
 262 1077 l 1,23,-1
 559 1368 l 1,24,-1
 856 1081 l 1,19,-1
EndSplineSet
EndChar

StartChar: kgreenlandic
Encoding: 312 312 298
Width: 1118
Flags: W
LayerCount: 2
Back
Fore
SplineSet
930 0 m 1,0,-1
 735 0 l 1,1,-1
 354 418 l 1,2,-1
 186 264 l 1,3,-1
 186 0 l 1,4,-1
 49 0 l 1,5,-1
 49 932 l 1,6,-1
 186 932 l 1,7,-1
 186 430 l 1,8,-1
 717 932 l 1,9,-1
 913 932 l 1,10,-1
 446 504 l 1,11,-1
 930 0 l 1,0,-1
EndSplineSet
EndChar

StartChar: Lslash
Encoding: 321 321 307
Width: 1118
Flags: W
LayerCount: 2
Back
Fore
SplineSet
883 0 m 1,0,-1
 49 0 l 1,1,-1
 49 563 l 1,2,-1
 -162 494 l 1,3,-1
 -162 621 l 1,4,-1
 49 690 l 1,5,-1
 49 1305 l 1,6,-1
 186 1305 l 1,7,-1
 186 737 l 1,8,-1
 397 807 l 1,9,-1
 397 680 l 1,10,-1
 186 610 l 1,11,-1
 186 119 l 1,12,-1
 883 119 l 1,13,-1
 883 0 l 1,0,-1
EndSplineSet
EndChar

StartChar: lslash
Encoding: 322 322 308
Width: 1118
Flags: W
LayerCount: 2
Back
Fore
SplineSet
397 690 m 1,0,-1
 397 1186 l 1,1,-1
 186 1186 l 1,2,-1
 186 1305 l 1,3,-1
 535 1305 l 1,4,-1
 535 737 l 1,5,-1
 745 807 l 1,6,-1
 745 680 l 1,7,-1
 535 610 l 1,8,-1
 535 119 l 1,9,-1
 745 119 l 1,10,-1
 745 0 l 1,11,-1
 186 0 l 1,12,-1
 186 119 l 1,13,-1
 397 119 l 1,14,-1
 397 563 l 1,15,-1
 186 494 l 1,16,-1
 186 621 l 1,17,-1
 397 690 l 1,0,-1
EndSplineSet
EndChar

StartChar: Eng
Encoding: 330 330 316
Width: 1118
Flags: W
LayerCount: 2
Back
Fore
SplineSet
883 125 m 2,0,1
 883 -123 883 -123 777.5 -259 c 128,-1,2
 672 -395 672 -395 455 -395 c 0,3,4
 244 -395 244 -395 121 -266 c 1,5,-1
 207 -170 l 1,6,7
 256 -227 256 -227 319.5 -253 c 128,-1,8
 383 -279 383 -279 455 -279 c 0,9,10
 520 -279 520 -279 567 -259.5 c 128,-1,11
 614 -240 614 -240 647 -207 c 128,-1,12
 680 -174 680 -174 700.5 -130 c 128,-1,13
 721 -86 721 -86 731 -37 c 1,14,-1
 186 1104 l 1,15,-1
 186 0 l 1,16,-1
 49 0 l 1,17,-1
 49 1305 l 1,18,-1
 242 1305 l 1,19,-1
 745 252 l 1,20,-1
 745 1305 l 1,21,-1
 883 1305 l 1,22,-1
 883 125 l 2,0,1
EndSplineSet
EndChar

StartChar: eng
Encoding: 331 331 317
Width: 1118
Flags: W
LayerCount: 2
Back
Fore
SplineSet
387 -250 m 1,0,1
 412 -264 412 -264 445.5 -271.5 c 128,-1,2
 479 -279 479 -279 510 -279 c 0,3,4
 578 -279 578 -279 624 -259.5 c 128,-1,5
 670 -240 670 -240 696.5 -204 c 128,-1,6
 723 -168 723 -168 734 -117 c 128,-1,7
 745 -66 745 -66 745 0 c 2,8,-1
 745 575 l 2,9,10
 745 700 745 700 691 769 c 128,-1,11
 637 838 637 838 516 838 c 0,12,13
 440 838 440 838 378.5 803 c 128,-1,14
 317 768 317 768 274 709.5 c 128,-1,15
 231 651 231 651 208.5 575.5 c 128,-1,16
 186 500 186 500 186 418 c 2,17,-1
 186 0 l 1,18,-1
 49 0 l 1,19,-1
 49 932 l 1,20,-1
 186 932 l 1,21,-1
 186 698 l 1,22,23
 285 954 285 954 539 954 c 0,24,25
 883 954 883 954 883 575 c 2,26,-1
 883 0 l 2,27,28
 883 -180 883 -180 788.5 -287.5 c 128,-1,29
 694 -395 694 -395 510 -395 c 0,30,31
 420 -395 420 -395 352 -369 c 1,32,-1
 387 -250 l 1,0,1
EndSplineSet
EndChar

StartChar: Scedilla
Encoding: 350 350 334
Width: 1118
Flags: W
LayerCount: 2
Back
Fore
SplineSet
899 340 m 0,0,1
 899 266 899 266 871.5 205.5 c 128,-1,2
 844 145 844 145 798 99 c 128,-1,3
 752 53 752 53 690.5 23.5 c 128,-1,4
 629 -6 629 -6 559 -16 c 1,5,-1
 559 -41 l 2,6,7
 559 -188 559 -188 477 -276 c 0,8,9
 389 -371 389 -371 242 -371 c 1,10,-1
 242 -254 l 1,11,12
 444 -254 444 -254 444 -41 c 2,13,-1
 444 -20 l 1,14,15
 348 -12 348 -12 268 28 c 128,-1,16
 188 68 188 68 141 139 c 1,17,-1
 141 0 l 1,18,-1
 25 0 l 1,19,-1
 25 397 l 1,20,-1
 141 397 l 1,21,22
 141 330 141 330 172 274.5 c 128,-1,23
 203 219 203 219 251 179 c 128,-1,24
 299 139 299 139 361.5 116.5 c 128,-1,25
 424 94 424 94 489 94 c 0,26,27
 547 94 547 94 596 110.5 c 128,-1,28
 645 127 645 127 682 157.5 c 128,-1,29
 719 188 719 188 740.5 232 c 128,-1,30
 762 276 762 276 762 332 c 0,31,32
 762 395 762 395 734.5 440 c 128,-1,33
 707 485 707 485 660.5 517 c 128,-1,34
 614 549 614 549 556 571.5 c 128,-1,35
 498 594 498 594 438 616 c 0,36,37
 367 641 367 641 296 668.5 c 128,-1,38
 225 696 225 696 169 738 c 128,-1,39
 113 780 113 780 78 840.5 c 128,-1,40
 43 901 43 901 43 991 c 0,41,42
 43 1071 43 1071 77 1133.5 c 128,-1,43
 111 1196 111 1196 166 1239 c 128,-1,44
 221 1282 221 1282 294 1304.5 c 128,-1,45
 367 1327 367 1327 444 1327 c 0,46,47
 539 1327 539 1327 619.5 1288 c 128,-1,48
 700 1249 700 1249 745 1169 c 1,49,-1
 745 1305 l 1,50,-1
 866 1305 l 1,51,-1
 866 932 l 1,52,-1
 745 932 l 1,53,54
 745 991 745 991 720.5 1042.5 c 128,-1,55
 696 1094 696 1094 654 1130.5 c 128,-1,56
 612 1167 612 1167 558 1188.5 c 128,-1,57
 504 1210 504 1210 444 1210 c 0,58,59
 391 1210 391 1210 343 1198 c 128,-1,60
 295 1186 295 1186 259 1159.5 c 128,-1,61
 223 1133 223 1133 201.5 1091 c 128,-1,62
 180 1049 180 1049 180 991 c 0,63,64
 180 940 180 940 205.5 904 c 128,-1,65
 231 868 231 868 274 840.5 c 128,-1,66
 317 813 317 813 373.5 790.5 c 128,-1,67
 430 768 430 768 489 745 c 0,68,69
 563 719 563 719 636 687 c 128,-1,70
 709 655 709 655 767 610 c 128,-1,71
 825 565 825 565 862 499.5 c 128,-1,72
 899 434 899 434 899 340 c 0,0,1
EndSplineSet
EndChar

StartChar: scedilla
Encoding: 351 351 335
Width: 1118
Flags: W
LayerCount: 2
Back
Fore
SplineSet
907 258 m 0,0,1
 907 190 907 190 877.5 141 c 128,-1,2
 848 92 848 92 799 59.5 c 128,-1,3
 750 27 750 27 687.5 8.5 c 128,-1,4
 625 -10 625 -10 559 -16 c 1,5,-1
 559 -41 l 2,6,7
 559 -188 559 -188 477 -276 c 0,8,9
 389 -371 389 -371 242 -371 c 1,10,-1
 242 -254 l 1,11,12
 444 -254 444 -254 444 -41 c 2,13,-1
 444 -23 l 1,14,15
 322 -18 322 -18 201 16.5 c 128,-1,16
 80 51 80 51 -10 111 c 1,17,-1
 51 229 l 1,18,19
 154 164 154 164 254 129 c 128,-1,20
 354 94 354 94 461 94 c 0,21,22
 770 94 770 94 770 254 c 0,23,24
 770 293 770 293 744.5 317.5 c 128,-1,25
 719 342 719 342 676 357.5 c 128,-1,26
 633 373 633 373 577.5 382 c 128,-1,27
 522 391 522 391 461 399 c 0,28,29
 383 410 383 410 306 425 c 128,-1,30
 229 440 229 440 165.5 470 c 128,-1,31
 102 500 102 500 63.5 550 c 128,-1,32
 25 600 25 600 25 682 c 0,33,34
 25 752 25 752 60.5 803 c 128,-1,35
 96 854 96 854 155.5 888 c 128,-1,36
 215 922 215 922 295 938 c 128,-1,37
 375 954 375 954 461 954 c 0,38,39
 584 954 584 954 681 925.5 c 128,-1,40
 778 897 778 897 856 844 c 1,41,-1
 801 737 l 1,42,43
 721 793 721 793 639 815.5 c 128,-1,44
 557 838 557 838 461 838 c 0,45,46
 418 838 418 838 365.5 830.5 c 128,-1,47
 313 823 313 823 268 804.5 c 128,-1,48
 223 786 223 786 192.5 756.5 c 128,-1,49
 162 727 162 727 162 682 c 0,50,51
 162 643 162 643 187.5 619.5 c 128,-1,52
 213 596 213 596 256 580.5 c 128,-1,53
 299 565 299 565 354.5 556 c 128,-1,54
 410 547 410 547 471 539 c 0,55,56
 547 528 547 528 624.5 513 c 128,-1,57
 702 498 702 498 765.5 469 c 128,-1,58
 829 440 829 440 868 390 c 128,-1,59
 907 340 907 340 907 258 c 0,0,1
EndSplineSet
EndChar

StartChar: Tbar
Encoding: 358 358 342
Width: 1118
Flags: W
LayerCount: 2
Back
Fore
SplineSet
745 608 m 1,0,-1
 535 608 l 1,1,-1
 535 117 l 1,2,-1
 745 117 l 1,3,-1
 745 0 l 1,4,-1
 186 0 l 1,5,-1
 186 117 l 1,6,-1
 397 117 l 1,7,-1
 397 608 l 1,8,-1
 186 608 l 1,9,-1
 186 721 l 1,10,-1
 397 721 l 1,11,-1
 397 1188 l 1,12,-1
 117 1188 l 1,13,-1
 117 864 l 1,14,-1
 0 864 l 1,15,-1
 0 1305 l 1,16,-1
 932 1305 l 1,17,-1
 932 864 l 1,18,-1
 815 864 l 1,19,-1
 815 1188 l 1,20,-1
 535 1188 l 1,21,-1
 535 721 l 1,22,-1
 745 721 l 1,23,-1
 745 608 l 1,0,-1
EndSplineSet
EndChar

StartChar: tbar
Encoding: 359 359 343
Width: 1118
Flags: W
LayerCount: 2
Back
Fore
SplineSet
559 446 m 1,0,-1
 348 446 l 1,1,-1
 348 342 l 2,2,3
 348 291 348 291 364.5 246 c 128,-1,4
 381 201 381 201 410.5 167 c 128,-1,5
 440 133 440 133 482 113.5 c 128,-1,6
 524 94 524 94 578 94 c 0,7,8
 680 94 680 94 748.5 157.5 c 128,-1,9
 817 221 817 221 827 322 c 1,10,-1
 942 297 l 1,11,12
 926 150 926 150 826.5 63.5 c 128,-1,13
 727 -23 727 -23 578 -23 c 0,14,15
 496 -23 496 -23 428 4 c 128,-1,16
 360 31 360 31 312 79 c 128,-1,17
 264 127 264 127 237.5 194.5 c 128,-1,18
 211 262 211 262 211 342 c 2,19,-1
 211 446 l 1,20,-1
 0 446 l 1,21,-1
 0 559 l 1,22,-1
 211 559 l 1,23,-1
 211 815 l 1,24,-1
 0 815 l 1,25,-1
 0 932 l 1,26,-1
 211 932 l 1,27,-1
 211 1305 l 1,28,-1
 348 1305 l 1,29,-1
 348 932 l 1,30,-1
 745 932 l 1,31,-1
 745 815 l 1,32,-1
 348 815 l 1,33,-1
 348 559 l 1,34,-1
 559 559 l 1,35,-1
 559 446 l 1,0,-1
EndSplineSet
EndChar

StartChar: Uogonek
Encoding: 370 370 354
Width: 1118
Flags: W
LayerCount: 2
Back
Fore
SplineSet
760 -379 m 1,0,1
 635 -379 635 -379 563.5 -316.5 c 128,-1,2
 492 -254 492 -254 492 -152 c 0,3,4
 492 -111 492 -111 502 -79 c 128,-1,5
 512 -47 512 -47 530 -18 c 1,6,7
 514 -20 514 -20 497.5 -21.5 c 128,-1,8
 481 -23 481 -23 465 -23 c 0,9,10
 356 -23 356 -23 277.5 12 c 128,-1,11
 199 47 199 47 148.5 110.5 c 128,-1,12
 98 174 98 174 73.5 265 c 128,-1,13
 49 356 49 356 49 467 c 2,14,-1
 49 1305 l 1,15,-1
 186 1305 l 1,16,-1
 186 465 l 2,17,18
 186 406 186 406 196.5 340 c 128,-1,19
 207 274 207 274 237.5 220 c 128,-1,20
 268 166 268 166 322.5 130 c 128,-1,21
 377 94 377 94 465 94 c 256,22,23
 553 94 553 94 608.5 130 c 128,-1,24
 664 166 664 166 694.5 220 c 128,-1,25
 725 274 725 274 735 340 c 128,-1,26
 745 406 745 406 745 465 c 2,27,-1
 745 1305 l 1,28,-1
 883 1305 l 1,29,-1
 883 465 l 2,30,31
 883 285 883 285 819.5 164 c 128,-1,32
 756 43 756 43 621 0 c 1,33,34
 571 -45 571 -45 571 -121 c 0,35,36
 571 -193 571 -193 625.5 -241 c 128,-1,37
 680 -289 680 -289 760 -289 c 1,38,-1
 760 -379 l 1,0,1
EndSplineSet
EndChar

StartChar: uogonek
Encoding: 371 371 355
Width: 1118
Flags: W
LayerCount: 2
Back
Fore
SplineSet
1022 -379 m 1,0,1
 897 -379 897 -379 825.5 -316.5 c 128,-1,2
 754 -254 754 -254 754 -152 c 0,3,4
 754 -104 754 -104 769 -66.5 c 128,-1,5
 784 -29 784 -29 807 0 c 1,6,-1
 745 0 l 1,7,-1
 745 233 l 1,8,9
 647 -23 647 -23 393 -23 c 0,10,11
 49 -23 49 -23 49 356 c 2,12,-1
 49 932 l 1,13,-1
 186 932 l 1,14,-1
 186 356 l 2,15,16
 186 231 186 231 240.5 162.5 c 128,-1,17
 295 94 295 94 416 94 c 0,18,19
 492 94 492 94 553 129 c 128,-1,20
 614 164 614 164 657 222.5 c 128,-1,21
 700 281 700 281 722.5 356.5 c 128,-1,22
 745 432 745 432 745 514 c 2,23,-1
 745 932 l 1,24,-1
 883 932 l 1,25,-1
 883 0 l 1,26,27
 834 -45 834 -45 834 -121 c 0,28,29
 834 -193 834 -193 888 -241 c 128,-1,30
 942 -289 942 -289 1022 -289 c 1,31,-1
 1022 -379 l 1,0,1
EndSplineSet
EndChar

StartChar: longs
Encoding: 383 383 366
Width: 1118
Flags: W
LayerCount: 2
Back
Fore
SplineSet
535 117 m 1,0,-1
 745 117 l 1,1,-1
 745 0 l 1,2,-1
 186 0 l 1,3,-1
 186 117 l 1,4,-1
 397 117 l 1,5,-1
 397 815 l 1,6,-1
 186 815 l 1,7,-1
 186 932 l 1,8,-1
 397 932 l 1,9,10
 397 1124 397 1124 496.5 1225.5 c 128,-1,11
 596 1327 596 1327 797 1327 c 0,12,13
 844 1327 844 1327 876.5 1324 c 128,-1,14
 909 1321 909 1321 932 1317 c 1,15,-1
 932 1200 l 1,16,17
 903 1204 903 1204 871.5 1207 c 128,-1,18
 840 1210 840 1210 797 1210 c 0,19,20
 666 1210 666 1210 600.5 1143.5 c 128,-1,21
 535 1077 535 1077 535 932 c 2,22,-1
 535 117 l 1,0,-1
EndSplineSet
EndChar

StartChar: tonos
Encoding: 900 900 375
Width: 1118
Flags: W
LayerCount: 2
Back
Fore
SplineSet
582 1583 m 1,0,-1
 498 1118 l 1,1,-1
 397 1118 l 1,2,-1
 397 1583 l 1,3,-1
 582 1583 l 1,0,-1
EndSplineSet
EndChar

StartChar: dieresistonos
Encoding: 901 901 376
Width: 1118
Flags: W
LayerCount: 2
Back
Fore
SplineSet
582 1583 m 1,0,-1
 498 1118 l 1,1,-1
 397 1118 l 1,2,-1
 397 1583 l 1,3,-1
 582 1583 l 1,0,-1
932 1118 m 1,4,-1
 745 1118 l 1,5,-1
 745 1305 l 1,6,-1
 932 1305 l 1,7,-1
 932 1118 l 1,4,-1
186 1118 m 1,8,-1
 0 1118 l 1,9,-1
 0 1305 l 1,10,-1
 186 1305 l 1,11,-1
 186 1118 l 1,8,-1
EndSplineSet
EndChar

StartChar: Alpha
Encoding: 913 913 385
Width: 1118
Flags: W
LayerCount: 2
Back
Fore
SplineSet
995 0 m 1,0,-1
 848 0 l 1,1,-1
 725 373 l 1,2,-1
 209 373 l 1,3,-1
 88 0 l 1,4,-1
 -59 0 l 1,5,-1
 375 1305 l 1,6,-1
 561 1305 l 1,7,-1
 995 0 l 1,0,-1
686 494 m 1,8,-1
 467 1167 l 1,9,-1
 248 494 l 1,10,-1
 686 494 l 1,8,-1
EndSplineSet
EndChar

StartChar: Beta
Encoding: 914 914 386
Width: 1118
Flags: W
LayerCount: 2
Back
Fore
SplineSet
930 373 m 0,0,1
 930 186 930 186 809 93 c 128,-1,2
 688 0 688 0 465 0 c 2,3,-1
 49 0 l 1,4,-1
 49 1305 l 1,5,-1
 442 1305 l 2,6,7
 524 1305 524 1305 603 1291.5 c 128,-1,8
 682 1278 682 1278 744.5 1241 c 128,-1,9
 807 1204 807 1204 846 1138.5 c 128,-1,10
 885 1073 885 1073 885 967 c 0,11,12
 885 764 885 764 682 690 c 1,13,14
 930 614 930 614 930 373 c 0,0,1
748 967 m 0,15,16
 748 1036 748 1036 719 1080 c 128,-1,17
 690 1124 690 1124 645 1147.5 c 128,-1,18
 600 1171 600 1171 546 1179.5 c 128,-1,19
 492 1188 492 1188 442 1188 c 2,20,-1
 186 1188 l 1,21,-1
 186 745 l 1,22,-1
 442 745 l 2,23,24
 498 745 498 745 552 753.5 c 128,-1,25
 606 762 606 762 649 786.5 c 128,-1,26
 692 811 692 811 720 854 c 128,-1,27
 748 897 748 897 748 967 c 0,15,16
793 373 m 0,28,29
 793 508 793 508 705.5 569.5 c 128,-1,30
 618 631 618 631 465 631 c 2,31,-1
 186 631 l 1,32,-1
 186 117 l 1,33,-1
 465 117 l 2,34,35
 618 117 618 117 705.5 181.5 c 128,-1,36
 793 246 793 246 793 373 c 0,28,29
EndSplineSet
EndChar

StartChar: Gamma
Encoding: 915 915 387
Width: 1118
Flags: W
LayerCount: 2
Back
Fore
SplineSet
49 1305 m 1,0,-1
 932 1305 l 1,1,-1
 932 1188 l 1,2,-1
 186 1188 l 1,3,-1
 186 0 l 1,4,-1
 49 0 l 1,5,-1
 49 1305 l 1,0,-1
EndSplineSet
EndChar

StartChar: uni0394
Encoding: 916 916 388
Width: 1118
Flags: W
LayerCount: 2
Back
Fore
SplineSet
995 0 m 1,0,-1
 -59 0 l 1,1,-1
 375 1305 l 1,2,-1
 561 1305 l 1,3,-1
 995 0 l 1,0,-1
809 117 m 1,4,-1
 467 1165 l 1,5,-1
 125 117 l 1,6,-1
 809 117 l 1,4,-1
EndSplineSet
EndChar

StartChar: Epsilon
Encoding: 917 917 389
Width: 1118
Flags: W
LayerCount: 2
Back
Fore
SplineSet
883 0 m 1,0,-1
 49 0 l 1,1,-1
 49 1305 l 1,2,-1
 883 1305 l 1,3,-1
 883 1188 l 1,4,-1
 186 1188 l 1,5,-1
 186 721 l 1,6,-1
 700 721 l 1,7,-1
 700 604 l 1,8,-1
 186 604 l 1,9,-1
 186 117 l 1,10,-1
 883 117 l 1,11,-1
 883 0 l 1,0,-1
EndSplineSet
EndChar

StartChar: Zeta
Encoding: 918 918 390
Width: 1118
Flags: W
LayerCount: 2
Back
Fore
SplineSet
887 0 m 1,0,-1
 49 0 l 1,1,-1
 49 117 l 1,2,-1
 705 1188 l 1,3,-1
 166 1188 l 1,4,-1
 166 868 l 1,5,-1
 49 868 l 1,6,-1
 49 1305 l 1,7,-1
 866 1305 l 1,8,-1
 866 1188 l 1,9,-1
 217 117 l 1,10,-1
 770 117 l 1,11,-1
 770 442 l 1,12,-1
 887 442 l 1,13,-1
 887 0 l 1,0,-1
EndSplineSet
EndChar

StartChar: Eta
Encoding: 919 919 391
Width: 1118
Flags: W
LayerCount: 2
Back
Fore
SplineSet
883 0 m 1,0,-1
 745 0 l 1,1,-1
 745 604 l 1,2,-1
 186 604 l 1,3,-1
 186 0 l 1,4,-1
 49 0 l 1,5,-1
 49 1305 l 1,6,-1
 186 1305 l 1,7,-1
 186 721 l 1,8,-1
 745 721 l 1,9,-1
 745 1305 l 1,10,-1
 883 1305 l 1,11,-1
 883 0 l 1,0,-1
EndSplineSet
EndChar

StartChar: Theta
Encoding: 920 920 392
Width: 1118
Flags: W
LayerCount: 2
Back
Fore
SplineSet
229 711 m 1,0,-1
 700 711 l 1,1,-1
 700 594 l 1,2,-1
 229 594 l 1,3,-1
 229 711 l 1,0,-1
967 651 m 256,4,5
 967 520 967 520 940 398 c 128,-1,6
 913 276 913 276 854 183 c 128,-1,7
 795 90 795 90 699.5 33.5 c 128,-1,8
 604 -23 604 -23 467 -23 c 256,9,10
 330 -23 330 -23 234.5 33.5 c 128,-1,11
 139 90 139 90 79.5 183 c 128,-1,12
 20 276 20 276 -6.5 398 c 128,-1,13
 -33 520 -33 520 -33 651 c 256,14,15
 -33 782 -33 782 -6.5 904 c 128,-1,16
 20 1026 20 1026 80.5 1120 c 128,-1,17
 141 1214 141 1214 236.5 1270.5 c 128,-1,18
 332 1327 332 1327 467 1327 c 256,19,20
 602 1327 602 1327 697.5 1270.5 c 128,-1,21
 793 1214 793 1214 852 1120 c 128,-1,22
 911 1026 911 1026 939 904 c 128,-1,23
 967 782 967 782 967 651 c 256,4,5
829 651 m 0,24,25
 829 780 829 780 804.5 883.5 c 128,-1,26
 780 987 780 987 734 1060 c 128,-1,27
 688 1133 688 1133 620.5 1171.5 c 128,-1,28
 553 1210 553 1210 467 1210 c 0,29,30
 360 1210 360 1210 290.5 1160 c 128,-1,31
 221 1110 221 1110 179 1029 c 128,-1,32
 137 948 137 948 120.5 849 c 128,-1,33
 104 750 104 750 104 651 c 0,34,35
 104 553 104 553 120.5 453.5 c 128,-1,36
 137 354 137 354 179 274.5 c 128,-1,37
 221 195 221 195 290.5 144.5 c 128,-1,38
 360 94 360 94 467 94 c 0,39,40
 573 94 573 94 643 144.5 c 128,-1,41
 713 195 713 195 755 274.5 c 128,-1,42
 797 354 797 354 813 453.5 c 128,-1,43
 829 553 829 553 829 651 c 0,24,25
EndSplineSet
EndChar

StartChar: Iota
Encoding: 921 921 393
Width: 1118
Flags: W
LayerCount: 2
Back
Fore
SplineSet
745 0 m 1,0,-1
 186 0 l 1,1,-1
 186 117 l 1,2,-1
 397 117 l 1,3,-1
 397 1188 l 1,4,-1
 186 1188 l 1,5,-1
 186 1305 l 1,6,-1
 745 1305 l 1,7,-1
 745 1188 l 1,8,-1
 535 1188 l 1,9,-1
 535 117 l 1,10,-1
 745 117 l 1,11,-1
 745 0 l 1,0,-1
EndSplineSet
EndChar

StartChar: Kappa
Encoding: 922 922 394
Width: 1118
Flags: W
LayerCount: 2
Back
Fore
SplineSet
926 0 m 1,0,-1
 758 0 l 1,1,-1
 324 639 l 1,2,-1
 186 485 l 1,3,-1
 186 0 l 1,4,-1
 49 0 l 1,5,-1
 49 1305 l 1,6,-1
 186 1305 l 1,7,-1
 186 670 l 1,8,-1
 745 1305 l 1,9,-1
 926 1305 l 1,10,-1
 414 735 l 1,11,-1
 926 0 l 1,0,-1
EndSplineSet
EndChar

StartChar: Lambda
Encoding: 923 923 395
Width: 1118
Flags: W
LayerCount: 2
Back
Fore
SplineSet
848 0 m 1,0,-1
 467 1165 l 1,1,-1
 88 0 l 1,2,-1
 -59 0 l 1,3,-1
 375 1305 l 1,4,-1
 561 1305 l 1,5,-1
 995 0 l 1,6,-1
 848 0 l 1,0,-1
EndSplineSet
EndChar

StartChar: Mu
Encoding: 924 924 396
Width: 1118
Flags: W
LayerCount: 2
Back
Fore
SplineSet
883 0 m 1,0,-1
 745 0 l 1,1,-1
 745 1087 l 1,2,-1
 514 414 l 1,3,-1
 416 414 l 1,4,-1
 186 1087 l 1,5,-1
 186 0 l 1,6,-1
 49 0 l 1,7,-1
 49 1305 l 1,8,-1
 227 1305 l 1,9,-1
 465 623 l 1,10,-1
 705 1305 l 1,11,-1
 883 1305 l 1,12,-1
 883 0 l 1,0,-1
EndSplineSet
EndChar

StartChar: Nu
Encoding: 925 925 397
Width: 1118
Flags: W
LayerCount: 2
Back
Fore
SplineSet
883 0 m 1,0,-1
 713 0 l 1,1,-1
 186 1104 l 1,2,-1
 186 0 l 1,3,-1
 49 0 l 1,4,-1
 49 1305 l 1,5,-1
 242 1305 l 1,6,-1
 745 252 l 1,7,-1
 745 1305 l 1,8,-1
 883 1305 l 1,9,-1
 883 0 l 1,0,-1
EndSplineSet
EndChar

StartChar: Xi
Encoding: 926 926 398
Width: 1118
Flags: W
LayerCount: 2
Back
Fore
SplineSet
0 301 m 1,0,-1
 121 301 l 1,1,-1
 121 117 l 1,2,-1
 811 117 l 1,3,-1
 811 301 l 1,4,-1
 932 301 l 1,5,-1
 932 0 l 1,6,-1
 0 0 l 1,7,-1
 0 301 l 1,0,-1
811 1188 m 1,8,-1
 121 1188 l 1,9,-1
 121 1001 l 1,10,-1
 0 1001 l 1,11,-1
 0 1305 l 1,12,-1
 932 1305 l 1,13,-1
 932 1001 l 1,14,-1
 811 1001 l 1,15,-1
 811 1188 l 1,8,-1
229 711 m 1,16,-1
 700 711 l 1,17,-1
 700 594 l 1,18,-1
 229 594 l 1,19,-1
 229 711 l 1,16,-1
EndSplineSet
EndChar

StartChar: Omicron
Encoding: 927 927 399
Width: 1118
Flags: W
LayerCount: 2
Back
Fore
SplineSet
967 651 m 256,0,1
 967 520 967 520 940 398 c 128,-1,2
 913 276 913 276 854 183 c 128,-1,3
 795 90 795 90 699.5 33.5 c 128,-1,4
 604 -23 604 -23 467 -23 c 256,5,6
 330 -23 330 -23 234.5 33.5 c 128,-1,7
 139 90 139 90 79.5 183 c 128,-1,8
 20 276 20 276 -6.5 398 c 128,-1,9
 -33 520 -33 520 -33 651 c 256,10,11
 -33 782 -33 782 -6.5 904 c 128,-1,12
 20 1026 20 1026 80.5 1120 c 128,-1,13
 141 1214 141 1214 236.5 1270.5 c 128,-1,14
 332 1327 332 1327 467 1327 c 256,15,16
 602 1327 602 1327 697.5 1270.5 c 128,-1,17
 793 1214 793 1214 852 1120 c 128,-1,18
 911 1026 911 1026 939 904 c 128,-1,19
 967 782 967 782 967 651 c 256,0,1
829 651 m 0,20,21
 829 780 829 780 804.5 883.5 c 128,-1,22
 780 987 780 987 734 1060 c 128,-1,23
 688 1133 688 1133 620.5 1171.5 c 128,-1,24
 553 1210 553 1210 467 1210 c 0,25,26
 360 1210 360 1210 290.5 1160 c 128,-1,27
 221 1110 221 1110 179 1029 c 128,-1,28
 137 948 137 948 120.5 849 c 128,-1,29
 104 750 104 750 104 651 c 0,30,31
 104 553 104 553 120.5 453.5 c 128,-1,32
 137 354 137 354 179 274.5 c 128,-1,33
 221 195 221 195 290.5 144.5 c 128,-1,34
 360 94 360 94 467 94 c 0,35,36
 573 94 573 94 643 144.5 c 128,-1,37
 713 195 713 195 755 274.5 c 128,-1,38
 797 354 797 354 813 453.5 c 128,-1,39
 829 553 829 553 829 651 c 0,20,21
EndSplineSet
EndChar

StartChar: Pi
Encoding: 928 928 400
Width: 1118
Flags: W
LayerCount: 2
Back
Fore
SplineSet
883 0 m 1,0,-1
 745 0 l 1,1,-1
 745 1188 l 1,2,-1
 186 1188 l 1,3,-1
 186 0 l 1,4,-1
 49 0 l 1,5,-1
 49 1305 l 1,6,-1
 883 1305 l 1,7,-1
 883 0 l 1,0,-1
EndSplineSet
EndChar

StartChar: Rho
Encoding: 929 929 401
Width: 1118
Flags: W
LayerCount: 2
Back
Fore
SplineSet
930 932 m 0,0,1
 930 743 930 743 812 651 c 128,-1,2
 694 559 694 559 481 559 c 2,3,-1
 186 559 l 1,4,-1
 186 0 l 1,5,-1
 49 0 l 1,6,-1
 49 1305 l 1,7,-1
 479 1305 l 2,8,9
 694 1305 694 1305 812 1211.5 c 128,-1,10
 930 1118 930 1118 930 932 c 0,0,1
793 932 m 256,11,12
 793 1067 793 1067 708 1127.5 c 128,-1,13
 623 1188 623 1188 481 1188 c 2,14,-1
 186 1188 l 1,15,-1
 186 676 l 1,16,-1
 481 676 l 2,17,18
 623 676 623 676 708 736.5 c 128,-1,19
 793 797 793 797 793 932 c 256,11,12
EndSplineSet
EndChar

StartChar: Sigma
Encoding: 931 931 402
Width: 1118
Flags: W
LayerCount: 2
Back
Fore
SplineSet
883 0 m 1,0,-1
 43 0 l 1,1,-1
 43 117 l 1,2,-1
 371 653 l 1,3,-1
 43 1188 l 1,4,-1
 43 1305 l 1,5,-1
 883 1305 l 1,6,-1
 883 864 l 1,7,-1
 762 864 l 1,8,-1
 762 1188 l 1,9,-1
 207 1188 l 1,10,-1
 532 653 l 1,11,-1
 207 117 l 1,12,-1
 762 117 l 1,13,-1
 762 442 l 1,14,-1
 883 442 l 1,15,-1
 883 0 l 1,0,-1
EndSplineSet
EndChar

StartChar: Tau
Encoding: 932 932 403
Width: 1118
Flags: W
LayerCount: 2
Back
Fore
SplineSet
932 864 m 1,0,-1
 815 864 l 1,1,-1
 815 1188 l 1,2,-1
 535 1188 l 1,3,-1
 535 117 l 1,4,-1
 745 117 l 1,5,-1
 745 0 l 1,6,-1
 186 0 l 1,7,-1
 186 117 l 1,8,-1
 397 117 l 1,9,-1
 397 1188 l 1,10,-1
 117 1188 l 1,11,-1
 117 864 l 1,12,-1
 0 864 l 1,13,-1
 0 1305 l 1,14,-1
 932 1305 l 1,15,-1
 932 864 l 1,0,-1
EndSplineSet
EndChar

StartChar: Upsilon
Encoding: 933 933 404
Width: 1118
Flags: W
LayerCount: 2
Back
Fore
SplineSet
952 1188 m 1,0,-1
 846 1188 l 1,1,-1
 535 563 l 1,2,-1
 535 117 l 1,3,-1
 745 117 l 1,4,-1
 745 0 l 1,5,-1
 186 0 l 1,6,-1
 186 117 l 1,7,-1
 397 117 l 1,8,-1
 397 563 l 1,9,-1
 86 1188 l 1,10,-1
 -20 1188 l 1,11,-1
 -20 1305 l 1,12,-1
 348 1305 l 1,13,-1
 348 1188 l 1,14,-1
 240 1188 l 1,15,-1
 467 696 l 1,16,-1
 692 1188 l 1,17,-1
 584 1188 l 1,18,-1
 584 1305 l 1,19,-1
 952 1305 l 1,20,-1
 952 1188 l 1,0,-1
EndSplineSet
EndChar

StartChar: Phi
Encoding: 934 934 405
Width: 1118
Flags: W
LayerCount: 2
Back
Fore
SplineSet
956 655 m 0,0,1
 956 557 956 557 925.5 473 c 128,-1,2
 895 389 895 389 839.5 325.5 c 128,-1,3
 784 262 784 262 706.5 222 c 128,-1,4
 629 182 629 182 535 172 c 1,5,-1
 535 0 l 1,6,-1
 397 0 l 1,7,-1
 397 174 l 1,8,9
 303 184 303 184 226.5 224 c 128,-1,10
 150 264 150 264 94.5 326.5 c 128,-1,11
 39 389 39 389 9.5 473 c 128,-1,12
 -20 557 -20 557 -20 655 c 0,13,14
 -20 754 -20 754 9.5 838 c 128,-1,15
 39 922 39 922 94.5 986.5 c 128,-1,16
 150 1051 150 1051 226.5 1090.5 c 128,-1,17
 303 1130 303 1130 397 1143 c 1,18,-1
 397 1305 l 1,19,-1
 535 1305 l 1,20,-1
 535 1143 l 1,21,22
 629 1133 629 1133 706.5 1092 c 128,-1,23
 784 1051 784 1051 839.5 987.5 c 128,-1,24
 895 924 895 924 925.5 839 c 128,-1,25
 956 754 956 754 956 655 c 0,0,1
819 655 m 0,26,27
 819 725 819 725 799.5 787.5 c 128,-1,28
 780 850 780 850 744.5 899 c 128,-1,29
 709 948 709 948 655.5 980 c 128,-1,30
 602 1012 602 1012 535 1024 c 1,31,-1
 535 293 l 1,32,33
 670 315 670 315 744.5 414.5 c 128,-1,34
 819 514 819 514 819 655 c 0,26,27
117 655 m 0,35,36
 117 514 117 514 189.5 414.5 c 128,-1,37
 262 315 262 315 397 293 c 1,38,-1
 397 1024 l 1,39,40
 330 1012 330 1012 277.5 979 c 128,-1,41
 225 946 225 946 189.5 898 c 128,-1,42
 154 850 154 850 135.5 787.5 c 128,-1,43
 117 725 117 725 117 655 c 0,35,36
EndSplineSet
EndChar

StartChar: Chi
Encoding: 935 935 406
Width: 1118
Flags: W
LayerCount: 2
Back
Fore
SplineSet
954 0 m 1,0,-1
 584 0 l 1,1,-1
 584 117 l 1,2,-1
 672 117 l 1,3,-1
 467 545 l 1,4,-1
 260 117 l 1,5,-1
 348 117 l 1,6,-1
 348 0 l 1,7,-1
 -23 0 l 1,8,-1
 -23 117 l 1,9,-1
 104 117 l 1,10,-1
 387 657 l 1,11,-1
 109 1188 l 1,12,-1
 0 1188 l 1,13,-1
 0 1305 l 1,14,-1
 373 1305 l 1,15,-1
 373 1188 l 1,16,-1
 264 1188 l 1,17,-1
 467 770 l 1,18,-1
 664 1188 l 1,19,-1
 559 1188 l 1,20,-1
 559 1305 l 1,21,-1
 932 1305 l 1,22,-1
 932 1188 l 1,23,-1
 819 1188 l 1,24,-1
 547 657 l 1,25,-1
 827 117 l 1,26,-1
 954 117 l 1,27,-1
 954 0 l 1,0,-1
EndSplineSet
EndChar

StartChar: Psi
Encoding: 936 936 407
Width: 1118
Flags: W
LayerCount: 2
Back
Fore
SplineSet
883 807 m 2,0,1
 883 602 883 602 799 474 c 128,-1,2
 715 346 715 346 535 324 c 1,3,-1
 535 0 l 1,4,-1
 397 0 l 1,5,-1
 397 324 l 1,6,7
 215 346 215 346 132 475 c 128,-1,8
 49 604 49 604 49 809 c 2,9,-1
 49 1305 l 1,10,-1
 186 1305 l 1,11,-1
 186 807 l 2,12,13
 186 754 186 754 194.5 695.5 c 128,-1,14
 203 637 203 637 225.5 586 c 128,-1,15
 248 535 248 535 289 496 c 128,-1,16
 330 457 330 457 397 442 c 1,17,-1
 397 1305 l 1,18,-1
 535 1305 l 1,19,-1
 535 442 l 1,20,21
 600 457 600 457 641 496 c 128,-1,22
 682 535 682 535 705.5 586 c 128,-1,23
 729 637 729 637 737 695.5 c 128,-1,24
 745 754 745 754 745 807 c 2,25,-1
 745 1305 l 1,26,-1
 883 1305 l 1,27,-1
 883 807 l 2,0,1
EndSplineSet
EndChar

StartChar: alpha
Encoding: 945 945 415
Width: 1118
Flags: W
LayerCount: 2
Back
Fore
SplineSet
139 467 m 0,0,1
 139 403 139 403 152.5 337.5 c 128,-1,2
 166 272 166 272 195.5 218 c 128,-1,3
 225 164 225 164 273.5 129 c 128,-1,4
 322 94 322 94 389 94 c 0,5,6
 449 94 449 94 495 129 c 128,-1,7
 541 164 541 164 576.5 217 c 128,-1,8
 612 270 612 270 638 336.5 c 128,-1,9
 664 403 664 403 684 467 c 1,10,11
 664 530 664 530 638 596 c 128,-1,12
 612 662 612 662 576.5 715 c 128,-1,13
 541 768 541 768 495 803 c 128,-1,14
 449 838 449 838 389 838 c 0,15,16
 322 838 322 838 273.5 803 c 128,-1,17
 225 768 225 768 195.5 715 c 128,-1,18
 166 662 166 662 152.5 596 c 128,-1,19
 139 530 139 530 139 467 c 0,0,1
2 467 m 256,20,21
 2 561 2 561 24.5 649 c 128,-1,22
 47 737 47 737 95 804.5 c 128,-1,23
 143 872 143 872 216 913 c 128,-1,24
 289 954 289 954 389 954 c 0,25,26
 512 954 512 954 603 876.5 c 128,-1,27
 694 799 694 799 735 662 c 1,28,-1
 791 932 l 1,29,-1
 938 932 l 1,30,-1
 807 467 l 1,31,-1
 938 0 l 1,32,-1
 791 0 l 1,33,-1
 735 270 l 1,34,35
 694 133 694 133 603 55 c 128,-1,36
 512 -23 512 -23 389 -23 c 0,37,38
 289 -23 289 -23 216 18 c 128,-1,39
 143 59 143 59 95 128 c 128,-1,40
 47 197 47 197 24.5 285 c 128,-1,41
 2 373 2 373 2 467 c 256,20,21
EndSplineSet
EndChar

StartChar: beta
Encoding: 946 946 416
Width: 1118
Flags: W
LayerCount: 2
Back
Fore
SplineSet
494 -23 m 0,0,1
 395 -23 395 -23 322.5 1 c 128,-1,2
 250 25 250 25 186 74 c 1,3,-1
 186 -373 l 1,4,-1
 49 -373 l 1,5,-1
 49 938 l 2,6,7
 49 1022 49 1022 82 1093.5 c 128,-1,8
 115 1165 115 1165 171 1217.5 c 128,-1,9
 227 1270 227 1270 305 1298.5 c 128,-1,10
 383 1327 383 1327 473 1327 c 0,11,12
 569 1327 569 1327 645 1297.5 c 128,-1,13
 721 1268 721 1268 773 1221 c 128,-1,14
 825 1174 825 1174 853 1111.5 c 128,-1,15
 881 1049 881 1049 881 985 c 0,16,17
 881 881 881 881 822.5 801 c 128,-1,18
 764 721 764 721 655 684 c 1,19,20
 788 643 788 643 862 560 c 128,-1,21
 936 477 936 477 936 354 c 0,22,23
 936 272 936 272 903 203.5 c 128,-1,24
 870 135 870 135 812 85 c 128,-1,25
 754 35 754 35 673 6 c 128,-1,26
 592 -23 592 -23 494 -23 c 0,0,1
494 94 m 0,27,28
 637 94 637 94 718 166 c 128,-1,29
 799 238 799 238 799 354 c 0,30,31
 799 471 799 471 714 544.5 c 128,-1,32
 629 618 629 618 463 618 c 2,33,-1
 373 618 l 1,34,-1
 373 735 l 1,35,-1
 463 735 l 2,36,37
 608 735 608 735 675.5 806 c 128,-1,38
 743 877 743 877 743 985 c 0,39,40
 743 1022 743 1022 728 1062 c 128,-1,41
 713 1102 713 1102 681 1134.5 c 128,-1,42
 649 1167 649 1167 598 1188.5 c 128,-1,43
 547 1210 547 1210 473 1210 c 0,44,45
 420 1210 420 1210 368.5 1194 c 128,-1,46
 317 1178 317 1178 276.5 1144 c 128,-1,47
 236 1110 236 1110 211 1059 c 128,-1,48
 186 1008 186 1008 186 938 c 2,49,-1
 186 215 l 1,50,51
 246 150 246 150 319.5 122 c 128,-1,52
 393 94 393 94 494 94 c 0,27,28
EndSplineSet
EndChar

StartChar: gamma
Encoding: 947 947 417
Width: 1118
Flags: W
LayerCount: 2
Back
Fore
SplineSet
891 932 m 1,0,1
 874 813 874 813 845.5 686 c 128,-1,2
 817 559 817 559 774 433 c 128,-1,3
 731 307 731 307 671.5 186.5 c 128,-1,4
 612 66 612 66 535 -41 c 1,5,-1
 535 -373 l 1,6,-1
 397 -373 l 1,7,-1
 397 -43 l 1,8,-1
 0 932 l 1,9,-1
 158 932 l 1,10,-1
 475 88 l 1,11,12
 594 287 594 287 663.5 501 c 128,-1,13
 733 715 733 715 752 932 c 1,14,-1
 891 932 l 1,0,1
EndSplineSet
EndChar

StartChar: delta
Encoding: 948 948 418
Width: 1118
Flags: W
LayerCount: 2
Back
Fore
SplineSet
334 1092 m 0,0,1
 334 1051 334 1051 375 1013 c 128,-1,2
 416 975 416 975 477.5 934 c 128,-1,3
 539 893 539 893 611.5 844 c 128,-1,4
 684 795 684 795 745.5 731.5 c 128,-1,5
 807 668 807 668 848 588 c 128,-1,6
 889 508 889 508 889 406 c 0,7,8
 889 309 889 309 859 231.5 c 128,-1,9
 829 154 829 154 774 96.5 c 128,-1,10
 719 39 719 39 640 8 c 128,-1,11
 561 -23 561 -23 463 -23 c 0,12,13
 367 -23 367 -23 288 8 c 128,-1,14
 209 39 209 39 153.5 96.5 c 128,-1,15
 98 154 98 154 68.5 231.5 c 128,-1,16
 39 309 39 309 39 406 c 0,17,18
 39 524 39 524 122 643 c 128,-1,19
 205 762 205 762 373 854 c 1,20,21
 336 879 336 879 304 904.5 c 128,-1,22
 272 930 272 930 248.5 957.5 c 128,-1,23
 225 985 225 985 211 1018 c 128,-1,24
 197 1051 197 1051 197 1092 c 0,25,26
 197 1135 197 1135 216.5 1177 c 128,-1,27
 236 1219 236 1219 273.5 1252.5 c 128,-1,28
 311 1286 311 1286 365.5 1306.5 c 128,-1,29
 420 1327 420 1327 489 1327 c 0,30,31
 573 1327 573 1327 639 1310.5 c 128,-1,32
 705 1294 705 1294 766 1253 c 1,33,-1
 705 1155 l 1,34,35
 657 1188 657 1188 604 1199 c 128,-1,36
 551 1210 551 1210 489 1210 c 0,37,38
 422 1210 422 1210 378 1180.5 c 128,-1,39
 334 1151 334 1151 334 1092 c 0,0,1
752 406 m 0,40,41
 752 520 752 520 678 614.5 c 128,-1,42
 604 709 604 709 471 780 c 1,43,44
 338 709 338 709 257 614.5 c 128,-1,45
 176 520 176 520 176 403 c 0,46,47
 176 346 176 346 191.5 291 c 128,-1,48
 207 236 207 236 240.5 191.5 c 128,-1,49
 274 147 274 147 329.5 120.5 c 128,-1,50
 385 94 385 94 463 94 c 256,51,52
 541 94 541 94 596 122 c 128,-1,53
 651 150 651 150 686 194 c 128,-1,54
 721 238 721 238 736.5 293 c 128,-1,55
 752 348 752 348 752 406 c 0,40,41
EndSplineSet
EndChar

StartChar: epsilon
Encoding: 949 949 419
Width: 1118
Flags: W
LayerCount: 2
Back
Fore
SplineSet
12 676 m 0,0,1
 12 739 12 739 45 791.5 c 128,-1,2
 78 844 78 844 137.5 879.5 c 128,-1,3
 197 915 197 915 277.5 934.5 c 128,-1,4
 358 954 358 954 455 954 c 0,5,6
 608 954 608 954 708.5 904 c 128,-1,7
 809 854 809 854 870 754 c 1,8,-1
 768 684 l 1,9,10
 727 754 727 754 650 796 c 128,-1,11
 573 838 573 838 455 838 c 0,12,13
 313 838 313 838 231.5 794 c 128,-1,14
 150 750 150 750 150 676 c 0,15,16
 150 651 150 651 165 625.5 c 128,-1,17
 180 600 180 600 212 579.5 c 128,-1,18
 244 559 244 559 293 545.5 c 128,-1,19
 342 532 342 532 408 532 c 2,20,-1
 614 532 l 1,21,-1
 614 416 l 1,22,-1
 408 416 l 2,23,24
 340 416 340 416 290 402.5 c 128,-1,25
 240 389 240 389 206 367.5 c 128,-1,26
 172 346 172 346 154.5 318.5 c 128,-1,27
 137 291 137 291 137 264 c 0,28,29
 137 184 137 184 228 139 c 128,-1,30
 319 94 319 94 467 94 c 0,31,32
 590 94 590 94 672 132 c 128,-1,33
 754 170 754 170 801 242 c 1,34,-1
 897 176 l 1,35,36
 834 76 834 76 730.5 26.5 c 128,-1,37
 627 -23 627 -23 467 -23 c 0,38,39
 367 -23 367 -23 282 -3.5 c 128,-1,40
 197 16 197 16 134.5 53 c 128,-1,41
 72 90 72 90 36 143.5 c 128,-1,42
 0 197 0 197 0 264 c 0,43,44
 0 336 0 336 56.5 395.5 c 128,-1,45
 113 455 113 455 205 473 c 1,46,47
 106 489 106 489 59 548.5 c 128,-1,48
 12 608 12 608 12 676 c 0,0,1
EndSplineSet
EndChar

StartChar: zeta
Encoding: 950 950 420
Width: 1118
Flags: W
LayerCount: 2
Back
Fore
SplineSet
770 -115 m 0,0,1
 770 -78 770 -78 753.5 -56.5 c 128,-1,2
 737 -35 737 -35 707.5 -22.5 c 128,-1,3
 678 -10 678 -10 634 -4 c 128,-1,4
 590 2 590 2 535 6 c 0,5,6
 451 12 451 12 356.5 29.5 c 128,-1,7
 262 47 262 47 183 97 c 128,-1,8
 104 147 104 147 53 241.5 c 128,-1,9
 2 336 2 336 2 496 c 0,10,11
 2 600 2 600 52 701.5 c 128,-1,12
 102 803 102 803 189 893 c 128,-1,13
 276 983 276 983 392 1059 c 128,-1,14
 508 1135 508 1135 639 1188 c 1,15,-1
 186 1188 l 1,16,-1
 186 1305 l 1,17,-1
 932 1305 l 1,18,-1
 932 1188 l 1,19,20
 748 1139 748 1139 600.5 1059 c 128,-1,21
 453 979 453 979 350.5 885 c 128,-1,22
 248 791 248 791 193.5 689.5 c 128,-1,23
 139 588 139 588 139 496 c 0,24,25
 139 383 139 383 175 312.5 c 128,-1,26
 211 242 211 242 268.5 202 c 128,-1,27
 326 162 326 162 399.5 146.5 c 128,-1,28
 473 131 473 131 547 125 c 0,29,30
 618 119 618 119 684 108.5 c 128,-1,31
 750 98 750 98 799 72.5 c 128,-1,32
 848 47 848 47 877.5 3 c 128,-1,33
 907 -41 907 -41 907 -115 c 0,34,35
 907 -201 907 -201 849 -277.5 c 128,-1,36
 791 -354 791 -354 674 -395 c 1,37,-1
 614 -291 l 1,38,39
 702 -258 702 -258 736 -210 c 128,-1,40
 770 -162 770 -162 770 -115 c 0,0,1
EndSplineSet
EndChar

StartChar: eta
Encoding: 951 951 421
Width: 1118
Flags: W
LayerCount: 2
Back
Fore
SplineSet
303 774 m 1,0,1
 334 852 334 852 399.5 903 c 128,-1,2
 465 954 465 954 569 954 c 0,3,4
 723 954 723 954 803 862 c 128,-1,5
 883 770 883 770 883 578 c 2,6,-1
 883 -373 l 1,7,-1
 745 -373 l 1,8,-1
 745 578 l 2,9,10
 745 694 745 694 702 766 c 128,-1,11
 659 838 659 838 569 838 c 0,12,13
 465 838 465 838 394.5 758 c 128,-1,14
 324 678 324 678 324 532 c 2,15,-1
 324 0 l 1,16,-1
 186 0 l 1,17,-1
 186 748 l 2,18,19
 186 791 186 791 163.5 814.5 c 128,-1,20
 141 838 141 838 106 838 c 0,21,22
 72 838 72 838 39 823 c 1,23,-1
 12 930 l 1,24,25
 33 940 33 940 61.5 947 c 128,-1,26
 90 954 90 954 119 954 c 0,27,28
 190 954 190 954 244.5 910 c 128,-1,29
 299 866 299 866 303 774 c 1,0,1
EndSplineSet
EndChar

StartChar: theta
Encoding: 952 952 422
Width: 1118
Flags: W
LayerCount: 2
Back
Fore
SplineSet
895 651 m 0,0,1
 895 502 895 502 870.5 378 c 128,-1,2
 846 254 846 254 794.5 165 c 128,-1,3
 743 76 743 76 661.5 26.5 c 128,-1,4
 580 -23 580 -23 467 -23 c 0,5,6
 352 -23 352 -23 272.5 26.5 c 128,-1,7
 193 76 193 76 140.5 165 c 128,-1,8
 88 254 88 254 64.5 378 c 128,-1,9
 41 502 41 502 41 651 c 0,10,11
 41 799 41 799 64.5 923 c 128,-1,12
 88 1047 88 1047 140.5 1137 c 128,-1,13
 193 1227 193 1227 272.5 1277 c 128,-1,14
 352 1327 352 1327 467 1327 c 256,15,16
 582 1327 582 1327 662.5 1277 c 128,-1,17
 743 1227 743 1227 795.5 1138 c 128,-1,18
 848 1049 848 1049 871.5 924 c 128,-1,19
 895 799 895 799 895 651 c 0,0,1
467 94 m 256,20,21
 545 94 545 94 599 133 c 128,-1,22
 653 172 653 172 687 240.5 c 128,-1,23
 721 309 721 309 736.5 403.5 c 128,-1,24
 752 498 752 498 756 606 c 1,25,-1
 180 606 l 1,26,27
 182 498 182 498 198.5 403.5 c 128,-1,28
 215 309 215 309 249 240.5 c 128,-1,29
 283 172 283 172 336 133 c 128,-1,30
 389 94 389 94 467 94 c 256,20,21
467 1210 m 256,31,32
 389 1210 389 1210 336 1173.5 c 128,-1,33
 283 1137 283 1137 249 1071.5 c 128,-1,34
 215 1006 215 1006 198.5 916.5 c 128,-1,35
 182 827 182 827 180 723 c 1,36,-1
 756 723 l 1,37,38
 752 827 752 827 735.5 916.5 c 128,-1,39
 719 1006 719 1006 685 1071.5 c 128,-1,40
 651 1137 651 1137 598 1173.5 c 128,-1,41
 545 1210 545 1210 467 1210 c 256,31,32
EndSplineSet
EndChar

StartChar: iota
Encoding: 953 953 423
Width: 1118
Flags: W
LayerCount: 2
Back
Fore
SplineSet
745 2 m 1,0,1
 723 -10 723 -10 694.5 -16.5 c 128,-1,2
 666 -23 666 -23 623 -23 c 0,3,4
 578 -23 578 -23 537 -7.5 c 128,-1,5
 496 8 496 8 465 37 c 128,-1,6
 434 66 434 66 415.5 109 c 128,-1,7
 397 152 397 152 397 207 c 2,8,-1
 397 811 l 1,9,-1
 186 811 l 1,10,-1
 186 932 l 1,11,-1
 535 932 l 1,12,-1
 535 207 l 2,13,14
 535 94 535 94 641 94 c 0,15,16
 690 94 690 94 717 111 c 1,17,-1
 745 2 l 1,0,1
EndSplineSet
EndChar

StartChar: kappa
Encoding: 954 954 424
Width: 1118
Flags: W
LayerCount: 2
Back
Fore
SplineSet
930 0 m 1,0,-1
 735 0 l 1,1,-1
 354 418 l 1,2,-1
 186 264 l 1,3,-1
 186 0 l 1,4,-1
 49 0 l 1,5,-1
 49 932 l 1,6,-1
 186 932 l 1,7,-1
 186 430 l 1,8,-1
 717 932 l 1,9,-1
 913 932 l 1,10,-1
 446 504 l 1,11,-1
 930 0 l 1,0,-1
EndSplineSet
EndChar

StartChar: lambda
Encoding: 955 955 425
Width: 1118
Flags: W
LayerCount: 2
Back
Fore
SplineSet
797 0 m 1,0,-1
 467 815 l 1,1,-1
 131 0 l 1,2,-1
 -31 0 l 1,3,-1
 385 958 l 1,4,-1
 328 1100 l 2,5,6
 309 1145 309 1145 283.5 1177.5 c 128,-1,7
 258 1210 258 1210 190 1210 c 0,8,9
 162 1210 162 1210 117 1202 c 128,-1,10
 72 1194 72 1194 25 1174 c 1,11,-1
 -2 1292 l 1,12,13
 94 1327 94 1327 190 1327 c 0,14,15
 276 1327 276 1327 347 1296.5 c 128,-1,16
 418 1266 418 1266 457 1167 c 2,17,-1
 961 0 l 1,18,-1
 797 0 l 1,0,-1
EndSplineSet
EndChar

StartChar: uni03BC
Encoding: 956 956 426
Width: 1118
Flags: W
LayerCount: 2
Back
Fore
SplineSet
629 158 m 1,0,1
 608 82 608 82 539.5 29.5 c 128,-1,2
 471 -23 471 -23 373 -23 c 0,3,4
 313 -23 313 -23 261 8 c 128,-1,5
 209 39 209 39 186 96 c 1,6,-1
 186 -373 l 1,7,-1
 49 -373 l 1,8,-1
 49 932 l 1,9,-1
 186 932 l 1,10,-1
 186 319 l 2,11,12
 186 213 186 213 240.5 153.5 c 128,-1,13
 295 94 295 94 373 94 c 0,14,15
 420 94 420 94 462 114.5 c 128,-1,16
 504 135 504 135 536.5 174 c 128,-1,17
 569 213 569 213 587.5 270.5 c 128,-1,18
 606 328 606 328 606 399 c 2,19,-1
 606 932 l 1,20,-1
 745 932 l 1,21,-1
 745 186 l 2,22,23
 745 141 745 141 765.5 117.5 c 128,-1,24
 786 94 786 94 815 94 c 0,25,26
 864 94 864 94 893 111 c 1,27,-1
 920 2 l 1,28,29
 899 -10 899 -10 874.5 -16.5 c 128,-1,30
 850 -23 850 -23 813 -23 c 0,31,32
 741 -23 741 -23 687 21.5 c 128,-1,33
 633 66 633 66 629 158 c 1,0,1
EndSplineSet
EndChar

StartChar: nu
Encoding: 957 957 427
Width: 1118
Flags: W
LayerCount: 2
Back
Fore
SplineSet
891 932 m 1,0,1
 856 692 856 692 767 452.5 c 128,-1,2
 678 213 678 213 520 0 c 1,3,-1
 381 0 l 1,4,-1
 0 932 l 1,5,-1
 164 932 l 1,6,-1
 467 133 l 1,7,8
 586 330 586 330 649.5 522.5 c 128,-1,9
 713 715 713 715 731 932 c 1,10,-1
 891 932 l 1,0,1
EndSplineSet
EndChar

